*
G04 Mass Parameters ***
*
G04 Image ***
*
%INC:\PROGETTI\SCHEDA-ALPHASENSEB43\ALPHAB43-10.SST*%
%ICAS*%
%MOIN*%
%IPPOS*%
%ASAXBY*%
G74*%FSLAN2X34Y34*%
*
G04 Aperture Definitions ***
*
%ADD10R,0.0590X0.0590*%
%ADD11C,0.0630*%
%ADD12R,0.0630X0.0630*%
%ADD13C,0.1260*%
%ADD14R,0.0787X0.0472*%
%ADD15R,0.0472X0.0787*%
%ADD16C,0.0551*%
%ADD17R,0.0551X0.0551*%
%ADD18C,0.1575*%
%ADD19O,0.0900X0.0160*%
%ADD20R,0.0900X0.0160*%
%ADD21O,0.0984X0.0240*%
%ADD22R,0.0984X0.0240*%
%ADD23O,0.0240X0.0984*%
%ADD24R,0.0240X0.0984*%
%ADD25C,0.0100*%
%ADD26C,0.0120*%
%ADD27C,0.0500*%
%ADD28C,0.0500*%
%ADD29C,0.0140*%
%ADD30C,0.0140*%
%ADD31R,0.0590X0.0590*%
%ADD32C,0.0630*%
%ADD33R,0.0630X0.0630*%
%ADD34C,0.1260*%
%ADD35R,0.0787X0.0472*%
%ADD36R,0.0787X0.0787*%
%ADD37C,0.0551*%
%ADD38R,0.0551X0.0551*%
%ADD39R,0.0472X0.0787*%
%ADD40C,0.1575*%
%ADD41R,0.0669X0.0669*%
%ADD42C,0.1338*%
%ADD43R,0.0866X0.0551*%
%ADD44R,0.0551X0.0866*%
%ADD45C,0.1653*%
%ADD46O,0.0979X0.0239*%
%ADD47R,0.0979X0.0239*%
%ADD48O,0.1063X0.0319*%
%ADD49R,0.1063X0.0319*%
%ADD50O,0.0319X0.1063*%
%ADD51R,0.0319X0.1063*%
%ADD52C,0.0550*%
%ADD53C,0.0550*%
%ADD54C,0.0140*%
%ADD55R,0.0866X0.0866*%
%ADD56O,0.0900X0.0160*%
%ADD57R,0.0900X0.0160*%
%ADD58O,0.0984X0.0240*%
%ADD59R,0.0984X0.0240*%
%ADD60O,0.0240X0.0984*%
%ADD61R,0.0240X0.0984*%
%ADD62C,0.0060*%
%ADD63C,0.0080*%
%ADD64C,0.0083*%
%ADD65C,0.0140*%
*
G04 Plot Data ***
*
G54D25*
G01X-0004087Y0011778D02*
X-0004088D01*
Y0011779D01*
X-0004087D01*
Y0011778D01*
X-0003588Y0011862D02*
Y0011695D01*
Y0011779D02*
X-0003921D01*
Y0011695D01*
Y0011370D02*
Y0011120D01*
X-0003838Y0011079D01*
X-0003755Y0011120D01*
Y0011370D01*
X-0003671Y0011412D01*
X-0003588Y0011370D01*
Y0011120D01*
X-0004087Y0010753D02*
X-0004088D01*
Y0010754D01*
X-0004087D01*
Y0010753D01*
X-0003588Y0010837D02*
Y0010670D01*
Y0010754D02*
X-0003921D01*
Y0010670D01*
X-0004088Y0010387D02*
X-0003588D01*
Y0010137D01*
X-0003671Y0010095D01*
X-0003838D01*
X-0003921Y0010137D01*
Y0010387D01*
X-0003588Y0009854D02*
X-0003838D01*
X-0003921Y0009812D01*
Y0009562D01*
X-0003588D01*
X-0004087Y0009236D02*
X-0004088D01*
Y0009237D01*
X-0004087D01*
Y0009236D01*
X-0003588Y0009320D02*
Y0009154D01*
Y0009237D02*
X-0003921D01*
Y0009154D01*
Y0008870D02*
Y0008704D01*
X-0003838Y0008662D01*
Y0008579D01*
X-0003921D02*
X-0003588D01*
Y0008045D02*
X-0004088D01*
X-0003588Y0008004D02*
Y0008254D01*
X-0003671Y0008337D01*
X-0003755D01*
X-0003838Y0008295D01*
Y0008045D02*
Y0008295D01*
X-0003921Y0008337D01*
X-0004005D01*
X-0004088Y0008254D01*
Y0008004D01*
X-0003921Y0006749D02*
Y0006916D01*
X-0003838Y0006958D01*
X-0003671D01*
X-0003588Y0006999D01*
Y0006708D01*
X-0003671Y0006666D01*
X-0003755Y0006708D01*
Y0006958D01*
X-0003588Y0006383D02*
Y0006133D01*
X-0003671Y0006091D01*
X-0003838D01*
X-0003921Y0006133D01*
Y0006383D01*
X-0003838Y0006424D01*
X-0003755D01*
Y0006091D01*
X-0003588Y0005849D02*
X-0003838D01*
X-0003921Y0005808D01*
Y0005558D01*
X-0003588D01*
X-0003838Y0005233D02*
Y0004983D01*
X-0003588Y0005316D02*
Y0004983D01*
X-0004088D01*
Y0005316D01*
X-0003588Y0003895D02*
Y0003979D01*
X-0003671D01*
Y0003895D01*
X-0003588D01*
X-0003838Y0003445D02*
X-0003588Y0003570D01*
X-0003838Y0003237D02*
Y0003487D01*
X-0003921Y0003570D01*
X-0004005D01*
X-0004088Y0003487D01*
Y0003237D01*
X-0003588D01*
Y0002912D02*
Y0002995D01*
X-0003671D01*
Y0002912D01*
X-0003588D01*
X-0003671Y0002587D02*
X-0003588Y0002545D01*
Y0002295D01*
X-0003671Y0002254D01*
X-0004005D01*
X-0004088Y0002295D01*
Y0002545D01*
X-0004005Y0002587D01*
X-0004606Y0013288D02*
X-0004689Y0013247D01*
X-0004856D01*
X-0004939Y0013288D01*
Y0013538D01*
X-0004856Y0013580D01*
X-0004689D01*
X-0004606Y0013538D01*
Y0013288D01*
Y0013005D02*
X-0004856D01*
X-0004939Y0012963D01*
Y0012713D01*
X-0004606D01*
X-0004939Y0012222D02*
Y0012388D01*
X-0004856Y0012430D01*
X-0004689D01*
X-0004606Y0012472D01*
Y0012180D01*
X-0004689Y0012138D01*
X-0004773Y0012180D01*
Y0012430D01*
X-0005105Y0011813D02*
X-0005106D01*
Y0011814D01*
X-0005105D01*
Y0011813D01*
X-0004606Y0011897D02*
Y0011730D01*
Y0011813D02*
X-0004939D01*
Y0011730D01*
Y0011447D02*
Y0011280D01*
X-0004856Y0011238D01*
Y0011155D01*
X-0004939D02*
X-0004606D01*
X-0004939Y0010872D02*
X-0004606D01*
Y0010913D02*
Y0010622D01*
X-0004689Y0010580D01*
X-0004939D01*
X-0005023Y0010338D02*
X-0005106Y0010297D01*
Y0010047D01*
X-0005023Y0010005D01*
X-0004939D01*
X-0004856Y0010047D01*
Y0010297D01*
X-0004773Y0010338D01*
X-0004689D01*
X-0004606Y0010297D01*
Y0010047D01*
X-0004689Y0010005D01*
X-0004606Y0008709D02*
X-0004689Y0008667D01*
X-0004856D01*
X-0004939Y0008709D01*
Y0008959D01*
X-0004856Y0009001D01*
X-0004689D01*
X-0004606Y0008959D01*
Y0008709D01*
X-0004939Y0008426D02*
Y0008176D01*
X-0004856Y0008134D01*
X-0004689D01*
X-0004606Y0008176D01*
Y0008426D01*
X-0005105Y0007809D02*
X-0005106D01*
X-0005105D01*
X-0004606Y0007892D02*
Y0007726D01*
Y0007809D02*
X-0004939D01*
Y0007726D01*
X-0004606Y0007442D02*
X-0004856D01*
X-0004939Y0007401D01*
Y0007151D01*
X-0004606D01*
Y0006867D02*
Y0006617D01*
X-0004689Y0006576D01*
X-0004856D01*
X-0004939Y0006617D01*
Y0006867D01*
X-0004856Y0006909D01*
X-0004773D01*
Y0006576D01*
X-0004606Y0006167D02*
X-0004856D01*
X-0004606Y0006334D02*
X-0004856D01*
X-0004939Y0006292D01*
Y0006209D01*
X-0004856Y0006167D01*
X-0004939Y0006126D01*
Y0006042D01*
X-0004856Y0006001D01*
X-0004606D01*
Y0005467D02*
X-0004689Y0005426D01*
X-0004856D01*
X-0004939Y0005467D01*
Y0005717D01*
X-0004856Y0005759D01*
X-0004689D01*
X-0004606Y0005717D01*
Y0005467D01*
Y0004892D02*
X-0005106D01*
X-0004606Y0004851D02*
Y0005101D01*
X-0004773Y0005184D01*
X-0004939D01*
X-0005106Y0005101D01*
Y0004851D01*
X-0004606Y0003763D02*
Y0003847D01*
X-0004689D01*
Y0003763D01*
X-0004606D01*
X-0004439Y0003230D02*
Y0003397D01*
X-0004523Y0003438D01*
X-0004939D01*
Y0003188D01*
X-0004856Y0003147D01*
X-0004689D01*
X-0004606Y0003188D01*
Y0003438D01*
Y0002905D02*
X-0004856D01*
X-0004939Y0002863D01*
Y0002613D01*
X-0004606D01*
Y0002372D02*
Y0002205D01*
Y0002288D02*
X-0005106D01*
Y0002372D02*
Y0002205D01*
G54D62*
G01X-0001291Y0015252D02*
Y0015141D01*
Y0015197D02*
X-0001624D01*
X-0001568Y0015141D01*
X-0001402Y0014938D02*
Y0014716D01*
X-0001624Y0014827D01*
Y0014882D01*
X-0001291D01*
X-0001346Y0014568D02*
X-0001291Y0014540D01*
Y0014373D01*
X-0001346Y0014346D01*
X-0001568D01*
X-0001624Y0014373D01*
Y0014540D01*
X-0001568Y0014568D01*
X0007913Y0016552D02*
X0007691D01*
X0007913Y0016774D01*
Y0016830D01*
X0007885Y0016885D01*
X0007719D01*
X0007691Y0016830D01*
X0007543Y0016663D02*
X0007321D01*
X0007432Y0016885D01*
X0007488D01*
Y0016552D01*
X0007173Y0016607D02*
X0007145Y0016552D01*
X0006979D01*
X0006951Y0016607D01*
Y0016830D01*
X0006979Y0016885D01*
X0007145D01*
X0007173Y0016830D01*
X0017336Y0021958D02*
X0017392Y0021930D01*
X0017447D01*
X0017503Y0021958D01*
Y0022125D01*
X0017447Y0022152D01*
X0017392D01*
X0017336Y0022125D01*
Y0021958D01*
X0017281Y0021930D01*
X0017225D01*
X0017169Y0021958D01*
Y0022125D01*
X0017225Y0022152D01*
X0017281D01*
X0017336Y0022125D01*
X0017281Y0022300D02*
Y0022522D01*
X0017503Y0022411D01*
Y0022356D01*
X0017169D01*
X0017336Y0022753D02*
X0017169Y0022670D01*
X0017336Y0022892D02*
Y0022726D01*
X0017392Y0022670D01*
X0017447D01*
X0017503Y0022726D01*
Y0022892D01*
X0017169D01*
X0024692Y0014001D02*
X0024525D01*
X0024497Y0014056D01*
Y0014112D01*
X0024525Y0014167D01*
X0024692D01*
X0024720Y0014112D01*
Y0014056D01*
X0024608Y0013834D01*
X0024867Y0014167D02*
X0025090D01*
X0024867Y0013945D01*
Y0013889D01*
X0024895Y0013834D01*
X0025062D01*
X0025090Y0013889D01*
X0025237Y0014112D02*
X0025265Y0014167D01*
X0025432D01*
X0025460Y0014112D01*
Y0013889D01*
X0025432Y0013834D01*
X0025265D01*
X0025237Y0013889D01*
X0025895Y0016055D02*
X0025950Y0016000D01*
X0025978Y0015944D01*
Y0015833D01*
X0025950Y0015777D01*
X0025895Y0015722D01*
X0025839D01*
X0025784Y0015777D01*
X0025756Y0015833D01*
Y0015944D01*
X0025784Y0016000D01*
X0025839Y0016055D01*
X0025895D01*
X0026348Y0016000D02*
X0026320Y0016055D01*
X0026154D01*
X0026126Y0016000D01*
Y0015889D01*
X0026182Y0015833D01*
X0026348D01*
Y0015722D01*
X0026126D01*
X0026579Y0015889D02*
X0026496Y0016055D01*
X0026718Y0015889D02*
X0026552D01*
X0026496Y0015833D01*
Y0015777D01*
X0026552Y0015722D01*
X0026718D01*
Y0016055D01*
X0027610Y0020761D02*
X0027777Y0021094D01*
X0027554D01*
X0027407Y0020872D02*
X0027184D01*
X0027295Y0021094D01*
X0027351D01*
Y0020761D01*
X0026953Y0020927D02*
X0027037Y0020761D01*
X0026814Y0020927D02*
X0026981D01*
X0027037Y0020983D01*
Y0021038D01*
X0026981Y0021094D01*
X0026814D01*
Y0020761D01*
X0007964Y0004295D02*
X0007797Y0003961D01*
X0008019D01*
X0008167Y0004295D02*
X0008278D01*
X0008222D02*
Y0003961D01*
X0008278Y0004017D01*
X0008481Y0004239D02*
X0008509Y0004295D01*
X0008676D01*
X0008704Y0004239D01*
Y0004017D01*
X0008676Y0003961D01*
X0008509D01*
X0008481Y0004017D01*
X0020219Y0001688D02*
X0020275Y0001661D01*
X0020330D01*
X0020386Y0001688D01*
Y0001855D01*
X0020330Y0001883D01*
X0020275D01*
X0020219Y0001855D01*
Y0001688D01*
X0020164Y0001661D01*
X0020108D01*
X0020053Y0001688D01*
Y0001855D01*
X0020108Y0001883D01*
X0020164D01*
X0020219Y0001855D01*
Y0002114D02*
X0020053Y0002031D01*
X0020219Y0002253D02*
Y0002086D01*
X0020275Y0002031D01*
X0020330D01*
X0020386Y0002086D01*
Y0002253D01*
X0020053D01*
X0005245Y0016502D02*
X0005190Y0016558D01*
X0005162Y0016613D01*
Y0016724D01*
X0005190Y0016780D01*
X0005245Y0016835D01*
X0005301D01*
X0005356Y0016780D01*
X0005384Y0016724D01*
Y0016613D01*
X0005356Y0016558D01*
X0005301Y0016502D01*
X0005245D01*
X0004820Y0016669D02*
X0004986D01*
X0005014Y0016613D01*
Y0016558D01*
X0004986Y0016502D01*
X0004820D01*
X0004792Y0016558D01*
Y0016613D01*
X0004903Y0016835D01*
X0004561Y0016669D02*
X0004644Y0016502D01*
X0004422Y0016669D02*
X0004588D01*
X0004644Y0016724D01*
Y0016780D01*
X0004588Y0016835D01*
X0004422D01*
Y0016502D01*
X0013100Y0005032D02*
X0013155Y0005004D01*
X0013211D01*
X0013267Y0005032D01*
Y0005199D01*
X0013211Y0005227D01*
X0013155D01*
X0013100Y0005199D01*
Y0005032D01*
X0013044Y0005004D01*
X0012989D01*
X0012933Y0005032D01*
Y0005199D01*
X0012989Y0005227D01*
X0013044D01*
X0013100Y0005199D01*
X0012933Y0005374D02*
Y0005485D01*
Y0005430D02*
X0013267D01*
X0013211Y0005485D01*
X0012989Y0005689D02*
X0012933Y0005716D01*
Y0005883D01*
X0012989Y0005911D01*
X0013211D01*
X0013267Y0005883D01*
Y0005716D01*
X0013211Y0005689D01*
X0022163Y0015882D02*
X0022107Y0015937D01*
X0021996D01*
X0021941Y0015882D01*
Y0015826D01*
X0022052Y0015715D01*
X0021941Y0015604D01*
X0022163D01*
X0022311Y0015826D02*
X0022533D01*
X0022422Y0015604D01*
X0022366D01*
Y0015937D01*
X0022764Y0015771D02*
X0022681Y0015937D01*
X0022903Y0015771D02*
X0022736D01*
X0022681Y0015715D01*
Y0015659D01*
X0022736Y0015604D01*
X0022903D01*
Y0015937D01*
X0020675Y0010981D02*
X0020786D01*
X0020730D02*
Y0010648D01*
X0020786Y0010703D01*
X0021073Y0010815D02*
X0020989Y0010981D01*
X0021212Y0010815D02*
X0021045D01*
X0020989Y0010759D01*
Y0010703D01*
X0021045Y0010648D01*
X0021212D01*
Y0010981D01*
X0014555Y0002878D02*
Y0002711D01*
X0014500Y0002684D01*
X0014444D01*
X0014389Y0002711D01*
Y0002878D01*
X0014444Y0002906D01*
X0014500D01*
X0014722Y0002795D01*
X0014389Y0003054D02*
Y0003165D01*
Y0003109D02*
X0014722D01*
X0014666Y0003165D01*
X0014444Y0003368D02*
X0014389Y0003396D01*
Y0003562D01*
X0014444Y0003590D01*
X0014666D01*
X0014722Y0003562D01*
Y0003396D01*
X0014666Y0003368D01*
X-0002318Y0014478D02*
X-0002263Y0014534D01*
X-0002207Y0014562D01*
X-0002096D01*
X-0002040Y0014534D01*
X-0001985Y0014478D01*
Y0014423D01*
X-0002040Y0014367D01*
X-0002096Y0014339D01*
X-0002207D01*
X-0002263Y0014367D01*
X-0002318Y0014423D01*
Y0014478D01*
Y0014876D02*
X-0001985Y0014709D01*
Y0014932D01*
X-0002151Y0015163D02*
X-0002318Y0015079D01*
X-0002151Y0015302D02*
Y0015135D01*
X-0002096Y0015079D01*
X-0002040D01*
X-0001985Y0015135D01*
Y0015302D01*
X-0002318D01*
X0009265Y0010667D02*
X0009098Y0010333D01*
X0009321D01*
X0009468Y0010667D02*
X0009691D01*
X0009468Y0010444D01*
Y0010389D01*
X0009496Y0010333D01*
X0009663D01*
X0009691Y0010389D01*
X0009922Y0010500D02*
X0009838Y0010667D01*
X0010061Y0010500D02*
X0009894D01*
X0009838Y0010444D01*
Y0010389D01*
X0009894Y0010333D01*
X0010061D01*
Y0010667D01*
X0026906Y0002248D02*
Y0002082D01*
X0026850Y0002054D01*
X0026795D01*
X0026739Y0002082D01*
Y0002248D01*
X0026795Y0002276D01*
X0026850D01*
X0027073Y0002165D01*
X0026795Y0002424D02*
X0026739Y0002452D01*
Y0002618D01*
X0026795Y0002646D01*
X0027017D01*
X0027073Y0002618D01*
Y0002452D01*
X0027017Y0002424D01*
X0015236Y0004043D02*
Y0003820D01*
X0015014Y0003931D01*
Y0003987D01*
X0015347D01*
X0015292Y0003673D02*
X0015347Y0003645D01*
Y0003478D01*
X0015292Y0003450D01*
X0015069D01*
X0015014Y0003478D01*
Y0003645D01*
X0015069Y0003673D01*
X0011989Y0016652D02*
X0012045Y0016707D01*
X0012100Y0016735D01*
X0012211D01*
X0012267Y0016707D01*
X0012323Y0016652D01*
Y0016596D01*
X0012267Y0016540D01*
X0012211Y0016513D01*
X0012100D01*
X0012045Y0016540D01*
X0011989Y0016596D01*
Y0016652D01*
X0012100Y0016883D02*
Y0017105D01*
X0012323Y0016994D01*
Y0016938D01*
X0011989D01*
X0012156Y0017336D02*
X0011989Y0017253D01*
X0012156Y0017475D02*
Y0017308D01*
X0012211Y0017253D01*
X0012267D01*
X0012323Y0017308D01*
Y0017475D01*
X0011989D01*
X0005868Y0014600D02*
Y0014378D01*
X0005646Y0014600D01*
X0005590D01*
X0005535Y0014572D01*
Y0014405D01*
X0005590Y0014378D01*
X0005868Y0014063D02*
X0005535Y0014230D01*
Y0014008D01*
X0005701Y0013777D02*
X0005868Y0013860D01*
X0005701Y0013638D02*
Y0013804D01*
X0005646Y0013860D01*
X0005590D01*
X0005535Y0013804D01*
Y0013638D01*
X0005868D01*
X0026737Y0017238D02*
X0026792Y0017210D01*
X0026848D01*
X0026903Y0017238D01*
Y0017405D01*
X0026848Y0017432D01*
X0026792D01*
X0026737Y0017405D01*
Y0017238D01*
X0026681Y0017210D01*
X0026626D01*
X0026570Y0017238D01*
Y0017405D01*
X0026626Y0017432D01*
X0026681D01*
X0026737Y0017405D01*
X0026570Y0017580D02*
Y0017802D01*
X0026792Y0017580D01*
X0026848D01*
X0026903Y0017608D01*
Y0017775D01*
X0026848Y0017802D01*
X0026626Y0017950D02*
X0026570Y0017978D01*
Y0018145D01*
X0026626Y0018172D01*
X0026848D01*
X0026903Y0018145D01*
Y0017978D01*
X0026848Y0017950D01*
X0021547Y0006342D02*
Y0006564D01*
X0021769Y0006342D01*
X0021825D01*
X0021881Y0006369D01*
Y0006536D01*
X0021825Y0006564D01*
X0021547Y0006712D02*
Y0006823D01*
Y0006767D02*
X0021881D01*
X0021825Y0006823D01*
X0021603Y0007026D02*
X0021547Y0007054D01*
Y0007220D01*
X0021603Y0007248D01*
X0021825D01*
X0021881Y0007220D01*
Y0007054D01*
X0021825Y0007026D01*
X0024440Y-0000937D02*
X0024495Y-0000992D01*
X0024523Y-0001048D01*
Y-0001159D01*
X0024495Y-0001214D01*
X0024440Y-0001270D01*
X0024384D01*
X0024328Y-0001214D01*
X0024301Y-0001159D01*
Y-0001048D01*
X0024328Y-0000992D01*
X0024384Y-0000937D01*
X0024440D01*
X0024671D02*
X0024893D01*
X0024671Y-0001159D01*
Y-0001214D01*
X0024698Y-0001270D01*
X0024865D01*
X0024893Y-0001214D01*
X0025124Y-0001103D02*
X0025041Y-0000937D01*
X0025263Y-0001103D02*
X0025096D01*
X0025041Y-0001159D01*
Y-0001214D01*
X0025096Y-0001270D01*
X0025263D01*
Y-0000937D01*
X0012920Y-0002122D02*
X0012948Y-0002066D01*
Y-0002011D01*
X0012920Y-0001955D01*
X0012753D01*
X0012726Y-0002011D01*
Y-0002066D01*
X0012753Y-0002122D01*
X0012920D01*
X0012948Y-0002177D01*
Y-0002233D01*
X0012920Y-0002289D01*
X0012753D01*
X0012726Y-0002233D01*
Y-0002177D01*
X0012753Y-0002122D01*
X0012356Y-0002233D02*
X0012411Y-0002289D01*
X0012522D01*
X0012578Y-0002233D01*
Y-0002177D01*
X0012467Y-0002066D01*
X0012578Y-0001955D01*
X0012356D01*
X0012125Y-0002122D02*
X0012208Y-0002289D01*
X0011986Y-0002122D02*
X0012152D01*
X0012208Y-0002066D01*
Y-0002011D01*
X0012152Y-0001955D01*
X0011986D01*
Y-0002289D01*
X0028081Y0003577D02*
X0028053Y0003522D01*
Y0003466D01*
X0028081Y0003411D01*
X0028248D01*
X0028276Y0003466D01*
Y0003522D01*
X0028248Y0003577D01*
X0028081D01*
X0028053Y0003633D01*
Y0003688D01*
X0028081Y0003744D01*
X0028248D01*
X0028276Y0003688D01*
Y0003633D01*
X0028248Y0003577D01*
X0028423Y0003688D02*
X0028451Y0003744D01*
X0028618D01*
X0028646Y0003688D01*
Y0003466D01*
X0028618Y0003411D01*
X0028451D01*
X0028423Y0003466D01*
X0028216Y0007466D02*
X0028105D01*
X0028160D02*
Y0007799D01*
X0028105Y0007744D01*
X0027902Y0007466D02*
X0027791D01*
X0027846D02*
Y0007799D01*
X0027791Y0007744D01*
X0027504Y0007633D02*
X0027587Y0007466D01*
X0027365Y0007633D02*
X0027532D01*
X0027587Y0007688D01*
Y0007744D01*
X0027532Y0007799D01*
X0027365D01*
Y0007466D01*
X0030005Y0012628D02*
X0030171D01*
X0030199Y0012572D01*
Y0012517D01*
X0030171Y0012461D01*
X0030005D01*
X0029977Y0012517D01*
Y0012572D01*
X0030088Y0012795D01*
X0029746Y0012628D02*
X0029829Y0012461D01*
X0029607Y0012628D02*
X0029774D01*
X0029829Y0012683D01*
Y0012739D01*
X0029774Y0012795D01*
X0029607D01*
Y0012461D01*
X0012353Y0019136D02*
Y0019303D01*
X0012408Y0019331D01*
X0012464D01*
X0012519Y0019303D01*
Y0019136D01*
X0012464Y0019109D01*
X0012408D01*
X0012186Y0019220D01*
X0012241Y0019701D02*
X0012186Y0019645D01*
Y0019534D01*
X0012241Y0019479D01*
X0012297D01*
X0012408Y0019590D01*
X0012519Y0019479D01*
Y0019701D01*
X0012353Y0019932D02*
X0012186Y0019849D01*
X0012353Y0020071D02*
Y0019904D01*
X0012408Y0019849D01*
X0012464D01*
X0012519Y0019904D01*
Y0020071D01*
X0012186D01*
X0019674Y0017337D02*
Y0017226D01*
Y0017281D02*
X0019341D01*
X0019396Y0017226D01*
X0019618Y0016800D02*
X0019674Y0016828D01*
Y0016995D01*
X0019618Y0017023D01*
X0019507D01*
X0019452Y0016967D01*
Y0016800D01*
X0019341D01*
Y0017023D01*
X0019507Y0016569D02*
X0019674Y0016653D01*
X0019507Y0016430D02*
Y0016597D01*
X0019452Y0016653D01*
X0019396D01*
X0019341Y0016597D01*
Y0016430D01*
X0019674D01*
X0002901Y0019468D02*
X0002734D01*
X0002707Y0019523D01*
Y0019579D01*
X0002734Y0019635D01*
X0002901D01*
X0002929Y0019579D01*
Y0019523D01*
X0002818Y0019301D01*
X0003271Y0019468D02*
X0003104D01*
X0003077Y0019523D01*
Y0019579D01*
X0003104Y0019635D01*
X0003271D01*
X0003299Y0019579D01*
Y0019523D01*
X0003188Y0019301D01*
X0003530Y0019468D02*
X0003447Y0019635D01*
X0003669Y0019468D02*
X0003502D01*
X0003447Y0019412D01*
Y0019357D01*
X0003502Y0019301D01*
X0003669D01*
Y0019635D01*
X0008498Y0024958D02*
X0008553Y0024930D01*
X0008609D01*
X0008665Y0024958D01*
Y0025124D01*
X0008609Y0025152D01*
X0008553D01*
X0008498Y0025124D01*
Y0024958D01*
X0008442Y0024930D01*
X0008387D01*
X0008331Y0024958D01*
Y0025124D01*
X0008387Y0025152D01*
X0008442D01*
X0008498Y0025124D01*
Y0025494D02*
Y0025328D01*
X0008442Y0025300D01*
X0008387D01*
X0008331Y0025328D01*
Y0025494D01*
X0008387Y0025522D01*
X0008442D01*
X0008665Y0025411D01*
X0008498Y0025753D02*
X0008331Y0025670D01*
X0008498Y0025892D02*
Y0025726D01*
X0008553Y0025670D01*
X0008609D01*
X0008665Y0025726D01*
Y0025892D01*
X0008331D01*
X0029104Y0004443D02*
X0029270D01*
X0029298Y0004387D01*
Y0004331D01*
X0029270Y0004276D01*
X0029104D01*
X0029076Y0004331D01*
Y0004387D01*
X0029187Y0004609D01*
X0029446Y0004554D02*
X0029474Y0004609D01*
X0029640D01*
X0029668Y0004554D01*
Y0004331D01*
X0029640Y0004276D01*
X0029474D01*
X0029446Y0004331D01*
X0023530Y0009408D02*
X0023753D01*
X0023530Y0009186D01*
Y0009130D01*
X0023558Y0009075D01*
X0023725D01*
X0023753Y0009130D01*
X0023900Y0009408D02*
X0024011D01*
X0023956D02*
Y0009075D01*
X0024011Y0009130D01*
X0024298Y0009241D02*
X0024215Y0009408D01*
X0024437Y0009241D02*
X0024270D01*
X0024215Y0009186D01*
Y0009130D01*
X0024270Y0009075D01*
X0024437D01*
Y0009408D01*
X0007494Y0024907D02*
X0007550Y0024851D01*
X0007661D01*
X0007717Y0024907D01*
Y0024962D01*
X0007605Y0025073D01*
X0007717Y0025185D01*
X0007494D01*
X0007152Y0025018D02*
X0007319D01*
X0007347Y0024962D01*
Y0024907D01*
X0007319Y0024851D01*
X0007152D01*
X0007124Y0024907D01*
Y0024962D01*
X0007235Y0025185D01*
X0006893Y0025018D02*
X0006977Y0024851D01*
X0006754Y0025018D02*
X0006921D01*
X0006977Y0025073D01*
Y0025129D01*
X0006921Y0025185D01*
X0006754D01*
Y0024851D01*
X0019619Y0006365D02*
X0019396D01*
X0019619Y0006587D01*
Y0006642D01*
X0019591Y0006698D01*
X0019424D01*
X0019396Y0006642D01*
X0019249Y0006420D02*
X0019221Y0006365D01*
X0019054D01*
X0019026Y0006420D01*
Y0006642D01*
X0019054Y0006698D01*
X0019221D01*
X0019249Y0006642D01*
X-0001407Y0005486D02*
X-0001463Y0005430D01*
Y0005319D01*
X-0001407Y0005263D01*
X-0001351D01*
X-0001240Y0005374D01*
X-0001129Y0005263D01*
Y0005486D01*
X-0001463Y0005633D02*
Y0005856D01*
X-0001240Y0005633D01*
X-0001185D01*
X-0001129Y0005661D01*
Y0005828D01*
X-0001185Y0005856D01*
X-0001296Y0006087D02*
X-0001463Y0006003D01*
X-0001296Y0006226D02*
Y0006059D01*
X-0001240Y0006003D01*
X-0001185D01*
X-0001129Y0006059D01*
Y0006226D01*
X-0001463D01*
X0010493Y0022255D02*
X0010382D01*
X0010437D02*
Y0022589D01*
X0010382Y0022533D01*
X0009984Y0022422D02*
X0010151D01*
X0010179Y0022366D01*
Y0022311D01*
X0010151Y0022255D01*
X0009984D01*
X0009956Y0022311D01*
Y0022366D01*
X0010067Y0022589D01*
X0009725Y0022422D02*
X0009809Y0022255D01*
X0009586Y0022422D02*
X0009753D01*
X0009809Y0022477D01*
Y0022533D01*
X0009753Y0022589D01*
X0009586D01*
Y0022255D01*
X0017968Y0006633D02*
Y0006744D01*
Y0006688D02*
X0018301D01*
X0018246Y0006744D01*
X0018023Y0006947D02*
X0017968Y0006975D01*
Y0007142D01*
X0018023Y0007170D01*
X0018246D01*
X0018301Y0007142D01*
Y0006975D01*
X0018246Y0006947D01*
X0016506Y0016316D02*
Y0016538D01*
X0016728Y0016427D01*
Y0016372D01*
X0016395D01*
X0016506Y0016686D02*
Y0016908D01*
X0016728Y0016797D01*
Y0016742D01*
X0016395D01*
X0016561Y0017139D02*
X0016395Y0017056D01*
X0016561Y0017278D02*
Y0017112D01*
X0016617Y0017056D01*
X0016672D01*
X0016728Y0017112D01*
Y0017278D01*
X0016395D01*
X0021458Y0025811D02*
X0021513Y0025756D01*
X0021624D01*
X0021680Y0025811D01*
Y0025867D01*
X0021569Y0025978D01*
X0021680Y0026089D01*
X0021458D01*
X0021310Y0025756D02*
X0021088D01*
X0021310Y0025978D01*
Y0026034D01*
X0021282Y0026089D01*
X0021115D01*
X0021088Y0026034D01*
X0020940Y0025811D02*
X0020912Y0025756D01*
X0020745D01*
X0020718Y0025811D01*
Y0026034D01*
X0020745Y0026089D01*
X0020912D01*
X0020940Y0026034D01*
X0029139Y0002260D02*
X0029472Y0002093D01*
Y0002316D01*
X0029305Y0002547D02*
X0029139Y0002463D01*
X0029305Y0002686D02*
Y0002519D01*
X0029361Y0002463D01*
X0029416D01*
X0029472Y0002519D01*
Y0002686D01*
X0029139D01*
X-0002165Y0011622D02*
X-0002221Y0011650D01*
X-0002276D01*
X-0002332Y0011622D01*
Y0011455D01*
X-0002276Y0011428D01*
X-0002221D01*
X-0002165Y0011455D01*
Y0011622D01*
X-0002110Y0011650D01*
X-0002054D01*
X-0001999Y0011622D01*
Y0011455D01*
X-0002054Y0011428D01*
X-0002110D01*
X-0002165Y0011455D01*
X-0002054Y0011058D02*
X-0001999Y0011085D01*
Y0011252D01*
X-0002054Y0011280D01*
X-0002165D01*
X-0002221Y0011224D01*
Y0011058D01*
X-0002332D01*
Y0011280D01*
X-0002165Y0010827D02*
X-0001999Y0010910D01*
X-0002165Y0010688D02*
Y0010854D01*
X-0002221Y0010910D01*
X-0002276D01*
X-0002332Y0010854D01*
Y0010688D01*
X-0001999D01*
X0026040Y0022440D02*
X0025929D01*
X0025985D02*
Y0022773D01*
X0025929Y0022718D01*
X0025503Y0022496D02*
X0025559Y0022440D01*
X0025670D01*
X0025726Y0022496D01*
Y0022551D01*
X0025615Y0022662D01*
X0025726Y0022773D01*
X0025503D01*
X0025356Y0022496D02*
X0025328Y0022440D01*
X0025161D01*
X0025133Y0022496D01*
Y0022718D01*
X0025161Y0022773D01*
X0025328D01*
X0025356Y0022718D01*
X0023765Y0025867D02*
X0023542D01*
X0023653Y0026089D01*
X0023709D01*
Y0025756D01*
X0023395D02*
X0023172D01*
X0023395Y0025978D01*
Y0026034D01*
X0023367Y0026089D01*
X0023200D01*
X0023172Y0026034D01*
X0023025Y0025811D02*
X0022997Y0025756D01*
X0022830D01*
X0022802Y0025811D01*
Y0026034D01*
X0022830Y0026089D01*
X0022997D01*
X0023025Y0026034D01*
X0003739Y0022624D02*
X0003572Y0022291D01*
X0003794D01*
X0004164Y0022568D02*
X0004109Y0022624D01*
X0003998D01*
X0003942Y0022568D01*
Y0022513D01*
X0004053Y0022402D01*
X0003942Y0022291D01*
X0004164D01*
X0004312Y0022568D02*
X0004340Y0022624D01*
X0004506D01*
X0004534Y0022568D01*
Y0022346D01*
X0004506Y0022291D01*
X0004340D01*
X0004312Y0022346D01*
X0025333Y0001138D02*
Y0001304D01*
X0025388Y0001332D01*
X0025444D01*
X0025499Y0001304D01*
Y0001138D01*
X0025444Y0001110D01*
X0025388D01*
X0025166Y0001221D01*
X0025333Y0001563D02*
X0025166Y0001480D01*
X0025333Y0001702D02*
Y0001536D01*
X0025388Y0001480D01*
X0025444D01*
X0025499Y0001536D01*
Y0001702D01*
X0025166D01*
X0010937Y0024328D02*
X0010992Y0024301D01*
X0011048D01*
X0011103Y0024328D01*
Y0024495D01*
X0011048Y0024523D01*
X0010992D01*
X0010937Y0024495D01*
Y0024328D01*
X0010881Y0024301D01*
X0010825D01*
X0010770Y0024328D01*
Y0024495D01*
X0010825Y0024523D01*
X0010881D01*
X0010937Y0024495D01*
X0010825Y0024893D02*
X0010770Y0024837D01*
Y0024726D01*
X0010825Y0024671D01*
X0010881D01*
X0010992Y0024782D01*
X0011103Y0024671D01*
Y0024893D01*
X0010825Y0025041D02*
X0010770Y0025068D01*
Y0025235D01*
X0010825Y0025263D01*
X0011048D01*
X0011103Y0025235D01*
Y0025068D01*
X0011048Y0025041D01*
X-0001291Y0003958D02*
X-0001513D01*
X-0001402Y0004181D01*
X-0001346D01*
Y0003847D01*
X-0001661D02*
X-0001883D01*
X-0001661Y0004069D01*
Y0004125D01*
X-0001688Y0004181D01*
X-0001855D01*
X-0001883Y0004125D01*
X-0002114Y0004014D02*
X-0002031Y0003847D01*
X-0002253Y0004014D02*
X-0002086D01*
X-0002031Y0004069D01*
Y0004125D01*
X-0002086Y0004181D01*
X-0002253D01*
Y0003847D01*
X0020879Y0006437D02*
Y0006548D01*
Y0006492D02*
X0021212D01*
X0021156Y0006548D01*
X0020879Y0006751D02*
Y0006862D01*
Y0006806D02*
X0021212D01*
X0021156Y0006862D01*
X0020934Y0007065D02*
X0020879Y0007093D01*
Y0007260D01*
X0020934Y0007288D01*
X0021156D01*
X0021212Y0007260D01*
Y0007093D01*
X0021156Y0007065D01*
X0004735Y-0001826D02*
Y-0001604D01*
X0004957Y-0001715D01*
Y-0001771D01*
X0004624D01*
X0004680Y-0001234D02*
X0004624Y-0001290D01*
Y-0001401D01*
X0004680Y-0001456D01*
X0004735D01*
X0004846Y-0001345D01*
X0004957Y-0001456D01*
Y-0001234D01*
X0004791Y-0001003D02*
X0004624Y-0001086D01*
X0004791Y-0000864D02*
Y-0001031D01*
X0004846Y-0001086D01*
X0004902D01*
X0004957Y-0001031D01*
Y-0000864D01*
X0004624D01*
X-0004845Y0017112D02*
X-0004512Y0016945D01*
Y0017168D01*
X-0004790Y0017538D02*
X-0004845Y0017510D01*
Y0017343D01*
X-0004790Y0017315D01*
X-0004679D01*
X-0004623Y0017371D01*
Y0017538D01*
X-0004512D01*
Y0017315D01*
X-0004679Y0017769D02*
X-0004845Y0017685D01*
X-0004679Y0017908D02*
Y0017741D01*
X-0004623Y0017685D01*
X-0004567D01*
X-0004512Y0017741D01*
Y0017908D01*
X-0004845D01*
X0009931Y0017977D02*
X0009764D01*
X0009736Y0018033D01*
Y0018088D01*
X0009764Y0018144D01*
X0009931D01*
X0009959Y0018088D01*
Y0018033D01*
X0009847Y0017811D01*
X0009394Y0017977D02*
X0009561D01*
X0009589Y0017922D01*
Y0017866D01*
X0009561Y0017811D01*
X0009394D01*
X0009366Y0017866D01*
Y0017922D01*
X0009477Y0018144D01*
X0009135Y0017977D02*
X0009219Y0017811D01*
X0008996Y0017977D02*
X0009163D01*
X0009219Y0018033D01*
Y0018088D01*
X0009163Y0018144D01*
X0008996D01*
Y0017811D01*
X0016634Y0008455D02*
Y0008678D01*
X0016856Y0008567D01*
Y0008511D01*
X0016522D01*
X0016689Y0008909D02*
X0016522Y0008825D01*
X0016689Y0009048D02*
Y0008881D01*
X0016745Y0008825D01*
X0016800D01*
X0016856Y0008881D01*
Y0009048D01*
X0016522D01*
X0006639Y0004150D02*
Y0003983D01*
X0006584Y0003955D01*
X0006528D01*
X0006473Y0003983D01*
Y0004150D01*
X0006528Y0004178D01*
X0006584D01*
X0006806Y0004067D01*
X0006528Y0004548D02*
X0006473Y0004492D01*
Y0004381D01*
X0006528Y0004325D01*
X0006584D01*
X0006695Y0004437D01*
X0006806Y0004325D01*
Y0004548D01*
X0006639Y0004779D02*
X0006473Y0004695D01*
X0006639Y0004918D02*
Y0004751D01*
X0006695Y0004695D01*
X0006751D01*
X0006806Y0004751D01*
Y0004918D01*
X0006473D01*
X0019422Y0023818D02*
X0019477Y0023845D01*
Y0024012D01*
X0019422Y0024040D01*
X0019311D01*
X0019255Y0023984D01*
Y0023818D01*
X0019144D01*
Y0024040D01*
X0019477Y0023670D02*
Y0023448D01*
X0019255Y0023670D01*
X0019199D01*
X0019144Y0023642D01*
Y0023475D01*
X0019199Y0023448D01*
X0019422Y0023300D02*
X0019477Y0023272D01*
Y0023105D01*
X0019422Y0023078D01*
X0019199D01*
X0019144Y0023105D01*
Y0023272D01*
X0019199Y0023300D01*
X0024551Y0021710D02*
X0024218Y0021877D01*
Y0021654D01*
X0024551Y0021507D02*
Y0021284D01*
X0024329Y0021507D01*
X0024273D01*
X0024218Y0021479D01*
Y0021312D01*
X0024273Y0021284D01*
X0024496Y0021137D02*
X0024551Y0021109D01*
Y0020942D01*
X0024496Y0020914D01*
X0024273D01*
X0024218Y0020942D01*
Y0021109D01*
X0024273Y0021137D01*
X0001539Y0005594D02*
X0001594Y0005539D01*
X0001705D01*
X0001761Y0005594D01*
Y0005650D01*
X0001650Y0005761D01*
X0001761Y0005872D01*
X0001539D01*
X0001391Y0005539D02*
X0001280D01*
X0001335D02*
Y0005872D01*
X0001280Y0005816D01*
X0001077Y0005594D02*
X0001049Y0005539D01*
X0000882D01*
X0000854Y0005594D01*
Y0005816D01*
X0000882Y0005872D01*
X0001049D01*
X0001077Y0005816D01*
X0025902Y0018563D02*
X0026068D01*
X0026096Y0018508D01*
Y0018452D01*
X0026068Y0018397D01*
X0025902D01*
X0025874Y0018452D01*
Y0018508D01*
X0025985Y0018730D01*
X0026244D02*
X0026466D01*
X0026244Y0018508D01*
Y0018452D01*
X0026272Y0018397D01*
X0026438D01*
X0026466Y0018452D01*
X0026614Y0018674D02*
X0026642Y0018730D01*
X0026808D01*
X0026836Y0018674D01*
Y0018452D01*
X0026808Y0018397D01*
X0026642D01*
X0026614Y0018452D01*
X0015585Y0006603D02*
X0015529Y0006575D01*
Y0006408D01*
X0015585Y0006381D01*
X0015696D01*
X0015751Y0006436D01*
Y0006603D01*
X0015863D01*
Y0006381D01*
X0015696Y0006834D02*
X0015529Y0006751D01*
X0015696Y0006973D02*
Y0006806D01*
X0015751Y0006751D01*
X0015807D01*
X0015863Y0006806D01*
Y0006973D01*
X0015529D01*
X0025294Y0020485D02*
X0025350Y0020513D01*
Y0020679D01*
X0025294Y0020707D01*
X0025183D01*
X0025128Y0020651D01*
Y0020485D01*
X0025016D01*
Y0020707D01*
X0025239Y0020337D02*
Y0020115D01*
X0025016Y0020226D01*
Y0020281D01*
X0025350D01*
X0025183Y0019884D02*
X0025350Y0019967D01*
X0025183Y0019745D02*
Y0019911D01*
X0025128Y0019967D01*
X0025072D01*
X0025016Y0019911D01*
Y0019745D01*
X0025350D01*
X0003872Y0011960D02*
X0003649D01*
X0003872Y0012182D01*
Y0012238D01*
X0003844Y0012293D01*
X0003677D01*
X0003649Y0012238D01*
X0003307Y0012126D02*
X0003474D01*
X0003502Y0012071D01*
Y0012015D01*
X0003474Y0011960D01*
X0003307D01*
X0003279Y0012015D01*
Y0012071D01*
X0003391Y0012293D01*
X0003048Y0012126D02*
X0003132Y0011960D01*
X0002909Y0012126D02*
X0003076D01*
X0003132Y0012182D01*
Y0012238D01*
X0003076Y0012293D01*
X0002909D01*
Y0011960D01*
X0008431Y0008307D02*
X0008486Y0008251D01*
X0008514Y0008195D01*
Y0008084D01*
X0008486Y0008029D01*
X0008431Y0007973D01*
X0008375D01*
X0008320Y0008029D01*
X0008292Y0008084D01*
Y0008195D01*
X0008320Y0008251D01*
X0008375Y0008307D01*
X0008431D01*
X0008884Y0008251D02*
X0008829Y0008307D01*
X0008718D01*
X0008662Y0008251D01*
Y0008195D01*
X0008773Y0008084D01*
X0008662Y0007973D01*
X0008884D01*
X0009115Y0008140D02*
X0009032Y0008307D01*
X0009254Y0008140D02*
X0009088D01*
X0009032Y0008084D01*
Y0008029D01*
X0009088Y0007973D01*
X0009254D01*
Y0008307D01*
X0014389Y0000289D02*
X0014444Y0000344D01*
X0014500Y0000372D01*
X0014611D01*
X0014666Y0000344D01*
X0014722Y0000289D01*
Y0000233D01*
X0014666Y0000178D01*
X0014611Y0000150D01*
X0014500D01*
X0014444Y0000178D01*
X0014389Y0000233D01*
Y0000289D01*
Y0000520D02*
Y0000742D01*
X0014611Y0000520D01*
X0014666D01*
X0014722Y0000548D01*
Y0000714D01*
X0014666Y0000742D01*
X0014444Y0000890D02*
X0014389Y0000918D01*
Y0001084D01*
X0014444Y0001112D01*
X0014666D01*
X0014722Y0001084D01*
Y0000918D01*
X0014666Y0000890D01*
X0016709Y0019123D02*
X0016932D01*
X0016709Y0018901D01*
Y0018845D01*
X0016737Y0018790D01*
X0016904D01*
X0016932Y0018845D01*
X0017302Y0019068D02*
X0017246Y0019123D01*
X0017135D01*
X0017079Y0019068D01*
Y0019012D01*
X0017190Y0018901D01*
X0017079Y0018790D01*
X0017302D01*
X0017449Y0019068D02*
X0017477Y0019123D01*
X0017644D01*
X0017672Y0019068D01*
Y0018845D01*
X0017644Y0018790D01*
X0017477D01*
X0017449Y0018845D01*
X0011242Y0005814D02*
Y0006036D01*
X0011464Y0005814D01*
X0011520D01*
X0011575Y0005842D01*
Y0006008D01*
X0011520Y0006036D01*
X0011297Y0006406D02*
X0011242Y0006351D01*
Y0006240D01*
X0011297Y0006184D01*
X0011353D01*
X0011464Y0006295D01*
X0011575Y0006184D01*
Y0006406D01*
X0011409Y0006637D02*
X0011242Y0006554D01*
X0011409Y0006776D02*
Y0006610D01*
X0011464Y0006554D01*
X0011520D01*
X0011575Y0006610D01*
Y0006776D01*
X0011242D01*
X0005853Y0003903D02*
Y0004014D01*
Y0003958D02*
X0006187D01*
X0006131Y0004014D01*
X0005853Y0004217D02*
Y0004440D01*
X0006075Y0004217D01*
X0006131D01*
X0006187Y0004245D01*
Y0004412D01*
X0006131Y0004440D01*
X0005909Y0004587D02*
X0005853Y0004615D01*
Y0004782D01*
X0005909Y0004810D01*
X0006131D01*
X0006187Y0004782D01*
Y0004615D01*
X0006131Y0004587D01*
X0008144Y0002420D02*
Y0002586D01*
X0008199Y0002614D01*
X0008255D01*
X0008311Y0002586D01*
Y0002420D01*
X0008255Y0002392D01*
X0008199D01*
X0007977Y0002503D01*
Y0002762D02*
Y0002984D01*
X0008199Y0002762D01*
X0008255D01*
X0008311Y0002790D01*
Y0002956D01*
X0008255Y0002984D01*
X0008144Y0003215D02*
X0007977Y0003132D01*
X0008144Y0003354D02*
Y0003188D01*
X0008199Y0003132D01*
X0008255D01*
X0008311Y0003188D01*
Y0003354D01*
X0007977D01*
X0017238Y0020079D02*
Y0019913D01*
X0017182Y0019885D01*
X0017127D01*
X0017071Y0019913D01*
Y0020079D01*
X0017127Y0020107D01*
X0017182D01*
X0017404Y0019996D01*
X0017127Y0020477D02*
X0017071Y0020449D01*
Y0020283D01*
X0017127Y0020255D01*
X0017238D01*
X0017293Y0020310D01*
Y0020477D01*
X0017404D01*
Y0020255D01*
X0017238Y0020708D02*
X0017071Y0020625D01*
X0017238Y0020847D02*
Y0020680D01*
X0017293Y0020625D01*
X0017349D01*
X0017404Y0020680D01*
Y0020847D01*
X0017071D01*
X0003440Y0013876D02*
X0003385Y0013931D01*
X0003274D01*
X0003218Y0013876D01*
Y0013820D01*
X0003329Y0013709D01*
X0003218Y0013598D01*
X0003440D01*
X0003810Y0013876D02*
X0003755Y0013931D01*
X0003644D01*
X0003588Y0013876D01*
Y0013820D01*
X0003699Y0013709D01*
X0003588Y0013598D01*
X0003810D01*
X0003958Y0013876D02*
X0003986Y0013931D01*
X0004152D01*
X0004180Y0013876D01*
Y0013653D01*
X0004152Y0013598D01*
X0003986D01*
X0003958Y0013653D01*
X0012948Y-0001620D02*
X0012726D01*
X0012948Y-0001398D01*
Y-0001342D01*
X0012920Y-0001287D01*
X0012753D01*
X0012726Y-0001342D01*
X0012578Y-0001620D02*
X0012356D01*
X0012578Y-0001398D01*
Y-0001342D01*
X0012550Y-0001287D01*
X0012383D01*
X0012356Y-0001342D01*
X0012208Y-0001564D02*
X0012180Y-0001620D01*
X0012013D01*
X0011986Y-0001564D01*
Y-0001342D01*
X0012013Y-0001287D01*
X0012180D01*
X0012208Y-0001342D01*
X0013247Y0004127D02*
X0013275Y0004071D01*
X0013442D01*
X0013470Y0004127D01*
Y0004238D01*
X0013414Y0004294D01*
X0013247D01*
Y0004405D01*
X0013470D01*
X0013100Y0004071D02*
X0012877D01*
X0013100Y0004294D01*
Y0004349D01*
X0013072Y0004405D01*
X0012905D01*
X0012877Y0004349D01*
X0012646Y0004238D02*
X0012730Y0004071D01*
X0012507Y0004238D02*
X0012674D01*
X0012730Y0004294D01*
Y0004349D01*
X0012674Y0004405D01*
X0012507D01*
Y0004071D01*
X-0001881Y0008189D02*
Y0007966D01*
X-0002103Y0008189D01*
X-0002158D01*
X-0002214Y0008161D01*
Y0007994D01*
X-0002158Y0007966D01*
X-0001881Y0007819D02*
Y0007596D01*
X-0002103Y0007819D01*
X-0002158D01*
X-0002214Y0007791D01*
Y0007624D01*
X-0002158Y0007596D01*
X-0002047Y0007365D02*
X-0001881Y0007449D01*
X-0002047Y0007226D02*
Y0007393D01*
X-0002103Y0007449D01*
X-0002158D01*
X-0002214Y0007393D01*
Y0007226D01*
X-0001881D01*
X0009835Y0004560D02*
Y0004727D01*
X0009891Y0004755D01*
X0009946D01*
X0010002Y0004727D01*
Y0004560D01*
X0009946Y0004532D01*
X0009891D01*
X0009669Y0004643D01*
Y0004902D02*
Y0005013D01*
Y0004958D02*
X0010002D01*
X0009946Y0005013D01*
X0009724Y0005217D02*
X0009669Y0005244D01*
Y0005411D01*
X0009724Y0005439D01*
X0009946D01*
X0010002Y0005411D01*
Y0005244D01*
X0009946Y0005217D01*
X0017101Y0024891D02*
X0016990D01*
X0017045D02*
Y0025224D01*
X0016990Y0025168D01*
X0016787Y0025002D02*
X0016564D01*
X0016675Y0025224D01*
X0016731D01*
Y0024891D01*
X0016333Y0025057D02*
X0016417Y0024891D01*
X0016194Y0025057D02*
X0016361D01*
X0016417Y0025113D01*
Y0025168D01*
X0016361Y0025224D01*
X0016194D01*
Y0024891D01*
X0020298Y0003739D02*
X0020326Y0003794D01*
Y0003850D01*
X0020298Y0003905D01*
X0020132D01*
X0020104Y0003850D01*
Y0003794D01*
X0020132Y0003739D01*
X0020298D01*
X0020326Y0003683D01*
Y0003627D01*
X0020298Y0003572D01*
X0020132D01*
X0020104Y0003627D01*
Y0003683D01*
X0020132Y0003739D01*
X0019956Y0003572D02*
X0019845D01*
X0019901D02*
Y0003905D01*
X0019845Y0003850D01*
X0019559Y0003739D02*
X0019642Y0003572D01*
X0019420Y0003739D02*
X0019586D01*
X0019642Y0003794D01*
Y0003850D01*
X0019586Y0003905D01*
X0019420D01*
Y0003572D01*
X0005694Y0010455D02*
X0005583D01*
X0005639D02*
Y0010789D01*
X0005583Y0010733D01*
X0005380Y0010455D02*
X0005158D01*
X0005380Y0010677D01*
Y0010733D01*
X0005352Y0010789D01*
X0005185D01*
X0005158Y0010733D01*
X0004927Y0010622D02*
X0005010Y0010455D01*
X0004788Y0010622D02*
X0004954D01*
X0005010Y0010677D01*
Y0010733D01*
X0004954Y0010789D01*
X0004788D01*
Y0010455D01*
X0003533Y0023496D02*
X0003755D01*
X0003644Y0023274D01*
X0003588D01*
Y0023607D01*
X0004097Y0023441D02*
X0003930D01*
X0003903Y0023496D01*
Y0023552D01*
X0003930Y0023607D01*
X0004097D01*
X0004125Y0023552D01*
Y0023496D01*
X0004014Y0023274D01*
X0004356Y0023441D02*
X0004273Y0023607D01*
X0004495Y0023441D02*
X0004328D01*
X0004273Y0023385D01*
Y0023329D01*
X0004328Y0023274D01*
X0004495D01*
Y0023607D01*
X0013090Y0001334D02*
X0013146Y0001279D01*
X0013257D01*
X0013312Y0001334D01*
Y0001390D01*
X0013201Y0001501D01*
X0013312Y0001612D01*
X0013090D01*
X0012720Y0001334D02*
X0012776Y0001279D01*
X0012887D01*
X0012942Y0001334D01*
Y0001390D01*
X0012831Y0001501D01*
X0012942Y0001612D01*
X0012720D01*
X0012489Y0001445D02*
X0012572Y0001279D01*
X0012350Y0001445D02*
X0012517D01*
X0012572Y0001501D01*
Y0001557D01*
X0012517Y0001612D01*
X0012350D01*
Y0001279D01*
X0028954Y0010078D02*
X0028982Y0010023D01*
X0029149D01*
X0029177Y0010078D01*
Y0010189D01*
X0029121Y0010245D01*
X0028954D01*
Y0010356D01*
X0029177D01*
X0028807Y0010078D02*
X0028779Y0010023D01*
X0028612D01*
X0028584Y0010078D01*
Y0010300D01*
X0028612Y0010356D01*
X0028779D01*
X0028807Y0010300D01*
X0017235Y0018119D02*
X0017180Y0018063D01*
X0017124Y0018036D01*
X0017013D01*
X0016957Y0018063D01*
X0016902Y0018119D01*
Y0018175D01*
X0016957Y0018230D01*
X0017013Y0018258D01*
X0017124D01*
X0017180Y0018230D01*
X0017235Y0018175D01*
Y0018119D01*
X0017180Y0017666D02*
X0017235Y0017721D01*
Y0017832D01*
X0017180Y0017888D01*
X0017124D01*
X0017013Y0017777D01*
X0016902Y0017888D01*
Y0017666D01*
X0017180Y0017518D02*
X0017235Y0017490D01*
Y0017323D01*
X0017180Y0017296D01*
X0016957D01*
X0016902Y0017323D01*
Y0017490D01*
X0016957Y0017518D01*
X0018882Y0001187D02*
Y0001020D01*
X0018826Y0000992D01*
X0018771D01*
X0018715Y0001020D01*
Y0001187D01*
X0018771Y0001215D01*
X0018826D01*
X0019049Y0001103D01*
X0018715Y0001362D02*
Y0001473D01*
Y0001418D02*
X0019049D01*
X0018993Y0001473D01*
X0018882Y0001760D02*
X0018715Y0001677D01*
X0018882Y0001899D02*
Y0001732D01*
X0018937Y0001677D01*
X0018993D01*
X0019049Y0001732D01*
Y0001899D01*
X0018715D01*
X0008071Y0014264D02*
X0007848D01*
X0007959Y0014486D01*
X0008015D01*
Y0014153D01*
X0007534D02*
X0007701Y0014486D01*
X0007478D01*
X0007247Y0014319D02*
X0007331Y0014153D01*
X0007108Y0014319D02*
X0007275D01*
X0007331Y0014375D01*
Y0014430D01*
X0007275Y0014486D01*
X0007108D01*
Y0014153D01*
X0019605Y0025687D02*
X0019383D01*
X0019605Y0025909D01*
Y0025965D01*
X0019577Y0026020D01*
X0019411D01*
X0019383Y0025965D01*
X0019235Y0025798D02*
X0019013D01*
X0019124Y0026020D01*
X0019179D01*
Y0025687D01*
X0018782Y0025854D02*
X0018865Y0025687D01*
X0018643Y0025854D02*
X0018809D01*
X0018865Y0025909D01*
Y0025965D01*
X0018809Y0026020D01*
X0018643D01*
Y0025687D01*
X0022322Y0001829D02*
X0022378Y0001884D01*
X0022433Y0001912D01*
X0022544D01*
X0022600Y0001884D01*
X0022655Y0001829D01*
Y0001773D01*
X0022600Y0001718D01*
X0022544Y0001690D01*
X0022433D01*
X0022378Y0001718D01*
X0022322Y0001773D01*
Y0001829D01*
Y0002060D02*
Y0002171D01*
Y0002115D02*
X0022655D01*
X0022600Y0002171D01*
X0022378Y0002374D02*
X0022322Y0002402D01*
Y0002569D01*
X0022378Y0002596D01*
X0022600D01*
X0022655Y0002569D01*
Y0002402D01*
X0022600Y0002374D01*
X0026321Y0025717D02*
X0026099D01*
X0026321Y0025939D01*
Y0025994D01*
X0026293Y0026050D01*
X0026127D01*
X0026099Y0025994D01*
X0025729Y0025772D02*
X0025757Y0025717D01*
X0025923D01*
X0025951Y0025772D01*
Y0025883D01*
X0025896Y0025939D01*
X0025729D01*
Y0026050D01*
X0025951D01*
X0025498Y0025883D02*
X0025581Y0025717D01*
X0025359Y0025883D02*
X0025526D01*
X0025581Y0025939D01*
Y0025994D01*
X0025526Y0026050D01*
X0025359D01*
Y0025717D01*
X0000032Y0013859D02*
X0000254D01*
X0000143Y0013637D01*
X0000088D01*
Y0013971D01*
X0000624Y0013915D02*
X0000569Y0013971D01*
X0000458D01*
X0000402Y0013915D01*
Y0013859D01*
X0000513Y0013748D01*
X0000402Y0013637D01*
X0000624D01*
X0000772Y0013915D02*
X0000800Y0013971D01*
X0000966D01*
X0000994Y0013915D01*
Y0013693D01*
X0000966Y0013637D01*
X0000800D01*
X0000772Y0013693D01*
X0005949Y0000513D02*
X0006115D01*
X0006143Y0000458D01*
Y0000402D01*
X0006115Y0000347D01*
X0005949D01*
X0005921Y0000402D01*
Y0000458D01*
X0006032Y0000680D01*
X0005773Y0000347D02*
X0005551D01*
X0005773Y0000569D01*
Y0000624D01*
X0005745Y0000680D01*
X0005579D01*
X0005551Y0000624D01*
X0005320Y0000513D02*
X0005403Y0000347D01*
X0005181Y0000513D02*
X0005348D01*
X0005403Y0000569D01*
Y0000624D01*
X0005348Y0000680D01*
X0005181D01*
Y0000347D01*
X0001846Y0016842D02*
X0001790Y0016815D01*
Y0016648D01*
X0001846Y0016620D01*
X0001957D01*
X0002012Y0016676D01*
Y0016842D01*
X0002123D01*
Y0016620D01*
X0001846Y0017212D02*
X0001790Y0017157D01*
Y0017046D01*
X0001846Y0016990D01*
X0001901D01*
X0002012Y0017101D01*
X0002123Y0016990D01*
Y0017212D01*
X0001846Y0017360D02*
X0001790Y0017388D01*
Y0017555D01*
X0001846Y0017582D01*
X0002068D01*
X0002123Y0017555D01*
Y0017388D01*
X0002068Y0017360D01*
X0023153Y0020603D02*
Y0020826D01*
X0023375Y0020714D01*
Y0020659D01*
X0023042D01*
X0023097Y0021196D02*
X0023042Y0021168D01*
Y0021001D01*
X0023097Y0020973D01*
X0023209D01*
X0023264Y0021029D01*
Y0021196D01*
X0023375D01*
Y0020973D01*
X0023209Y0021427D02*
X0023042Y0021343D01*
X0023209Y0021566D02*
Y0021399D01*
X0023264Y0021343D01*
X0023320D01*
X0023375Y0021399D01*
Y0021566D01*
X0023042D01*
X0004318Y0004902D02*
X0004095D01*
X0004206Y0005125D01*
X0004262D01*
Y0004791D01*
X0003948D02*
X0003837D01*
X0003892D02*
Y0005125D01*
X0003837Y0005069D01*
X0003633Y0004847D02*
X0003605Y0004791D01*
X0003439D01*
X0003411Y0004847D01*
Y0005069D01*
X0003439Y0005125D01*
X0003605D01*
X0003633Y0005069D01*
X0023163Y0000699D02*
X0023135Y0000755D01*
X0022968D01*
X0022940Y0000699D01*
Y0000588D01*
X0022996Y0000532D01*
X0023163D01*
Y0000421D01*
X0022940D01*
X0023310Y0000755D02*
X0023421D01*
X0023366D02*
Y0000421D01*
X0023421Y0000477D01*
X0023708Y0000588D02*
X0023625Y0000755D01*
X0023847Y0000588D02*
X0023680D01*
X0023625Y0000532D01*
Y0000477D01*
X0023680Y0000421D01*
X0023847D01*
Y0000755D01*
X-0000402Y0002443D02*
X-0000347Y0002471D01*
Y0002638D01*
X-0000402Y0002666D01*
X-0000513D01*
X-0000569Y0002610D01*
Y0002443D01*
X-0000680D01*
Y0002666D01*
X-0000347Y0002296D02*
Y0002185D01*
Y0002240D02*
X-0000680D01*
X-0000624Y0002185D01*
X-0000402Y0001981D02*
X-0000347Y0001953D01*
Y0001787D01*
X-0000402Y0001759D01*
X-0000624D01*
X-0000680Y0001787D01*
Y0001953D01*
X-0000624Y0001981D01*
X0016803Y0012067D02*
Y0011844D01*
X0016580Y0012067D01*
X0016525D01*
X0016469Y0012039D01*
Y0011872D01*
X0016525Y0011844D01*
X0016636Y0011613D02*
X0016803Y0011697D01*
X0016636Y0011474D02*
Y0011641D01*
X0016580Y0011697D01*
X0016525D01*
X0016469Y0011641D01*
Y0011474D01*
X0016803D01*
X-0000296Y0020652D02*
X-0000462D01*
X-0000490Y0020707D01*
Y0020763D01*
X-0000462Y0020819D01*
X-0000296D01*
X-0000268Y0020763D01*
Y0020707D01*
X-0000379Y0020485D01*
X-0000860Y0020541D02*
X-0000832Y0020485D01*
X-0000666D01*
X-0000638Y0020541D01*
Y0020652D01*
X-0000694Y0020707D01*
X-0000860D01*
Y0020819D01*
X-0000638D01*
X-0001091Y0020652D02*
X-0001008Y0020485D01*
X-0001230Y0020652D02*
X-0001064D01*
X-0001008Y0020707D01*
Y0020763D01*
X-0001064Y0020819D01*
X-0001230D01*
Y0020485D01*
X0025903Y0007466D02*
X0026069Y0007799D01*
X0025847D01*
X0025699Y0007521D02*
X0025671Y0007466D01*
X0025505D01*
X0025477Y0007521D01*
Y0007744D01*
X0025505Y0007799D01*
X0025671D01*
X0025699Y0007744D01*
X0007532Y0005134D02*
X0009132D01*
Y0004384D01*
X0007532D01*
Y0005134D01*
X0005199Y0007870D02*
X0005499D01*
Y0008130D01*
Y0008810D02*
Y0009070D01*
X0005199D01*
Y0009120D01*
X0019213Y0001769D02*
X0019963D01*
Y0003369D01*
X0019213D01*
Y0001769D01*
X0005410Y0016324D02*
X0004660D01*
Y0014724D01*
X0005410D01*
Y0016324D01*
X0012054Y0004542D02*
Y0006142D01*
X0012804D01*
Y0004542D01*
X0012054D01*
X0023049Y0016030D02*
Y0015280D01*
X0024649D01*
Y0016030D01*
X0023049D01*
X0019941Y0011939D02*
Y0011189D01*
X0021541D01*
Y0011939D01*
X0019941D01*
X0013431Y0002300D02*
Y0003900D01*
X0014181D01*
Y0002300D01*
X0013431D01*
X-0002410Y0015487D02*
X-0001660D01*
Y0017087D01*
X-0002410D01*
Y0015487D01*
X0008397Y0010169D02*
Y0009419D01*
X0009997D01*
Y0010169D01*
X0008397D01*
X0027237Y0001750D02*
Y0003350D01*
X0027987D01*
Y0001750D01*
X0027237D01*
X0016305Y0004740D02*
Y0003140D01*
X0015555D01*
Y0004740D01*
X0016305D01*
X0012487Y0015890D02*
X0013237D01*
Y0017490D01*
X0012487D01*
Y0015890D01*
X0006550Y0016363D02*
X0005800D01*
Y0014763D01*
X0006550D01*
Y0016363D01*
X0024130Y0017918D02*
X0025730D01*
Y0017168D01*
X0024130D01*
Y0017918D01*
X0021848Y0004424D02*
Y0006024D01*
X0022598D01*
Y0004424D01*
X0021848D01*
X0023993Y0000021D02*
Y-0000729D01*
X0025593D01*
Y0000021D01*
X0023993D01*
X0011801Y-0002499D02*
Y-0001749D01*
X0010201D01*
Y-0002499D01*
X0011801D01*
X0027316Y0004623D02*
X0028916D01*
Y0003873D01*
X0027316D01*
Y0004623D01*
X0028635Y0006508D02*
Y0007258D01*
X0027035D01*
Y0006508D01*
X0028635D01*
X0030366Y0011504D02*
Y0012254D01*
X0028766D01*
Y0011504D01*
X0030366D01*
X0012644Y0018761D02*
X0013394D01*
Y0020361D01*
X0012644D01*
Y0018761D01*
X0019176Y0018605D02*
X0018426D01*
Y0017005D01*
X0019176D01*
Y0018605D01*
X0002910Y0020553D02*
Y0019803D01*
X0004510D01*
Y0020553D01*
X0002910D01*
X0017987Y0010792D02*
X0017687D01*
Y0010532D01*
Y0009852D02*
Y0009592D01*
X0017987D01*
Y0009542D01*
X0008829Y0023953D02*
X0009579D01*
Y0025553D01*
X0008829D01*
Y0023953D01*
X0027631Y0005567D02*
X0029231D01*
Y0004817D01*
X0027631D01*
Y0005567D01*
X0023167Y0010366D02*
Y0009616D01*
X0024767D01*
Y0010366D01*
X0023167D01*
X0008615Y0023894D02*
Y0024644D01*
X0007015D01*
Y0023894D01*
X0008615D01*
X0020316Y0005407D02*
X0018716D01*
Y0006157D01*
X0020316D01*
Y0005407D01*
X-0000926Y0004680D02*
X-0000176D01*
Y0006280D01*
X-0000926D01*
Y0004680D01*
X0009401Y0021927D02*
Y0022677D01*
X0007801D01*
Y0021927D01*
X0009401D01*
X0016971Y0005683D02*
Y0007283D01*
X0017721D01*
Y0005683D01*
X0016971D01*
X0015476Y0016401D02*
X0016226D01*
Y0018001D01*
X0015476D01*
Y0016401D01*
X0021968Y0024877D02*
X0020368D01*
Y0025627D01*
X0021968D01*
Y0024877D01*
X0013752Y0016650D02*
Y0016350D01*
X0014012D01*
X0014692D02*
X0014952D01*
Y0016650D01*
X0015002D01*
X0028181Y0001415D02*
X0028931D01*
Y0003015D01*
X0028181D01*
Y0001415D01*
X-0001080Y0012627D02*
X-0001830D01*
Y0011027D01*
X-0001080D01*
Y0012627D01*
X0024995Y0022911D02*
Y0024511D01*
X0025745D01*
Y0022911D01*
X0024995D01*
X0024132Y0024916D02*
X0022532D01*
Y0025666D01*
X0024132D01*
Y0024916D01*
X0004700Y0022795D02*
X0006300D01*
Y0022045D01*
X0004700D01*
Y0022795D01*
X0025585Y0000629D02*
X0026335D01*
Y0002229D01*
X0025585D01*
Y0000629D01*
X0009734Y0023934D02*
Y0025534D01*
X0010484D01*
Y0023934D01*
X0009734D01*
X0000473Y0003598D02*
Y0004348D01*
X-0001127D01*
Y0003598D01*
X0000473D01*
X0022689Y0011794D02*
X0022389D01*
Y0011534D01*
Y0010854D02*
Y0010594D01*
X0022689D01*
Y0010544D01*
X0020747Y0004660D02*
Y0006260D01*
X0021497D01*
Y0004660D01*
X0020747D01*
X0003627Y-0001544D02*
X0004377D01*
Y0000055D01*
X0003627D01*
Y-0001544D01*
X-0004308Y0016441D02*
X-0003558D01*
Y0018041D01*
X-0004308D01*
Y0016441D01*
X0009716Y0016892D02*
Y0017642D01*
X0008116D01*
Y0016892D01*
X0009716D01*
X0016981Y0007581D02*
X0017731D01*
Y0009181D01*
X0016981D01*
Y0007581D01*
X0006144Y0002153D02*
X0006894D01*
Y0003753D01*
X0006144D01*
Y0002153D01*
X0020435Y0024368D02*
Y0022768D01*
X0019685D01*
Y0024368D01*
X0020435D01*
X0013812Y0019306D02*
Y0019006D01*
X0014072D01*
X0014752D02*
X0015012D01*
Y0019306D01*
X0015062D01*
X0024801Y0020670D02*
Y0019070D01*
X0024051D01*
Y0020670D01*
X0024801D01*
X0002144Y0004581D02*
X0000544D01*
Y0005331D01*
X0002144D01*
Y0004581D01*
X0024091Y0018822D02*
X0025691D01*
Y0018072D01*
X0024091D01*
Y0018822D01*
X0016027Y0005663D02*
X0016777D01*
Y0007263D01*
X0016027D01*
Y0005663D01*
X0026708Y0018938D02*
Y0019688D01*
X0025108D01*
Y0018938D01*
X0026708D01*
X0004337Y0012575D02*
Y0013325D01*
X0002737D01*
Y0012575D01*
X0004337D01*
X0008299Y0009225D02*
Y0008475D01*
X0009899D01*
Y0009225D01*
X0008299D01*
X0013470Y-0000453D02*
Y0001147D01*
X0014220D01*
Y-0000453D01*
X0013470D01*
X0017719Y0019884D02*
X0019319D01*
Y0019134D01*
X0017719D01*
Y0019884D01*
X-0000663Y0011361D02*
Y0011061D01*
X-0000403D01*
X0000277D02*
X0000537D01*
Y0011361D01*
X0000587D01*
X0011071Y0004011D02*
X0011821D01*
Y0005611D01*
X0011071D01*
Y0004011D01*
X0005132Y0002104D02*
Y0003704D01*
X0005882D01*
Y0002104D01*
X0005132D01*
X0007098Y0002084D02*
X0007848D01*
Y0003684D01*
X0007098D01*
Y0002084D01*
X0017601Y0020750D02*
Y0020000D01*
X0019201D01*
Y0020750D01*
X0017601D01*
X0002694Y0014850D02*
X0004294D01*
Y0014100D01*
X0002694D01*
Y0014850D01*
X0011820Y-0001555D02*
X0010220D01*
Y-0000805D01*
X0011820D01*
Y-0001555D01*
X0012487Y0002320D02*
X0013237D01*
Y0003920D01*
X0012487D01*
Y0002320D01*
X-0000923Y0008497D02*
X-0001673D01*
Y0006897D01*
X-0000923D01*
Y0008497D01*
X0010088Y0003756D02*
Y0005356D01*
X0010838D01*
Y0003756D01*
X0010088D01*
X-0003298Y0018401D02*
Y0018101D01*
X-0003038D01*
X-0002358D02*
X-0002098D01*
Y0018401D01*
X-0002048D01*
X0017465Y0023933D02*
Y0024683D01*
X0015865D01*
Y0023933D01*
X0017465D01*
X0022145Y0003480D02*
Y0004230D01*
X0020545D01*
Y0003480D01*
X0022145D01*
X0006058Y0009498D02*
Y0010248D01*
X0004458D01*
Y0009498D01*
X0006058D01*
X0004680Y0023739D02*
Y0022989D01*
X0006280D01*
Y0023739D01*
X0004680D01*
X0012487Y-0000433D02*
X0013237D01*
Y0001167D01*
X0012487D01*
Y-0000433D01*
X0030425Y0010520D02*
X0028825D01*
Y0011270D01*
X0030425D01*
Y0010520D01*
X0018193Y0018586D02*
Y0016986D01*
X0017443D01*
Y0018586D01*
X0018193D01*
X0017836Y0000747D02*
X0018586D01*
Y0002347D01*
X0017836D01*
Y0000747D01*
X0008457Y0014729D02*
Y0015479D01*
X0006857D01*
Y0014729D01*
X0008457D01*
X0019913Y0024729D02*
Y0025479D01*
X0018313D01*
Y0024729D01*
X0019913D01*
X0022832Y0002656D02*
X0024432D01*
Y0001906D01*
X0022832D01*
Y0002656D01*
X0026629Y0024759D02*
Y0025509D01*
X0025029D01*
Y0024759D01*
X0026629D01*
X-0001004Y0014928D02*
X0000596D01*
Y0014178D01*
X-0001004D01*
Y0014928D01*
X0006451Y-0000611D02*
Y0000139D01*
X0004851D01*
Y-0000611D01*
X0006451D01*
X-0000020Y0017288D02*
X0001580D01*
Y0016538D01*
X-0000020D01*
Y0017288D01*
X0022124Y0020649D02*
X0022874D01*
Y0022249D01*
X0022124D01*
Y0020649D01*
X0000387Y0007821D02*
X0000087D01*
Y0007561D01*
Y0006881D02*
Y0006621D01*
X0000387D01*
Y0006571D01*
X0004701Y0003834D02*
X0003101D01*
Y0004584D01*
X0004701D01*
Y0003834D01*
X0022852Y0001673D02*
Y0000923D01*
X0024452D01*
Y0001673D01*
X0022852D01*
X0000611Y0003049D02*
Y0001449D01*
X-0000139D01*
Y0003049D01*
X0000611D01*
X0017760Y0012745D02*
X0017010D01*
Y0011145D01*
X0017760D01*
Y0012745D01*
X0000040Y0019528D02*
Y0020278D01*
X-0001560D01*
Y0019528D01*
X0000040D01*
X0026767Y0006508D02*
X0025167D01*
Y0007258D01*
X0026767D01*
Y0006508D01*
X-0000569Y0017091D02*
Y0015491D01*
X-0001319D01*
Y0017091D01*
X-0000569D01*
X0008477Y0015712D02*
X0006877D01*
Y0016462D01*
X0008477D01*
Y0015712D01*
X0017503Y0021733D02*
Y0020983D01*
X0019103D01*
Y0021733D01*
X0017503D01*
X0023698Y0015086D02*
X0025298D01*
Y0014336D01*
X0023698D01*
Y0015086D01*
X0024740Y0017013D02*
Y0016263D01*
X0026340D01*
Y0017013D01*
X0024740D01*
X0027219Y0019842D02*
Y0020592D01*
X0025619D01*
Y0019842D01*
X0027219D01*
G54D63*
G01X0003595Y0002334D02*
Y0003584D01*
X0002095D01*
Y0002334D01*
X0003595D01*
Y0003334D02*
X0002095D01*
X0022532Y0016795D02*
X0021032D01*
Y0016545D02*
Y0020045D01*
X0022532D01*
Y0016545D01*
X0021032D01*
X0019171Y0003947D02*
Y0005197D01*
X0017671D01*
Y0003947D01*
X0019171D01*
Y0004947D02*
X0017671D01*
X0008457Y0020486D02*
Y0018986D01*
X0008707D02*
X0005207D01*
Y0020486D01*
X0008707D01*
Y0018986D01*
X0023301Y0023378D02*
Y0024628D01*
X0021801D01*
Y0023378D01*
X0023301D01*
Y0024378D02*
X0021801D01*
X0011918Y0002236D02*
Y0000736D01*
X0012168D02*
X0008668D01*
Y0002236D01*
X0012168D01*
Y0000736D01*
X0000811Y0016310D02*
Y0015060D01*
X0002311D01*
Y0016310D01*
X0000811D01*
Y0015310D02*
X0002311D01*
X0025796Y0003107D02*
X0024296D01*
Y0002857D02*
Y0006357D01*
X0025796D01*
Y0002857D01*
X0024296D01*
G54D64*
G01X0005214Y0007194D02*
X0005144Y0007124D01*
Y0006984D01*
X0005214Y0006914D01*
X0005284D01*
X0005424Y0007054D01*
X0005564Y0006914D01*
Y0007194D01*
X0005284Y0007534D02*
X0005144Y0007394D01*
X0005214Y0007674D02*
X0005144Y0007639D01*
Y0007499D01*
X0005214Y0007464D01*
X0005284Y0007394D01*
X0005494D01*
X0005564Y0007429D01*
Y0007639D01*
X0005494Y0007674D01*
X0005214D01*
X0018514Y0011827D02*
Y0011547D01*
X0018234Y0011827D01*
X0018164D01*
X0018094Y0011792D01*
Y0011582D01*
X0018164Y0011547D01*
X0018374Y0011207D02*
X0018514Y0011347D01*
X0018444Y0011067D02*
X0018514Y0011102D01*
Y0011242D01*
X0018444Y0011277D01*
X0018374Y0011347D01*
X0018164D01*
X0018094Y0011312D01*
Y0011102D01*
X0018164Y0011067D01*
X0018444D01*
X0014299Y0015433D02*
X0014089D01*
X0014054Y0015503D01*
Y0015573D01*
X0014089Y0015643D01*
X0014299D01*
X0014334Y0015573D01*
Y0015503D01*
X0014194Y0015223D01*
X0014675Y0015503D02*
X0014535Y0015643D01*
X0014815Y0015573D02*
X0014780Y0015643D01*
X0014640D01*
X0014605Y0015573D01*
X0014535Y0015503D01*
Y0015293D01*
X0014570Y0015223D01*
X0014780D01*
X0014815Y0015293D01*
Y0015573D01*
X0002955Y0001728D02*
X0002900Y0001673D01*
Y0001562D01*
X0002955Y0001506D01*
X0003011D01*
X0003122Y0001617D01*
X0003233Y0001506D01*
Y0001728D01*
Y0001921D02*
X0002955D01*
X0002900Y0001949D01*
Y0002116D01*
X0002955Y0002144D01*
X0003233D01*
X0022744Y0012680D02*
Y0012540D01*
Y0012610D02*
X0022324D01*
X0022394Y0012540D01*
X0022604Y0012130D02*
X0022744Y0012270D01*
X0022674Y0011990D02*
X0022744Y0012025D01*
Y0012165D01*
X0022674Y0012200D01*
X0022604Y0012270D01*
X0022394D01*
X0022324Y0012235D01*
Y0012025D01*
X0022394Y0011990D01*
X0022674D01*
X0015535Y0019291D02*
X0015500Y0019361D01*
X0015290D01*
X0015255Y0019291D01*
Y0019151D01*
X0015325Y0019081D01*
X0015535D01*
Y0018941D01*
X0015255D01*
X0015876Y0019221D02*
X0015736Y0019361D01*
X0016016Y0019291D02*
X0015981Y0019361D01*
X0015841D01*
X0015806Y0019291D01*
X0015736Y0019221D01*
Y0019011D01*
X0015771Y0018941D01*
X0015981D01*
X0016016Y0019011D01*
Y0019291D01*
X0021211Y0020395D02*
X0021378D01*
X0021406Y0020339D01*
Y0020283D01*
X0021378Y0020228D01*
X0021211D01*
X0021183Y0020283D01*
Y0020339D01*
X0021295Y0020561D01*
X0020990D02*
Y0020283D01*
X0020963Y0020228D01*
X0020796D01*
X0020768Y0020283D01*
Y0020561D01*
X-0000325Y0010104D02*
X-0000360Y0010034D01*
Y0009964D01*
X-0000325Y0009894D01*
X-0000115D01*
X-0000080Y0009964D01*
Y0010034D01*
X-0000115Y0010104D01*
X-0000325D01*
X-0000360Y0010174D01*
Y0010244D01*
X-0000325Y0010314D01*
X-0000115D01*
X-0000080Y0010244D01*
Y0010174D01*
X-0000115Y0010104D01*
X0000260Y0010174D02*
X0000120Y0010314D01*
X0000400Y0010244D02*
X0000365Y0010314D01*
X0000225D01*
X0000190Y0010244D01*
X0000120Y0010174D01*
Y0009964D01*
X0000155Y0009894D01*
X0000365D01*
X0000400Y0009964D01*
Y0010244D01*
X0017138Y0003174D02*
Y0003285D01*
Y0003230D02*
X0017472D01*
X0017416Y0003285D01*
X0017472Y0003534D02*
X0017194D01*
X0017138Y0003562D01*
Y0003729D01*
X0017194Y0003756D01*
X0017472D01*
X-0003179Y0020384D02*
X-0003389Y0019964D01*
X-0003109D01*
X-0002768Y0020244D02*
X-0002908Y0020384D01*
X-0002628Y0020314D02*
X-0002663Y0020384D01*
X-0002803D01*
X-0002838Y0020314D01*
X-0002908Y0020244D01*
Y0020034D01*
X-0002873Y0019964D01*
X-0002663D01*
X-0002628Y0020034D01*
Y0020314D01*
X0004407Y0021025D02*
X0004379Y0020969D01*
Y0020914D01*
X0004407Y0020858D01*
X0004574D01*
X0004602Y0020914D01*
Y0020969D01*
X0004574Y0021025D01*
X0004407D01*
X0004379Y0021080D01*
Y0021136D01*
X0004407Y0021192D01*
X0004574D01*
X0004602Y0021136D01*
Y0021080D01*
X0004574Y0021025D01*
X0004795Y0020858D02*
Y0021136D01*
X0004823Y0021192D01*
X0004989D01*
X0005017Y0021136D01*
Y0020858D01*
X0022988Y0022858D02*
X0023016Y0022803D01*
X0023183D01*
X0023211Y0022858D01*
Y0022970D01*
X0023155Y0023025D01*
X0022988D01*
Y0023136D01*
X0023211D01*
X0022795D02*
Y0022858D01*
X0022768Y0022803D01*
X0022601D01*
X0022573Y0022858D01*
Y0023136D01*
X0007841Y0001728D02*
X0008063D01*
X0007952Y0001506D01*
X0007896D01*
Y0001840D01*
X0008256Y0001506D02*
Y0001784D01*
X0008284Y0001840D01*
X0008451D01*
X0008478Y0001784D01*
Y0001506D01*
X0002922Y0016971D02*
X0002588Y0017138D01*
Y0016915D01*
Y0016722D02*
X0002866D01*
X0002922Y0016695D01*
Y0016528D01*
X0002866Y0016500D01*
X0002588D01*
X0024142Y0007224D02*
Y0007001D01*
X0023919Y0007224D01*
X0023864D01*
X0023808Y0007196D01*
Y0007029D01*
X0023864Y0007001D01*
X0023808Y0006808D02*
X0024086D01*
X0024142Y0006781D01*
Y0006614D01*
X0024086Y0006586D01*
X0023808D01*
X0000302Y0008777D02*
Y0008497D01*
X0000022Y0008637D01*
Y0008707D01*
X0000442D01*
X0000302Y0008157D02*
X0000442Y0008297D01*
X0000372Y0008017D02*
X0000442Y0008052D01*
Y0008192D01*
X0000372Y0008227D01*
X0000302Y0008297D01*
X0000092D01*
X0000022Y0008262D01*
Y0008052D01*
X0000092Y0008017D01*
X0000372D01*
G54D29*
%LPC*%
X0002635Y0004209D03*
X0004563Y0011603D03*
X0005467Y0004287D03*
X0005900Y0010738D03*
X-0002360Y0012508D03*
X-0002989Y0016559D03*
X0008653Y0019155D03*
X0006529Y0019313D03*
X0028595Y0005979D03*
X0007749Y0020139D03*
X0022341Y0018211D03*
X0029225Y0013059D03*
X0010266Y0016992D03*
X0009204Y0021397D03*
X0010659Y0002006D03*
X0029225Y0013059D03*
X0005900Y0010738D03*
X-0000354Y0013727D03*
X0018959Y0012233D03*
X0015261Y0010974D03*
X0019824Y0020453D03*
X0019627Y0021633D03*
X0006136Y0017346D03*
X0003658Y0016481D03*
X0010856Y0012193D03*
X0005900Y0010738D03*
X0009401Y0001062D03*
X0013019Y0006569D03*
X0019824Y0020453D03*
X0021161Y0018054D03*
X0006136Y0017346D03*
X0011210Y0016363D03*
X0021161Y0018054D03*
X0020689Y0014947D03*
X0020729Y0013806D03*
X0026196Y0017739D03*
X0007080Y0013334D03*
X0001101Y0014357D03*
X0028241Y0011171D03*
X0026117Y0013216D03*
X0015930Y0002596D03*
X0013019Y0006569D03*
X0002635Y0004209D03*
X0002163Y0001809D03*
X0018054Y0005153D03*
X0017897Y0003619D03*
X0026117Y0013216D03*
X0007867Y0005703D03*
X0026275Y0023639D03*
X0003658Y0016481D03*
X0001495Y0017857D03*
X0021515Y0023010D03*
X0022892Y0024347D03*
X0018054Y0005153D03*
X0022223Y0006529D03*
X0029421Y0005900D03*
X0009597Y-0002085D03*
X-0000354Y0013727D03*
X-0002360Y0012508D03*
X0006962Y0019863D03*
X0022341Y0018880D03*
X0021751Y0014947D03*
X0022774Y0013373D03*
X0015655Y0005231D03*
X0022774Y0023639D03*
X0015891Y0018447D03*
X0009597Y0004091D03*
X0015655Y0005231D03*
D03*
X0004012Y0015812D03*
X0009597Y0004091D03*
X0004799Y0001691D03*
X0027455Y0006136D03*
X0022341Y0018880D03*
X0023639Y0021083D03*
X0004012Y0015812D03*
X0000826Y0018093D03*
X0009204Y0016481D03*
X0001809Y0014475D03*
X0006175Y0013963D03*
X0030247Y0010069D03*
X0025488Y0005979D03*
X0025409Y0002596D03*
X0025331Y0015812D03*
X0029107Y0003383D03*
X0014986Y0008693D03*
X0016048Y0008732D03*
X0024937Y0005113D03*
X0022499Y0003147D03*
X-0003147Y0015104D03*
X0003147Y0002989D03*
X0021791Y0020650D03*
X0021279Y0015773D03*
X0023836Y0016323D03*
X0027848Y0019313D03*
X0017149Y0019470D03*
X0019470Y0017818D03*
X0008221Y0023285D03*
X0009204Y0018683D03*
X0018447Y0004641D03*
X0018801Y0003107D03*
X0025252Y0021043D03*
X0026471Y0007788D03*
X0008771Y0005585D03*
X0009676Y0007945D03*
X0019981Y-0001259D03*
X0022813Y0014868D03*
X0025842Y0015340D03*
X0009637Y-0001062D03*
X0012587Y-0000944D03*
X0015969Y0009479D03*
X0015065Y0009440D03*
X0006215Y0024387D03*
X0029421Y0005900D03*
X0013255Y0018290D03*
X0006490Y0016795D03*
X0018919Y0011210D03*
X0024623Y0011603D03*
X0002281Y0006726D03*
X0008299Y0010817D03*
X0018093Y0005939D03*
X0009204Y0023325D03*
X0007316Y0023167D03*
X0004130Y0021751D03*
X0014003Y0021043D03*
X0019706Y0010030D03*
X0008653Y0019155D03*
X0029382Y0015222D03*
X0004917Y0024111D03*
X0026786Y0001259D03*
X0000511Y0020099D03*
X0005192Y0014003D03*
X0007316Y0023167D03*
X0015458Y0019863D03*
X0016481Y0020532D03*
X0027219Y0019155D03*
X0023482Y0022184D03*
X0022145Y0024387D03*
X0003973Y-0002242D03*
X0025488Y0005979D03*
X0025252Y0009676D03*
X-0004091Y0015065D03*
X0008653Y0019155D03*
X0017267Y0001023D03*
X0009204Y0016481D03*
X0027061Y0024662D03*
X0019588Y0001219D03*
%LPD*%
G54D65*
%LPC*%
X0001613Y0019394D03*
X0003979Y0018414D03*
X-0000753D03*
X0001613Y0012701D03*
X0018605Y0022738D03*
X0020971Y0021757D03*
X0016238D03*
X0018605Y0016045D03*
X0007434Y0007319D03*
X0009800Y0006339D03*
X0005068D03*
X0007434Y0000626D03*
X0021397Y0009325D03*
X0023763Y0008345D03*
X0019031D03*
X0021397Y0002632D03*
X0009519Y0015419D03*
Y0014357D03*
Y0013295D03*
X0003422Y0024937D03*
X0004484D03*
X0005546D03*
X0010699Y0019313D03*
Y0020375D03*
Y0021437D03*
X0027376Y0014907D03*
Y0015969D03*
Y0017031D03*
X0015537Y-0001770D03*
X0014475D03*
X0013413D03*
X0012783Y0010030D03*
Y0011092D03*
Y0012154D03*
X0023403Y-0001809D03*
X0024465D03*
X0025527D03*
X0029500Y0009047D03*
Y0007985D03*
Y0006923D03*
X0012036Y0014632D03*
X0027691Y0023600D03*
X0027573Y0000000D03*
X0000039Y0023639D03*
Y-0000039D03*
X0029854Y0015891D03*
Y0016891D03*
Y0017891D03*
Y0018891D03*
Y0019891D03*
Y0020891D03*
Y0021891D03*
Y0022891D03*
Y0023891D03*
Y0024891D03*
%LPD*%
M02*
