*
G04 Mass Parameters ***
*
G04 Image ***
*
%INC:\PROGETTI\SCHEDA-ALPHASENSEB43\ALPHAB43-11.AST*%
%ICAS*%
%MOIN*%
%IPPOS*%
%ASAXBY*%
G74*%FSLAN2X34Y34*%
*
G04 Aperture Definitions ***
*
%ADD10R,0.0590X0.0590*%
%ADD11C,0.0551*%
%ADD12R,0.0551X0.0551*%
%ADD13C,0.1260*%
%ADD14R,0.0787X0.0472*%
%ADD15R,0.0472X0.0787*%
%ADD16C,0.1575*%
%ADD17O,0.0900X0.0160*%
%ADD18R,0.0900X0.0160*%
%ADD19O,0.0984X0.0240*%
%ADD20R,0.0984X0.0240*%
%ADD21O,0.0240X0.0984*%
%ADD22R,0.0240X0.0984*%
%ADD23C,0.0100*%
%ADD24C,0.0120*%
%ADD25C,0.0500*%
%ADD26C,0.0500*%
%ADD27C,0.0140*%
%ADD28C,0.0140*%
%ADD29R,0.0590X0.0590*%
%ADD30C,0.0551*%
%ADD31R,0.0551X0.0551*%
%ADD32C,0.1260*%
%ADD33R,0.0787X0.0472*%
%ADD34R,0.0787X0.0787*%
%ADD35R,0.0472X0.0787*%
%ADD36C,0.1575*%
%ADD37R,0.0669X0.0669*%
%ADD38C,0.0630*%
%ADD39R,0.0630X0.0630*%
%ADD40C,0.1338*%
%ADD41R,0.0866X0.0551*%
%ADD42R,0.0551X0.0866*%
%ADD43C,0.1653*%
%ADD44O,0.0979X0.0239*%
%ADD45R,0.0979X0.0239*%
%ADD46O,0.1063X0.0319*%
%ADD47R,0.1063X0.0319*%
%ADD48O,0.0319X0.1063*%
%ADD49R,0.0319X0.1063*%
%ADD50C,0.0550*%
%ADD51C,0.0550*%
%ADD52C,0.0140*%
%ADD53R,0.0866X0.0866*%
%ADD54O,0.0900X0.0160*%
%ADD55R,0.0900X0.0160*%
%ADD56O,0.0984X0.0240*%
%ADD57R,0.0984X0.0240*%
%ADD58O,0.0240X0.0984*%
%ADD59R,0.0240X0.0984*%
%ADD60C,0.0060*%
%ADD61C,0.0080*%
%ADD62C,0.0083*%
%ADD63C,0.0140*%
%ADD64C,0.0098*%
%ADD65C,0.0118*%
%ADD66C,0.0087*%
*
G04 Plot Data ***
*
G54D23*
G01X-0001219Y-0002832D02*
Y0001495D01*
X-0005546D01*
Y0022302D01*
X-0001219D01*
Y0026235D01*
X0030719D01*
Y-0002832D01*
X-0001219D01*
G54D60*
G01X-0000557Y0016109D02*
X-0000668D01*
X-0000613D02*
Y0016442D01*
X-0000668Y0016387D01*
X-0000872Y0016220D02*
X-0001094D01*
X-0000983Y0016442D01*
X-0000927D01*
Y0016109D01*
X-0001242Y0016164D02*
X-0001270Y0016109D01*
X-0001436D01*
X-0001464Y0016164D01*
Y0016387D01*
X-0001436Y0016442D01*
X-0001270D01*
X-0001242Y0016387D01*
X0007756Y0016656D02*
X0007534D01*
X0007756Y0016878D01*
Y0016934D01*
X0007728Y0016989D01*
X0007561D01*
X0007534Y0016934D01*
X0007386Y0016767D02*
X0007164D01*
X0007275Y0016989D01*
X0007330D01*
Y0016656D01*
X0007016Y0016711D02*
X0006988Y0016656D01*
X0006821D01*
X0006794Y0016711D01*
Y0016934D01*
X0006821Y0016989D01*
X0006988D01*
X0007016Y0016934D01*
X0019460Y0021028D02*
X0019516Y0021000D01*
X0019571D01*
X0019627Y0021028D01*
Y0021195D01*
X0019571Y0021222D01*
X0019516D01*
X0019460Y0021195D01*
Y0021028D01*
X0019405Y0021000D01*
X0019349D01*
X0019293Y0021028D01*
Y0021195D01*
X0019349Y0021222D01*
X0019405D01*
X0019460Y0021195D01*
X0019405Y0021370D02*
Y0021592D01*
X0019627Y0021481D01*
Y0021426D01*
X0019293D01*
X0019460Y0021823D02*
X0019293Y0021740D01*
X0019460Y0021962D02*
Y0021796D01*
X0019516Y0021740D01*
X0019571D01*
X0019627Y0021796D01*
Y0021962D01*
X0019293D01*
X0024220Y0013936D02*
X0024053D01*
X0024025Y0013991D01*
Y0014047D01*
X0024053Y0014103D01*
X0024220D01*
X0024248Y0014047D01*
Y0013991D01*
X0024136Y0013769D01*
X0024395Y0014103D02*
X0024618D01*
X0024395Y0013880D01*
Y0013825D01*
X0024423Y0013769D01*
X0024590D01*
X0024618Y0013825D01*
X0024765Y0014047D02*
X0024793Y0014103D01*
X0024960D01*
X0024988Y0014047D01*
Y0013825D01*
X0024960Y0013769D01*
X0024793D01*
X0024765Y0013825D01*
X0025305Y0016187D02*
X0025360Y0016132D01*
X0025388Y0016076D01*
Y0015965D01*
X0025360Y0015909D01*
X0025305Y0015854D01*
X0025249D01*
X0025194Y0015909D01*
X0025166Y0015965D01*
Y0016076D01*
X0025194Y0016132D01*
X0025249Y0016187D01*
X0025305D01*
X0025758Y0016132D02*
X0025730Y0016187D01*
X0025564D01*
X0025536Y0016132D01*
Y0016021D01*
X0025592Y0015965D01*
X0025758D01*
Y0015854D01*
X0025536D01*
X0025989Y0016021D02*
X0025906Y0016187D01*
X0026128Y0016021D02*
X0025962D01*
X0025906Y0015965D01*
Y0015909D01*
X0025962Y0015854D01*
X0026128D01*
Y0016187D01*
X0026745Y0020825D02*
X0026911Y0021159D01*
X0026689D01*
X0026541Y0020936D02*
X0026319D01*
X0026430Y0021159D01*
X0026486D01*
Y0020825D01*
X0026088Y0020992D02*
X0026171Y0020825D01*
X0025949Y0020992D02*
X0026116D01*
X0026171Y0021047D01*
Y0021103D01*
X0026116Y0021159D01*
X0025949D01*
Y0020825D01*
X0008042Y0005607D02*
X0007876Y0005273D01*
X0008098D01*
X0008246Y0005607D02*
X0008357D01*
X0008301D02*
Y0005273D01*
X0008357Y0005329D01*
X0008560Y0005551D02*
X0008588Y0005607D01*
X0008754D01*
X0008782Y0005551D01*
Y0005329D01*
X0008754Y0005273D01*
X0008588D01*
X0008560Y0005329D01*
X0019823Y0002586D02*
X0019851Y0002642D01*
Y0002697D01*
X0019823Y0002753D01*
X0019657D01*
X0019629Y0002697D01*
Y0002642D01*
X0019657Y0002586D01*
X0019823D01*
X0019851Y0002531D01*
Y0002475D01*
X0019823Y0002419D01*
X0019657D01*
X0019629Y0002475D01*
Y0002531D01*
X0019657Y0002586D01*
X0019398D02*
X0019481Y0002419D01*
X0019259Y0002586D02*
X0019425D01*
X0019481Y0002642D01*
Y0002697D01*
X0019425Y0002753D01*
X0019259D01*
Y0002419D01*
X0005135Y0017293D02*
X0005079Y0017237D01*
X0005023Y0017210D01*
X0004912D01*
X0004857Y0017237D01*
X0004801Y0017293D01*
Y0017349D01*
X0004857Y0017404D01*
X0004912Y0017432D01*
X0005023D01*
X0005079Y0017404D01*
X0005135Y0017349D01*
Y0017293D01*
X0004968Y0016867D02*
Y0017034D01*
X0005023Y0017062D01*
X0005079D01*
X0005135Y0017034D01*
Y0016867D01*
X0005079Y0016840D01*
X0005023D01*
X0004801Y0016951D01*
X0004968Y0016609D02*
X0005135Y0016692D01*
X0004968Y0016470D02*
Y0016636D01*
X0004912Y0016692D01*
X0004857D01*
X0004801Y0016636D01*
Y0016470D01*
X0005135D01*
X0013204Y0004953D02*
X0013259Y0004926D01*
X0013315D01*
X0013371Y0004953D01*
Y0005120D01*
X0013315Y0005148D01*
X0013259D01*
X0013204Y0005120D01*
Y0004953D01*
X0013148Y0004926D01*
X0013093D01*
X0013037Y0004953D01*
Y0005120D01*
X0013093Y0005148D01*
X0013148D01*
X0013204Y0005120D01*
X0013037Y0005296D02*
Y0005407D01*
Y0005351D02*
X0013371D01*
X0013315Y0005407D01*
X0013093Y0005610D02*
X0013037Y0005638D01*
Y0005804D01*
X0013093Y0005832D01*
X0013315D01*
X0013371Y0005804D01*
Y0005638D01*
X0013315Y0005610D01*
X0022163Y0015660D02*
X0022107Y0015715D01*
X0021996D01*
X0021941Y0015660D01*
Y0015604D01*
X0022052Y0015493D01*
X0021941Y0015382D01*
X0022163D01*
X0022311Y0015604D02*
X0022533D01*
X0022422Y0015382D01*
X0022366D01*
Y0015715D01*
X0022764Y0015549D02*
X0022681Y0015715D01*
X0022903Y0015549D02*
X0022736D01*
X0022681Y0015493D01*
Y0015437D01*
X0022736Y0015382D01*
X0022903D01*
Y0015715D01*
X0020675Y0010956D02*
X0020786D01*
X0020730D02*
Y0010623D01*
X0020786Y0010678D01*
X0021073Y0010789D02*
X0020989Y0010956D01*
X0021212Y0010789D02*
X0021045D01*
X0020989Y0010734D01*
Y0010678D01*
X0021045Y0010623D01*
X0021212D01*
Y0010956D01*
X0014581Y0002878D02*
Y0002711D01*
X0014525Y0002684D01*
X0014469D01*
X0014414Y0002711D01*
Y0002878D01*
X0014469Y0002906D01*
X0014525D01*
X0014747Y0002795D01*
X0014414Y0003054D02*
Y0003165D01*
Y0003109D02*
X0014747D01*
X0014692Y0003165D01*
X0014469Y0003368D02*
X0014414Y0003396D01*
Y0003562D01*
X0014469Y0003590D01*
X0014692D01*
X0014747Y0003562D01*
Y0003396D01*
X0014692Y0003368D01*
X-0001935Y0016137D02*
X-0001990Y0016192D01*
X-0002018Y0016248D01*
Y0016359D01*
X-0001990Y0016415D01*
X-0001935Y0016470D01*
X-0001879D01*
X-0001823Y0016415D01*
X-0001796Y0016359D01*
Y0016248D01*
X-0001823Y0016192D01*
X-0001879Y0016137D01*
X-0001935D01*
X-0002332D02*
X-0002166Y0016470D01*
X-0002388D01*
X-0002619Y0016304D02*
X-0002536Y0016137D01*
X-0002758Y0016304D02*
X-0002591D01*
X-0002536Y0016359D01*
Y0016415D01*
X-0002591Y0016470D01*
X-0002758D01*
Y0016137D01*
X0008950Y0010641D02*
X0008784Y0010308D01*
X0009006D01*
X0009154Y0010641D02*
X0009376D01*
X0009154Y0010419D01*
Y0010363D01*
X0009181Y0010308D01*
X0009348D01*
X0009376Y0010363D01*
X0009607Y0010475D02*
X0009524Y0010641D01*
X0009746Y0010475D02*
X0009579D01*
X0009524Y0010419D01*
Y0010363D01*
X0009579Y0010308D01*
X0009746D01*
Y0010641D01*
X0027681Y0002547D02*
X0027847D01*
X0027875Y0002491D01*
Y0002436D01*
X0027847Y0002380D01*
X0027681D01*
X0027653Y0002436D01*
Y0002491D01*
X0027764Y0002713D01*
X0027505Y0002436D02*
X0027477Y0002380D01*
X0027311D01*
X0027283Y0002436D01*
Y0002658D01*
X0027311Y0002713D01*
X0027477D01*
X0027505Y0002658D01*
X0015211Y0004043D02*
Y0003820D01*
X0014989Y0003931D01*
Y0003987D01*
X0015322D01*
X0015266Y0003673D02*
X0015322Y0003645D01*
Y0003478D01*
X0015266Y0003450D01*
X0015044D01*
X0014989Y0003478D01*
Y0003645D01*
X0015044Y0003673D01*
X0011975Y0016298D02*
X0012031Y0016353D01*
X0012086Y0016381D01*
X0012197D01*
X0012253Y0016353D01*
X0012309Y0016298D01*
Y0016242D01*
X0012253Y0016186D01*
X0012197Y0016159D01*
X0012086D01*
X0012031Y0016186D01*
X0011975Y0016242D01*
Y0016298D01*
X0012086Y0016529D02*
Y0016751D01*
X0012309Y0016640D01*
Y0016584D01*
X0011975D01*
X0012142Y0016982D02*
X0011975Y0016899D01*
X0012142Y0017121D02*
Y0016954D01*
X0012197Y0016899D01*
X0012253D01*
X0012309Y0016954D01*
Y0017121D01*
X0011975D01*
X0006393Y0014561D02*
Y0014338D01*
X0006171Y0014561D01*
X0006115D01*
X0006060Y0014533D01*
Y0014366D01*
X0006115Y0014338D01*
X0006393Y0014024D02*
X0006060Y0014191D01*
Y0013968D01*
X0006227Y0013737D02*
X0006393Y0013821D01*
X0006227Y0013598D02*
Y0013765D01*
X0006171Y0013821D01*
X0006115D01*
X0006060Y0013765D01*
Y0013598D01*
X0006393D01*
X0026803Y0017497D02*
X0026831Y0017552D01*
Y0017608D01*
X0026803Y0017664D01*
X0026637D01*
X0026609Y0017608D01*
Y0017552D01*
X0026637Y0017497D01*
X0026803D01*
X0026831Y0017441D01*
Y0017386D01*
X0026803Y0017330D01*
X0026637D01*
X0026609Y0017386D01*
Y0017441D01*
X0026637Y0017497D01*
X0026461Y0017330D02*
X0026239D01*
X0026461Y0017552D01*
Y0017608D01*
X0026433Y0017664D01*
X0026267D01*
X0026239Y0017608D01*
X0026091Y0017386D02*
X0026063Y0017330D01*
X0025897D01*
X0025869Y0017386D01*
Y0017608D01*
X0025897Y0017664D01*
X0026063D01*
X0026091Y0017608D01*
X0022840Y0005094D02*
X0022618D01*
X0022840Y0005316D01*
Y0005372D01*
X0022812Y0005427D01*
X0022646D01*
X0022618Y0005372D01*
X0022470Y0005094D02*
X0022359D01*
X0022415D02*
Y0005427D01*
X0022359Y0005372D01*
X0022156Y0005150D02*
X0022128Y0005094D01*
X0021961D01*
X0021933Y0005150D01*
Y0005372D01*
X0021961Y0005427D01*
X0022128D01*
X0022156Y0005372D01*
X0024643Y-0000730D02*
X0024698Y-0000675D01*
X0024754Y-0000647D01*
X0024865D01*
X0024921Y-0000675D01*
X0024976Y-0000730D01*
Y-0000786D01*
X0024921Y-0000841D01*
X0024865Y-0000869D01*
X0024754D01*
X0024698Y-0000841D01*
X0024643Y-0000786D01*
Y-0000730D01*
Y-0000499D02*
Y-0000277D01*
X0024865Y-0000499D01*
X0024921D01*
X0024976Y-0000471D01*
Y-0000305D01*
X0024921Y-0000277D01*
X0024809Y-0000046D02*
X0024643Y-0000129D01*
X0024809Y0000093D02*
Y-0000073D01*
X0024865Y-0000129D01*
X0024921D01*
X0024976Y-0000073D01*
Y0000093D01*
X0024643D01*
X0010088Y-0002175D02*
X0010116Y-0002120D01*
Y-0002064D01*
X0010088Y-0002009D01*
X0009921D01*
X0009894Y-0002064D01*
Y-0002120D01*
X0009921Y-0002175D01*
X0010088D01*
X0010116Y-0002231D01*
Y-0002286D01*
X0010088Y-0002342D01*
X0009921D01*
X0009894Y-0002286D01*
Y-0002231D01*
X0009921Y-0002175D01*
X0009524Y-0002286D02*
X0009579Y-0002342D01*
X0009690D01*
X0009746Y-0002286D01*
Y-0002231D01*
X0009635Y-0002120D01*
X0009746Y-0002009D01*
X0009524D01*
X0009293Y-0002175D02*
X0009376Y-0002342D01*
X0009154Y-0002175D02*
X0009320D01*
X0009376Y-0002120D01*
Y-0002064D01*
X0009320Y-0002009D01*
X0009154D01*
Y-0002342D01*
X0029143Y0004103D02*
X0029115Y0004047D01*
Y0003991D01*
X0029143Y0003936D01*
X0029310D01*
X0029338Y0003991D01*
Y0004047D01*
X0029310Y0004103D01*
X0029143D01*
X0029115Y0004158D01*
Y0004214D01*
X0029143Y0004269D01*
X0029310D01*
X0029338Y0004214D01*
Y0004158D01*
X0029310Y0004103D01*
X0029485Y0004214D02*
X0029513Y0004269D01*
X0029680D01*
X0029708Y0004214D01*
Y0003991D01*
X0029680Y0003936D01*
X0029513D01*
X0029485Y0003991D01*
X0028216Y0007491D02*
X0028105D01*
X0028160D02*
Y0007825D01*
X0028105Y0007769D01*
X0027902Y0007491D02*
X0027791D01*
X0027846D02*
Y0007825D01*
X0027791Y0007769D01*
X0027504Y0007658D02*
X0027587Y0007491D01*
X0027365Y0007658D02*
X0027532D01*
X0027587Y0007713D01*
Y0007769D01*
X0027532Y0007825D01*
X0027365D01*
Y0007491D01*
X0029493Y0012653D02*
X0029660D01*
X0029688Y0012598D01*
Y0012542D01*
X0029660Y0012487D01*
X0029493D01*
X0029466Y0012542D01*
Y0012598D01*
X0029577Y0012820D01*
X0029235Y0012653D02*
X0029318Y0012487D01*
X0029096Y0012653D02*
X0029262D01*
X0029318Y0012709D01*
Y0012764D01*
X0029262Y0012820D01*
X0029096D01*
Y0012487D01*
X0012299Y0019058D02*
Y0019224D01*
X0012355Y0019252D01*
X0012410D01*
X0012466Y0019224D01*
Y0019058D01*
X0012410Y0019030D01*
X0012355D01*
X0012133Y0019141D01*
X0012188Y0019622D02*
X0012133Y0019567D01*
Y0019456D01*
X0012188Y0019400D01*
X0012244D01*
X0012355Y0019511D01*
X0012466Y0019400D01*
Y0019622D01*
X0012299Y0019853D02*
X0012133Y0019770D01*
X0012299Y0019992D02*
Y0019826D01*
X0012355Y0019770D01*
X0012410D01*
X0012466Y0019826D01*
Y0019992D01*
X0012133D01*
X0019620Y0017643D02*
X0019509D01*
X0019565D02*
Y0017976D01*
X0019509Y0017921D01*
X0019084Y0017698D02*
X0019112Y0017643D01*
X0019278D01*
X0019306Y0017698D01*
Y0017809D01*
X0019250Y0017865D01*
X0019084D01*
Y0017976D01*
X0019306D01*
X0018853Y0017809D02*
X0018936Y0017643D01*
X0018714Y0017809D02*
X0018880D01*
X0018936Y0017865D01*
Y0017921D01*
X0018880Y0017976D01*
X0018714D01*
Y0017643D01*
X0003766Y0019779D02*
Y0019612D01*
X0003711Y0019584D01*
X0003655D01*
X0003599Y0019612D01*
Y0019779D01*
X0003655Y0019806D01*
X0003711D01*
X0003933Y0019695D01*
X0003766Y0020149D02*
Y0019982D01*
X0003711Y0019954D01*
X0003655D01*
X0003599Y0019982D01*
Y0020149D01*
X0003655Y0020176D01*
X0003711D01*
X0003933Y0020065D01*
X0003766Y0020407D02*
X0003599Y0020324D01*
X0003766Y0020546D02*
Y0020380D01*
X0003822Y0020324D01*
X0003877D01*
X0003933Y0020380D01*
Y0020546D01*
X0003599D01*
X0009573Y0024770D02*
X0009601Y0024826D01*
Y0024881D01*
X0009573Y0024937D01*
X0009407D01*
X0009379Y0024881D01*
Y0024826D01*
X0009407Y0024770D01*
X0009573D01*
X0009601Y0024715D01*
Y0024659D01*
X0009573Y0024603D01*
X0009407D01*
X0009379Y0024659D01*
Y0024715D01*
X0009407Y0024770D01*
X0009037D02*
X0009203D01*
X0009231Y0024715D01*
Y0024659D01*
X0009203Y0024603D01*
X0009037D01*
X0009009Y0024659D01*
Y0024715D01*
X0009120Y0024937D01*
X0008778Y0024770D02*
X0008861Y0024603D01*
X0008639Y0024770D02*
X0008805D01*
X0008861Y0024826D01*
Y0024881D01*
X0008805Y0024937D01*
X0008639D01*
Y0024603D01*
X0028042Y0005873D02*
X0028208D01*
X0028236Y0005817D01*
Y0005761D01*
X0028208Y0005706D01*
X0028042D01*
X0028014Y0005761D01*
Y0005817D01*
X0028125Y0006039D01*
X0028384Y0005984D02*
X0028412Y0006039D01*
X0028578D01*
X0028606Y0005984D01*
Y0005761D01*
X0028578Y0005706D01*
X0028412D01*
X0028384Y0005761D01*
X0024946Y0009933D02*
X0025169D01*
X0024946Y0009711D01*
Y0009655D01*
X0024974Y0009600D01*
X0025141D01*
X0025169Y0009655D01*
X0025316Y0009933D02*
X0025427D01*
X0025372D02*
Y0009600D01*
X0025427Y0009655D01*
X0025714Y0009767D02*
X0025631Y0009933D01*
X0025853Y0009767D02*
X0025686D01*
X0025631Y0009711D01*
Y0009655D01*
X0025686Y0009600D01*
X0025853D01*
Y0009933D01*
X0007948Y0024719D02*
X0008004Y0024774D01*
Y0024885D01*
X0007948Y0024941D01*
X0007893D01*
X0007782Y0024830D01*
X0007670Y0024941D01*
Y0024719D01*
X0007837Y0024377D02*
Y0024543D01*
X0007893Y0024571D01*
X0007948D01*
X0008004Y0024543D01*
Y0024377D01*
X0007948Y0024349D01*
X0007893D01*
X0007670Y0024460D01*
X0007837Y0024118D02*
X0008004Y0024201D01*
X0007837Y0023979D02*
Y0024145D01*
X0007782Y0024201D01*
X0007726D01*
X0007670Y0024145D01*
Y0023979D01*
X0008004D01*
X0019619Y0006390D02*
X0019396D01*
X0019619Y0006612D01*
Y0006668D01*
X0019591Y0006723D01*
X0019424D01*
X0019396Y0006668D01*
X0019249Y0006445D02*
X0019221Y0006390D01*
X0019054D01*
X0019026Y0006445D01*
Y0006668D01*
X0019054Y0006723D01*
X0019221D01*
X0019249Y0006668D01*
X-0000533Y0005346D02*
X-0000477Y0005291D01*
X-0000366D01*
X-0000311Y0005346D01*
Y0005402D01*
X-0000422Y0005513D01*
X-0000311Y0005624D01*
X-0000533D01*
X-0000681Y0005291D02*
X-0000903D01*
X-0000681Y0005513D01*
Y0005569D01*
X-0000709Y0005624D01*
X-0000875D01*
X-0000903Y0005569D01*
X-0001134Y0005457D02*
X-0001051Y0005291D01*
X-0001273Y0005457D02*
X-0001106D01*
X-0001051Y0005513D01*
Y0005569D01*
X-0001106Y0005624D01*
X-0001273D01*
Y0005291D01*
X0009038Y0022910D02*
X0008927D01*
X0008982D02*
Y0023243D01*
X0008927Y0023188D01*
X0008529Y0023077D02*
X0008695D01*
X0008723Y0023021D01*
Y0022965D01*
X0008695Y0022910D01*
X0008529D01*
X0008501Y0022965D01*
Y0023021D01*
X0008612Y0023243D01*
X0008270Y0023077D02*
X0008353Y0022910D01*
X0008131Y0023077D02*
X0008298D01*
X0008353Y0023132D01*
Y0023188D01*
X0008298Y0023243D01*
X0008131D01*
Y0022910D01*
X0017671Y0006313D02*
X0017560D01*
X0017616D02*
Y0006647D01*
X0017560Y0006591D01*
X0017357Y0006369D02*
X0017329Y0006313D01*
X0017163D01*
X0017135Y0006369D01*
Y0006591D01*
X0017163Y0006647D01*
X0017329D01*
X0017357Y0006591D01*
X0016492Y0015962D02*
Y0016184D01*
X0016714Y0016073D01*
Y0016018D01*
X0016381D01*
X0016492Y0016332D02*
Y0016554D01*
X0016714Y0016443D01*
Y0016388D01*
X0016381D01*
X0016547Y0016785D02*
X0016381Y0016702D01*
X0016547Y0016924D02*
Y0016758D01*
X0016603Y0016702D01*
X0016658D01*
X0016714Y0016758D01*
Y0016924D01*
X0016381D01*
X0021458Y0025797D02*
X0021513Y0025742D01*
X0021624D01*
X0021680Y0025797D01*
Y0025853D01*
X0021569Y0025964D01*
X0021680Y0026075D01*
X0021458D01*
X0021310Y0025742D02*
X0021088D01*
X0021310Y0025964D01*
Y0026020D01*
X0021282Y0026075D01*
X0021115D01*
X0021088Y0026020D01*
X0020940Y0025797D02*
X0020912Y0025742D01*
X0020745D01*
X0020718Y0025797D01*
Y0026020D01*
X0020745Y0026075D01*
X0020912D01*
X0020940Y0026020D01*
X0029125Y0001749D02*
X0029458Y0001582D01*
Y0001804D01*
X0029291Y0002035D02*
X0029125Y0001952D01*
X0029291Y0002174D02*
Y0002008D01*
X0029347Y0001952D01*
X0029402D01*
X0029458Y0002008D01*
Y0002174D01*
X0029125D01*
X-0002230Y0012291D02*
X-0002285Y0012319D01*
X-0002341D01*
X-0002397Y0012291D01*
Y0012124D01*
X-0002341Y0012096D01*
X-0002285D01*
X-0002230Y0012124D01*
Y0012291D01*
X-0002174Y0012319D01*
X-0002119D01*
X-0002063Y0012291D01*
Y0012124D01*
X-0002119Y0012096D01*
X-0002174D01*
X-0002230Y0012124D01*
X-0002119Y0011726D02*
X-0002063Y0011754D01*
Y0011921D01*
X-0002119Y0011949D01*
X-0002230D01*
X-0002285Y0011893D01*
Y0011726D01*
X-0002397D01*
Y0011949D01*
X-0002230Y0011495D02*
X-0002063Y0011579D01*
X-0002230Y0011356D02*
Y0011523D01*
X-0002285Y0011579D01*
X-0002341D01*
X-0002397Y0011523D01*
Y0011356D01*
X-0002063D01*
X0025978Y0023294D02*
Y0023405D01*
Y0023350D02*
X0026311D01*
X0026256Y0023405D01*
X0026033Y0023831D02*
X0025978Y0023775D01*
Y0023664D01*
X0026033Y0023609D01*
X0026089D01*
X0026200Y0023720D01*
X0026311Y0023609D01*
Y0023831D01*
X0026033Y0023979D02*
X0025978Y0024006D01*
Y0024173D01*
X0026033Y0024201D01*
X0026256D01*
X0026311Y0024173D01*
Y0024006D01*
X0026256Y0023979D01*
X0023843Y0025892D02*
X0023621D01*
X0023732Y0026115D01*
X0023788D01*
Y0025781D01*
X0023473D02*
X0023251D01*
X0023473Y0026003D01*
Y0026059D01*
X0023445Y0026115D01*
X0023279D01*
X0023251Y0026059D01*
X0023103Y0025837D02*
X0023075Y0025781D01*
X0022909D01*
X0022881Y0025837D01*
Y0026059D01*
X0022909Y0026115D01*
X0023075D01*
X0023103Y0026059D01*
X0005369Y0021993D02*
X0005703Y0021826D01*
Y0022048D01*
X0005425Y0022418D02*
X0005369Y0022363D01*
Y0022252D01*
X0005425Y0022196D01*
X0005481D01*
X0005592Y0022307D01*
X0005703Y0022196D01*
Y0022418D01*
X0005425Y0022566D02*
X0005369Y0022594D01*
Y0022761D01*
X0005425Y0022788D01*
X0005647D01*
X0005703Y0022761D01*
Y0022594D01*
X0005647Y0022566D01*
X0026156Y0001406D02*
X0025989D01*
X0025961Y0001462D01*
Y0001517D01*
X0025989Y0001573D01*
X0026156D01*
X0026184Y0001517D01*
Y0001462D01*
X0026073Y0001239D01*
X0025730Y0001406D02*
X0025814Y0001239D01*
X0025591Y0001406D02*
X0025758D01*
X0025814Y0001462D01*
Y0001517D01*
X0025758Y0001573D01*
X0025591D01*
Y0001239D01*
X0010726Y0024289D02*
X0010781Y0024261D01*
X0010837D01*
X0010893Y0024289D01*
Y0024456D01*
X0010837Y0024484D01*
X0010781D01*
X0010726Y0024456D01*
Y0024289D01*
X0010670Y0024261D01*
X0010615D01*
X0010559Y0024289D01*
Y0024456D01*
X0010615Y0024484D01*
X0010670D01*
X0010726Y0024456D01*
X0010615Y0024854D02*
X0010559Y0024798D01*
Y0024687D01*
X0010615Y0024631D01*
X0010670D01*
X0010781Y0024742D01*
X0010893Y0024631D01*
Y0024854D01*
X0010615Y0025001D02*
X0010559Y0025029D01*
Y0025196D01*
X0010615Y0025224D01*
X0010837D01*
X0010893Y0025196D01*
Y0025029D01*
X0010837Y0025001D01*
X-0000289Y0004448D02*
Y0004226D01*
X-0000511Y0004337D01*
Y0004393D01*
X-0000177D01*
Y0004078D02*
Y0003856D01*
X-0000400Y0004078D01*
X-0000455D01*
X-0000511Y0004051D01*
Y0003884D01*
X-0000455Y0003856D01*
X-0000344Y0003625D02*
X-0000177Y0003708D01*
X-0000344Y0003486D02*
Y0003653D01*
X-0000400Y0003708D01*
X-0000455D01*
X-0000511Y0003653D01*
Y0003486D01*
X-0000177D01*
X0021447Y0005330D02*
X0021336D01*
X0021392D02*
Y0005663D01*
X0021336Y0005608D01*
X0021133Y0005330D02*
X0021022D01*
X0021077D02*
Y0005663D01*
X0021022Y0005608D01*
X0020818Y0005386D02*
X0020791Y0005330D01*
X0020624D01*
X0020596Y0005386D01*
Y0005608D01*
X0020624Y0005663D01*
X0020791D01*
X0020818Y0005608D01*
X0004321Y-0000783D02*
X0004098D01*
X0004209Y-0000561D01*
X0004265D01*
Y-0000894D01*
X0003728Y-0000839D02*
X0003784Y-0000894D01*
X0003895D01*
X0003951Y-0000839D01*
Y-0000783D01*
X0003839Y-0000672D01*
X0003951Y-0000561D01*
X0003728D01*
X0003497Y-0000728D02*
X0003581Y-0000894D01*
X0003358Y-0000728D02*
X0003525D01*
X0003581Y-0000672D01*
Y-0000616D01*
X0003525Y-0000561D01*
X0003358D01*
Y-0000894D01*
X-0003994Y0015381D02*
X-0003661Y0015215D01*
Y0015437D01*
X-0003938Y0015807D02*
X-0003994Y0015779D01*
Y0015612D01*
X-0003938Y0015585D01*
X-0003827D01*
X-0003772Y0015640D01*
Y0015807D01*
X-0003661D01*
Y0015585D01*
X-0003827Y0016038D02*
X-0003994Y0015955D01*
X-0003827Y0016177D02*
Y0016010D01*
X-0003772Y0015955D01*
X-0003716D01*
X-0003661Y0016010D01*
Y0016177D01*
X-0003994D01*
X0009380Y0018042D02*
X0009213D01*
X0009186Y0018097D01*
Y0018153D01*
X0009213Y0018209D01*
X0009380D01*
X0009408Y0018153D01*
Y0018097D01*
X0009297Y0017875D01*
X0008843Y0018042D02*
X0009010D01*
X0009038Y0017986D01*
Y0017931D01*
X0009010Y0017875D01*
X0008843D01*
X0008816Y0017931D01*
Y0017986D01*
X0008927Y0018209D01*
X0008585Y0018042D02*
X0008668Y0017875D01*
X0008446Y0018042D02*
X0008612D01*
X0008668Y0018097D01*
Y0018153D01*
X0008612Y0018209D01*
X0008446D01*
Y0017875D01*
X0016659Y0008101D02*
Y0008324D01*
X0016881Y0008213D01*
Y0008157D01*
X0016548D01*
X0016714Y0008555D02*
X0016548Y0008471D01*
X0016714Y0008694D02*
Y0008527D01*
X0016770Y0008471D01*
X0016826D01*
X0016881Y0008527D01*
Y0008694D01*
X0016548D01*
X0006468Y0004111D02*
Y0003944D01*
X0006413Y0003916D01*
X0006357D01*
X0006301Y0003944D01*
Y0004111D01*
X0006357Y0004138D01*
X0006413D01*
X0006635Y0004027D01*
X0006357Y0004508D02*
X0006301Y0004453D01*
Y0004342D01*
X0006357Y0004286D01*
X0006413D01*
X0006524Y0004397D01*
X0006635Y0004286D01*
Y0004508D01*
X0006468Y0004739D02*
X0006301Y0004656D01*
X0006468Y0004878D02*
Y0004712D01*
X0006524Y0004656D01*
X0006579D01*
X0006635Y0004712D01*
Y0004878D01*
X0006301D01*
X0019554Y0024211D02*
X0019609Y0024239D01*
Y0024405D01*
X0019554Y0024433D01*
X0019443D01*
X0019387Y0024378D01*
Y0024211D01*
X0019276D01*
Y0024433D01*
X0019609Y0024063D02*
Y0023841D01*
X0019387Y0024063D01*
X0019331D01*
X0019276Y0024035D01*
Y0023869D01*
X0019331Y0023841D01*
X0019554Y0023693D02*
X0019609Y0023665D01*
Y0023499D01*
X0019554Y0023471D01*
X0019331D01*
X0019276Y0023499D01*
Y0023665D01*
X0019331Y0023693D01*
X0024819Y0020829D02*
X0024986Y0021162D01*
X0024764D01*
X0024616Y0020829D02*
X0024394D01*
X0024616Y0021051D01*
Y0021107D01*
X0024588Y0021162D01*
X0024422D01*
X0024394Y0021107D01*
X0024246Y0020884D02*
X0024218Y0020829D01*
X0024052D01*
X0024024Y0020884D01*
Y0021107D01*
X0024052Y0021162D01*
X0024218D01*
X0024246Y0021107D01*
X0001539Y0005619D02*
X0001594Y0005564D01*
X0001705D01*
X0001761Y0005619D01*
Y0005675D01*
X0001650Y0005786D01*
X0001761Y0005897D01*
X0001539D01*
X0001391Y0005564D02*
X0001280D01*
X0001335D02*
Y0005897D01*
X0001280Y0005842D01*
X0001077Y0005619D02*
X0001049Y0005564D01*
X0000882D01*
X0000854Y0005619D01*
Y0005842D01*
X0000882Y0005897D01*
X0001049D01*
X0001077Y0005842D01*
X0026803Y0018480D02*
X0026637D01*
X0026609Y0018536D01*
Y0018591D01*
X0026637Y0018647D01*
X0026803D01*
X0026831Y0018591D01*
Y0018536D01*
X0026720Y0018314D01*
X0026461D02*
X0026239D01*
X0026461Y0018536D01*
Y0018591D01*
X0026433Y0018647D01*
X0026267D01*
X0026239Y0018591D01*
X0026091Y0018369D02*
X0026063Y0018314D01*
X0025897D01*
X0025869Y0018369D01*
Y0018591D01*
X0025897Y0018647D01*
X0026063D01*
X0026091Y0018591D01*
X0016443Y0006369D02*
X0016471Y0006313D01*
X0016637D01*
X0016665Y0006369D01*
Y0006480D01*
X0016609Y0006536D01*
X0016443D01*
Y0006647D01*
X0016665D01*
X0016212Y0006480D02*
X0016295Y0006313D01*
X0016073Y0006480D02*
X0016239D01*
X0016295Y0006536D01*
Y0006591D01*
X0016239Y0006647D01*
X0016073D01*
Y0006313D01*
X0027633Y0019111D02*
X0027661Y0019055D01*
X0027827D01*
X0027855Y0019111D01*
Y0019222D01*
X0027800Y0019277D01*
X0027633D01*
Y0019389D01*
X0027855D01*
X0027485Y0019166D02*
X0027263D01*
X0027374Y0019389D01*
X0027430D01*
Y0019055D01*
X0027032Y0019222D02*
X0027115Y0019055D01*
X0026893Y0019222D02*
X0027060D01*
X0027115Y0019277D01*
Y0019333D01*
X0027060Y0019389D01*
X0026893D01*
Y0019055D01*
X0004226Y0012064D02*
X0004003D01*
X0004226Y0012286D01*
Y0012342D01*
X0004198Y0012397D01*
X0004031D01*
X0004003Y0012342D01*
X0003661Y0012230D02*
X0003828D01*
X0003856Y0012175D01*
Y0012119D01*
X0003828Y0012064D01*
X0003661D01*
X0003633Y0012119D01*
Y0012175D01*
X0003745Y0012397D01*
X0003402Y0012230D02*
X0003486Y0012064D01*
X0003263Y0012230D02*
X0003430D01*
X0003486Y0012286D01*
Y0012342D01*
X0003430Y0012397D01*
X0003263D01*
Y0012064D01*
X0008746Y0008242D02*
X0008801Y0008186D01*
X0008829Y0008131D01*
Y0008020D01*
X0008801Y0007964D01*
X0008746Y0007909D01*
X0008690D01*
X0008634Y0007964D01*
X0008607Y0008020D01*
Y0008131D01*
X0008634Y0008186D01*
X0008690Y0008242D01*
X0008746D01*
X0009199Y0008186D02*
X0009143Y0008242D01*
X0009032D01*
X0008977Y0008186D01*
Y0008131D01*
X0009088Y0008020D01*
X0008977Y0007909D01*
X0009199D01*
X0009430Y0008075D02*
X0009347Y0008242D01*
X0009569Y0008075D02*
X0009402D01*
X0009347Y0008020D01*
Y0007964D01*
X0009402Y0007909D01*
X0009569D01*
Y0008242D01*
X0014453Y0000014D02*
X0014509Y0000069D01*
X0014564Y0000097D01*
X0014675D01*
X0014731Y0000069D01*
X0014787Y0000014D01*
Y-0000042D01*
X0014731Y-0000097D01*
X0014675Y-0000125D01*
X0014564D01*
X0014509Y-0000097D01*
X0014453Y-0000042D01*
Y0000014D01*
Y0000245D02*
Y0000467D01*
X0014675Y0000245D01*
X0014731D01*
X0014787Y0000272D01*
Y0000439D01*
X0014731Y0000467D01*
X0014509Y0000615D02*
X0014453Y0000642D01*
Y0000809D01*
X0014509Y0000837D01*
X0014731D01*
X0014787Y0000809D01*
Y0000642D01*
X0014731Y0000615D01*
X0016591Y0019727D02*
X0016814D01*
X0016591Y0019505D01*
Y0019449D01*
X0016619Y0019394D01*
X0016786D01*
X0016814Y0019449D01*
X0017184Y0019672D02*
X0017128Y0019727D01*
X0017017D01*
X0016961Y0019672D01*
Y0019616D01*
X0017072Y0019505D01*
X0016961Y0019394D01*
X0017184D01*
X0017331Y0019672D02*
X0017359Y0019727D01*
X0017526D01*
X0017554Y0019672D01*
Y0019449D01*
X0017526Y0019394D01*
X0017359D01*
X0017331Y0019449D01*
X0011804Y0004622D02*
X0011581D01*
X0011804Y0004844D01*
Y0004900D01*
X0011776Y0004955D01*
X0011609D01*
X0011581Y0004900D01*
X0011211Y0004678D02*
X0011267Y0004622D01*
X0011378D01*
X0011434Y0004678D01*
Y0004733D01*
X0011323Y0004844D01*
X0011434Y0004955D01*
X0011211D01*
X0010980Y0004789D02*
X0011064Y0004622D01*
X0010841Y0004789D02*
X0011008D01*
X0011064Y0004844D01*
Y0004900D01*
X0011008Y0004955D01*
X0010841D01*
Y0004622D01*
X0005730Y0002734D02*
X0005619D01*
X0005675D02*
Y0003067D01*
X0005619Y0003012D01*
X0005416Y0002734D02*
X0005193D01*
X0005416Y0002956D01*
Y0003012D01*
X0005388Y0003067D01*
X0005221D01*
X0005193Y0003012D01*
X0005046Y0002790D02*
X0005018Y0002734D01*
X0004851D01*
X0004823Y0002790D01*
Y0003012D01*
X0004851Y0003067D01*
X0005018D01*
X0005046Y0003012D01*
X0008000Y0002861D02*
X0007833D01*
X0007805Y0002917D01*
Y0002973D01*
X0007833Y0003028D01*
X0008000D01*
X0008028Y0002973D01*
Y0002917D01*
X0007917Y0002695D01*
X0007658D02*
X0007435D01*
X0007658Y0002917D01*
Y0002973D01*
X0007630Y0003028D01*
X0007463D01*
X0007435Y0002973D01*
X0007204Y0002861D02*
X0007288Y0002695D01*
X0007065Y0002861D02*
X0007232D01*
X0007288Y0002917D01*
Y0002973D01*
X0007232Y0003028D01*
X0007065D01*
Y0002695D01*
X0016648Y0020505D02*
X0016481D01*
X0016454Y0020560D01*
Y0020616D01*
X0016481Y0020671D01*
X0016648D01*
X0016676Y0020616D01*
Y0020560D01*
X0016565Y0020338D01*
X0017046Y0020616D02*
X0017018Y0020671D01*
X0016851D01*
X0016824Y0020616D01*
Y0020505D01*
X0016879Y0020449D01*
X0017046D01*
Y0020338D01*
X0016824D01*
X0017277Y0020505D02*
X0017194Y0020671D01*
X0017416Y0020505D02*
X0017249D01*
X0017194Y0020449D01*
Y0020393D01*
X0017249Y0020338D01*
X0017416D01*
Y0020671D01*
X0003419Y0014457D02*
X0003363Y0014401D01*
Y0014290D01*
X0003419Y0014235D01*
X0003475D01*
X0003586Y0014346D01*
X0003697Y0014235D01*
Y0014457D01*
X0003419Y0014827D02*
X0003363Y0014771D01*
Y0014660D01*
X0003419Y0014605D01*
X0003475D01*
X0003586Y0014716D01*
X0003697Y0014605D01*
Y0014827D01*
X0003419Y0014975D02*
X0003363Y0015003D01*
Y0015169D01*
X0003419Y0015197D01*
X0003641D01*
X0003697Y0015169D01*
Y0015003D01*
X0003641Y0014975D01*
X0009998Y-0001398D02*
X0009776D01*
X0009998Y-0001176D01*
Y-0001120D01*
X0009970Y-0001065D01*
X0009803D01*
X0009776Y-0001120D01*
X0009628Y-0001398D02*
X0009406D01*
X0009628Y-0001176D01*
Y-0001120D01*
X0009600Y-0001065D01*
X0009433D01*
X0009406Y-0001120D01*
X0009258Y-0001342D02*
X0009230Y-0001398D01*
X0009063D01*
X0009036Y-0001342D01*
Y-0001120D01*
X0009063Y-0001065D01*
X0009230D01*
X0009258Y-0001120D01*
X0013076Y0002986D02*
X0013104Y0002931D01*
X0013271D01*
X0013298Y0002986D01*
Y0003097D01*
X0013243Y0003153D01*
X0013076D01*
Y0003264D01*
X0013298D01*
X0012928Y0002931D02*
X0012706D01*
X0012928Y0003153D01*
Y0003209D01*
X0012901Y0003264D01*
X0012734D01*
X0012706Y0003209D01*
X0012475Y0003097D02*
X0012558Y0002931D01*
X0012336Y0003097D02*
X0012503D01*
X0012558Y0003153D01*
Y0003209D01*
X0012503Y0003264D01*
X0012336D01*
Y0002931D01*
X-0001906Y0008189D02*
Y0007966D01*
X-0002128Y0008189D01*
X-0002184D01*
X-0002239Y0008161D01*
Y0007994D01*
X-0002184Y0007966D01*
X-0001906Y0007819D02*
Y0007596D01*
X-0002128Y0007819D01*
X-0002184D01*
X-0002239Y0007791D01*
Y0007624D01*
X-0002184Y0007596D01*
X-0002073Y0007365D02*
X-0001906Y0007449D01*
X-0002073Y0007226D02*
Y0007393D01*
X-0002128Y0007449D01*
X-0002184D01*
X-0002239Y0007393D01*
Y0007226D01*
X-0001906D01*
X0010658Y0004513D02*
X0010492D01*
X0010464Y0004569D01*
Y0004625D01*
X0010492Y0004680D01*
X0010658D01*
X0010686Y0004625D01*
Y0004569D01*
X0010575Y0004347D01*
X0010316D02*
X0010205D01*
X0010261D02*
Y0004680D01*
X0010205Y0004625D01*
X0010002Y0004402D02*
X0009974Y0004347D01*
X0009807D01*
X0009779Y0004402D01*
Y0004625D01*
X0009807Y0004680D01*
X0009974D01*
X0010002Y0004625D01*
X0017101Y0024916D02*
X0016990D01*
X0017045D02*
Y0025249D01*
X0016990Y0025194D01*
X0016787Y0025027D02*
X0016564D01*
X0016675Y0025249D01*
X0016731D01*
Y0024916D01*
X0016333Y0025083D02*
X0016417Y0024916D01*
X0016194Y0025083D02*
X0016361D01*
X0016417Y0025138D01*
Y0025194D01*
X0016361Y0025249D01*
X0016194D01*
Y0024916D01*
X0021328Y0004286D02*
X0021273Y0004314D01*
X0021217D01*
X0021162Y0004286D01*
Y0004120D01*
X0021217Y0004092D01*
X0021273D01*
X0021328Y0004120D01*
Y0004286D01*
X0021384Y0004314D01*
X0021440D01*
X0021495Y0004286D01*
Y0004120D01*
X0021440Y0004092D01*
X0021384D01*
X0021328Y0004120D01*
X0021495Y0003944D02*
Y0003833D01*
Y0003889D02*
X0021162D01*
X0021217Y0003833D01*
X0021328Y0003546D02*
X0021495Y0003630D01*
X0021328Y0003407D02*
Y0003574D01*
X0021273Y0003630D01*
X0021217D01*
X0021162Y0003574D01*
Y0003407D01*
X0021495D01*
X0005694Y0010481D02*
X0005583D01*
X0005639D02*
Y0010814D01*
X0005583Y0010758D01*
X0005380Y0010481D02*
X0005158D01*
X0005380Y0010703D01*
Y0010758D01*
X0005352Y0010814D01*
X0005185D01*
X0005158Y0010758D01*
X0004927Y0010647D02*
X0005010Y0010481D01*
X0004788Y0010647D02*
X0004954D01*
X0005010Y0010703D01*
Y0010758D01*
X0004954Y0010814D01*
X0004788D01*
Y0010481D01*
X0005441Y0023203D02*
Y0023425D01*
X0005663Y0023314D01*
Y0023258D01*
X0005330D01*
X0005497Y0023767D02*
Y0023601D01*
X0005441Y0023573D01*
X0005386D01*
X0005330Y0023601D01*
Y0023767D01*
X0005386Y0023795D01*
X0005441D01*
X0005663Y0023684D01*
X0005497Y0024026D02*
X0005330Y0023943D01*
X0005497Y0024165D02*
Y0023998D01*
X0005552Y0023943D01*
X0005608D01*
X0005663Y0023998D01*
Y0024165D01*
X0005330D01*
X0012919Y0000233D02*
X0012974Y0000177D01*
X0013085D01*
X0013141Y0000233D01*
Y0000289D01*
X0013030Y0000400D01*
X0013141Y0000511D01*
X0012919D01*
X0012549Y0000233D02*
X0012604Y0000177D01*
X0012715D01*
X0012771Y0000233D01*
Y0000289D01*
X0012660Y0000400D01*
X0012771Y0000511D01*
X0012549D01*
X0012318Y0000344D02*
X0012401Y0000177D01*
X0012179Y0000344D02*
X0012345D01*
X0012401Y0000400D01*
Y0000455D01*
X0012345Y0000511D01*
X0012179D01*
Y0000177D01*
X0028364Y0010654D02*
X0028392Y0010599D01*
X0028559D01*
X0028587Y0010654D01*
Y0010765D01*
X0028531Y0010821D01*
X0028364D01*
Y0010932D01*
X0028587D01*
X0028217Y0010654D02*
X0028189Y0010599D01*
X0028022D01*
X0027994Y0010654D01*
Y0010876D01*
X0028022Y0010932D01*
X0028189D01*
X0028217Y0010876D01*
X0017210Y0018119D02*
X0017154Y0018063D01*
X0017099Y0018036D01*
X0016988D01*
X0016932Y0018063D01*
X0016877Y0018119D01*
Y0018175D01*
X0016932Y0018230D01*
X0016988Y0018258D01*
X0017099D01*
X0017154Y0018230D01*
X0017210Y0018175D01*
Y0018119D01*
X0017154Y0017666D02*
X0017210Y0017721D01*
Y0017832D01*
X0017154Y0017888D01*
X0017099D01*
X0016988Y0017777D01*
X0016877Y0017888D01*
Y0017666D01*
X0017154Y0017518D02*
X0017210Y0017490D01*
Y0017323D01*
X0017154Y0017296D01*
X0016932D01*
X0016877Y0017323D01*
Y0017490D01*
X0016932Y0017518D01*
X0017452Y0001147D02*
Y0000981D01*
X0017396Y0000953D01*
X0017341D01*
X0017285Y0000981D01*
Y0001147D01*
X0017341Y0001175D01*
X0017396D01*
X0017619Y0001064D01*
X0017285Y0001323D02*
Y0001434D01*
Y0001378D02*
X0017619D01*
X0017563Y0001434D01*
X0017452Y0001721D02*
X0017285Y0001637D01*
X0017452Y0001860D02*
Y0001693D01*
X0017507Y0001637D01*
X0017563D01*
X0017619Y0001693D01*
Y0001860D01*
X0017285D01*
X0008071Y0014210D02*
X0007848D01*
X0007959Y0014433D01*
X0008015D01*
Y0014099D01*
X0007534D02*
X0007701Y0014433D01*
X0007478D01*
X0007247Y0014266D02*
X0007331Y0014099D01*
X0007108Y0014266D02*
X0007275D01*
X0007331Y0014321D01*
Y0014377D01*
X0007275Y0014433D01*
X0007108D01*
Y0014099D01*
X0019605Y0025712D02*
X0019383D01*
X0019605Y0025935D01*
Y0025990D01*
X0019577Y0026046D01*
X0019411D01*
X0019383Y0025990D01*
X0019235Y0025824D02*
X0019013D01*
X0019124Y0026046D01*
X0019179D01*
Y0025712D01*
X0018782Y0025879D02*
X0018865Y0025712D01*
X0018643Y0025879D02*
X0018809D01*
X0018865Y0025935D01*
Y0025990D01*
X0018809Y0026046D01*
X0018643D01*
Y0025712D01*
X0023502Y0002000D02*
X0023558Y0002056D01*
X0023613Y0002083D01*
X0023724D01*
X0023780Y0002056D01*
X0023835Y0002000D01*
Y0001944D01*
X0023780Y0001889D01*
X0023724Y0001861D01*
X0023613D01*
X0023558Y0001889D01*
X0023502Y0001944D01*
Y0002000D01*
Y0002231D02*
Y0002342D01*
Y0002287D02*
X0023835D01*
X0023780Y0002342D01*
X0023558Y0002545D02*
X0023502Y0002573D01*
Y0002740D01*
X0023558Y0002768D01*
X0023780D01*
X0023835Y0002740D01*
Y0002573D01*
X0023780Y0002545D01*
X0026321Y0025663D02*
X0026099D01*
X0026321Y0025885D01*
Y0025941D01*
X0026293Y0025997D01*
X0026127D01*
X0026099Y0025941D01*
X0025729Y0025719D02*
X0025757Y0025663D01*
X0025923D01*
X0025951Y0025719D01*
Y0025830D01*
X0025896Y0025885D01*
X0025729D01*
Y0025997D01*
X0025951D01*
X0025498Y0025830D02*
X0025581Y0025663D01*
X0025359Y0025830D02*
X0025526D01*
X0025581Y0025885D01*
Y0025941D01*
X0025526Y0025997D01*
X0025359D01*
Y0025663D01*
X-0000676Y0013834D02*
X-0000454D01*
X-0000565Y0013612D01*
X-0000620D01*
Y0013945D01*
X-0000084Y0013890D02*
X-0000139Y0013945D01*
X-0000250D01*
X-0000306Y0013890D01*
Y0013834D01*
X-0000195Y0013723D01*
X-0000306Y0013612D01*
X-0000084D01*
X0000064Y0013890D02*
X0000092Y0013945D01*
X0000258D01*
X0000286Y0013890D01*
Y0013667D01*
X0000258Y0013612D01*
X0000092D01*
X0000064Y0013667D01*
X0005949Y0000539D02*
X0006115D01*
X0006143Y0000483D01*
Y0000427D01*
X0006115Y0000372D01*
X0005949D01*
X0005921Y0000427D01*
Y0000483D01*
X0006032Y0000705D01*
X0005773Y0000372D02*
X0005551D01*
X0005773Y0000594D01*
Y0000650D01*
X0005745Y0000705D01*
X0005579D01*
X0005551Y0000650D01*
X0005320Y0000539D02*
X0005403Y0000372D01*
X0005181Y0000539D02*
X0005348D01*
X0005403Y0000594D01*
Y0000650D01*
X0005348Y0000705D01*
X0005181D01*
Y0000372D01*
X0000705Y0016856D02*
X0000649Y0016829D01*
Y0016662D01*
X0000705Y0016634D01*
X0000816D01*
X0000872Y0016690D01*
Y0016856D01*
X0000983D01*
Y0016634D01*
X0000705Y0017226D02*
X0000649Y0017171D01*
Y0017060D01*
X0000705Y0017004D01*
X0000761D01*
X0000872Y0017115D01*
X0000983Y0017004D01*
Y0017226D01*
X0000705Y0017374D02*
X0000649Y0017402D01*
Y0017569D01*
X0000705Y0017596D01*
X0000927D01*
X0000983Y0017569D01*
Y0017402D01*
X0000927Y0017374D01*
X0023218Y0020957D02*
Y0021180D01*
X0023440Y0021068D01*
Y0021013D01*
X0023107D01*
X0023162Y0021550D02*
X0023107Y0021522D01*
Y0021355D01*
X0023162Y0021327D01*
X0023273D01*
X0023329Y0021383D01*
Y0021550D01*
X0023440D01*
Y0021327D01*
X0023273Y0021781D02*
X0023107Y0021697D01*
X0023273Y0021920D02*
Y0021753D01*
X0023329Y0021697D01*
X0023384D01*
X0023440Y0021753D01*
Y0021920D01*
X0023107D01*
X0004318Y0004928D02*
X0004095D01*
X0004206Y0005150D01*
X0004262D01*
Y0004817D01*
X0003948D02*
X0003837D01*
X0003892D02*
Y0005150D01*
X0003837Y0005094D01*
X0003633Y0004872D02*
X0003605Y0004817D01*
X0003439D01*
X0003411Y0004872D01*
Y0005094D01*
X0003439Y0005150D01*
X0003605D01*
X0003633Y0005094D01*
X0021943Y0001106D02*
X0021915Y0001162D01*
X0021749D01*
X0021721Y0001106D01*
Y0000995D01*
X0021777Y0000940D01*
X0021943D01*
Y0000829D01*
X0021721D01*
X0022091Y0001162D02*
X0022202D01*
X0022146D02*
Y0000829D01*
X0022202Y0000884D01*
X0022489Y0000995D02*
X0022405Y0001162D01*
X0022628Y0000995D02*
X0022461D01*
X0022405Y0000940D01*
Y0000884D01*
X0022461Y0000829D01*
X0022628D01*
Y0001162D01*
X-0000427Y0002443D02*
X-0000372Y0002471D01*
Y0002638D01*
X-0000427Y0002666D01*
X-0000539D01*
X-0000594Y0002610D01*
Y0002443D01*
X-0000705D01*
Y0002666D01*
X-0000372Y0002296D02*
Y0002185D01*
Y0002240D02*
X-0000705D01*
X-0000650Y0002185D01*
X-0000427Y0001981D02*
X-0000372Y0001953D01*
Y0001787D01*
X-0000427Y0001759D01*
X-0000650D01*
X-0000705Y0001787D01*
Y0001953D01*
X-0000650Y0001981D01*
X0016777Y0012067D02*
Y0011844D01*
X0016555Y0012067D01*
X0016499D01*
X0016444Y0012039D01*
Y0011872D01*
X0016499Y0011844D01*
X0016611Y0011613D02*
X0016777Y0011697D01*
X0016611Y0011474D02*
Y0011641D01*
X0016555Y0011697D01*
X0016499D01*
X0016444Y0011641D01*
Y0011474D01*
X0016777D01*
X-0000296Y0020677D02*
X-0000462D01*
X-0000490Y0020733D01*
Y0020788D01*
X-0000462Y0020844D01*
X-0000296D01*
X-0000268Y0020788D01*
Y0020733D01*
X-0000379Y0020511D01*
X-0000860Y0020566D02*
X-0000832Y0020511D01*
X-0000666D01*
X-0000638Y0020566D01*
Y0020677D01*
X-0000694Y0020733D01*
X-0000860D01*
Y0020844D01*
X-0000638D01*
X-0001091Y0020677D02*
X-0001008Y0020511D01*
X-0001230Y0020677D02*
X-0001064D01*
X-0001008Y0020733D01*
Y0020788D01*
X-0001064Y0020844D01*
X-0001230D01*
Y0020511D01*
X0025903Y0007491D02*
X0026069Y0007825D01*
X0025847D01*
X0025699Y0007547D02*
X0025671Y0007491D01*
X0025505D01*
X0025477Y0007547D01*
Y0007769D01*
X0025505Y0007825D01*
X0025671D01*
X0025699Y0007769D01*
X0027219Y0019842D02*
X0025619D01*
Y0020592D01*
X0027219D01*
Y0019842D01*
X0007532Y0005134D02*
X0009132D01*
Y0004384D01*
X0007532D01*
Y0005134D01*
X0005199Y0007870D02*
X0005499D01*
Y0008130D01*
Y0008810D02*
Y0009070D01*
X0005199D01*
Y0009120D01*
X0019213Y0001769D02*
Y0003369D01*
X0019963D01*
Y0001769D01*
X0019213D01*
X0005410Y0016324D02*
Y0014724D01*
X0004660D01*
Y0016324D01*
X0005410D01*
X0012054Y0004542D02*
Y0006142D01*
X0012804D01*
Y0004542D01*
X0012054D01*
X0023049Y0016030D02*
X0024649D01*
Y0015280D01*
X0023049D01*
Y0016030D01*
X0019941Y0011939D02*
X0021541D01*
Y0011189D01*
X0019941D01*
Y0011939D01*
X0013431Y0002300D02*
Y0003900D01*
X0014181D01*
Y0002300D01*
X0013431D01*
X-0002410Y0015487D02*
Y0017087D01*
X-0001660D01*
Y0015487D01*
X-0002410D01*
X0008397Y0010169D02*
X0009997D01*
Y0009419D01*
X0008397D01*
Y0010169D01*
X0027237Y0001750D02*
Y0003350D01*
X0027987D01*
Y0001750D01*
X0027237D01*
X0016305Y0004740D02*
Y0003140D01*
X0015555D01*
Y0004740D01*
X0016305D01*
X0012487Y0015890D02*
Y0017490D01*
X0013237D01*
Y0015890D01*
X0012487D01*
X0006550Y0016363D02*
Y0014763D01*
X0005800D01*
Y0016363D01*
X0006550D01*
X0024130Y0017918D02*
X0025730D01*
Y0017168D01*
X0024130D01*
Y0017918D01*
X0021848Y0004424D02*
Y0006024D01*
X0022598D01*
Y0004424D01*
X0021848D01*
X0023993Y0000021D02*
X0025593D01*
Y-0000729D01*
X0023993D01*
Y0000021D01*
X0011801Y-0002499D02*
X0010201D01*
Y-0001749D01*
X0011801D01*
Y-0002499D01*
X0027316Y0004623D02*
X0028916D01*
Y0003873D01*
X0027316D01*
Y0004623D01*
X0028635Y0006508D02*
X0027035D01*
Y0007258D01*
X0028635D01*
Y0006508D01*
X0030366Y0011504D02*
X0028766D01*
Y0012254D01*
X0030366D01*
Y0011504D01*
X0012644Y0018761D02*
Y0020361D01*
X0013394D01*
Y0018761D01*
X0012644D01*
X0019176Y0018605D02*
Y0017005D01*
X0018426D01*
Y0018605D01*
X0019176D01*
X0002910Y0020553D02*
X0004510D01*
Y0019803D01*
X0002910D01*
Y0020553D01*
X0017987Y0010792D02*
X0017687D01*
Y0010532D01*
Y0009852D02*
Y0009592D01*
X0017987D01*
Y0009542D01*
X0008829Y0023953D02*
Y0025553D01*
X0009579D01*
Y0023953D01*
X0008829D01*
X0027631Y0005567D02*
X0029231D01*
Y0004817D01*
X0027631D01*
Y0005567D01*
X0023167Y0010366D02*
X0024767D01*
Y0009616D01*
X0023167D01*
Y0010366D01*
X0008615Y0023894D02*
X0007015D01*
Y0024644D01*
X0008615D01*
Y0023894D01*
X0020316Y0005407D02*
X0018716D01*
Y0006157D01*
X0020316D01*
Y0005407D01*
X-0000926Y0004680D02*
Y0006280D01*
X-0000176D01*
Y0004680D01*
X-0000926D01*
X0009401Y0021927D02*
X0007801D01*
Y0022677D01*
X0009401D01*
Y0021927D01*
X0016971Y0005683D02*
Y0007283D01*
X0017721D01*
Y0005683D01*
X0016971D01*
X0015476Y0016401D02*
Y0018001D01*
X0016226D01*
Y0016401D01*
X0015476D01*
X0021968Y0024877D02*
X0020368D01*
Y0025627D01*
X0021968D01*
Y0024877D01*
X0013752Y0016650D02*
Y0016350D01*
X0014012D01*
X0014692D02*
X0014952D01*
Y0016650D01*
X0015002D01*
X0028181Y0001415D02*
Y0003015D01*
X0028931D01*
Y0001415D01*
X0028181D01*
X-0001080Y0012627D02*
Y0011027D01*
X-0001830D01*
Y0012627D01*
X-0001080D01*
X0024995Y0022911D02*
Y0024511D01*
X0025745D01*
Y0022911D01*
X0024995D01*
X0024132Y0024916D02*
X0022532D01*
Y0025666D01*
X0024132D01*
Y0024916D01*
X0004700Y0022795D02*
X0006300D01*
Y0022045D01*
X0004700D01*
Y0022795D01*
X0025585Y0000629D02*
Y0002229D01*
X0026335D01*
Y0000629D01*
X0025585D01*
X0009734Y0023934D02*
Y0025534D01*
X0010484D01*
Y0023934D01*
X0009734D01*
X0000473Y0003598D02*
X-0001127D01*
Y0004348D01*
X0000473D01*
Y0003598D01*
X0022689Y0011794D02*
X0022389D01*
Y0011534D01*
Y0010854D02*
Y0010594D01*
X0022689D01*
Y0010544D01*
X0020747Y0004660D02*
Y0006260D01*
X0021497D01*
Y0004660D01*
X0020747D01*
X0003627Y-0001544D02*
Y0000055D01*
X0004377D01*
Y-0001544D01*
X0003627D01*
X-0004308Y0016441D02*
Y0018041D01*
X-0003558D01*
Y0016441D01*
X-0004308D01*
X0009716Y0016892D02*
X0008116D01*
Y0017642D01*
X0009716D01*
Y0016892D01*
X0016981Y0007581D02*
Y0009181D01*
X0017731D01*
Y0007581D01*
X0016981D01*
X0006144Y0002153D02*
Y0003753D01*
X0006894D01*
Y0002153D01*
X0006144D01*
X0020435Y0024368D02*
Y0022768D01*
X0019685D01*
Y0024368D01*
X0020435D01*
X0013812Y0019306D02*
Y0019006D01*
X0014072D01*
X0014752D02*
X0015012D01*
Y0019306D01*
X0015062D01*
X0024801Y0020670D02*
Y0019070D01*
X0024051D01*
Y0020670D01*
X0024801D01*
X0002144Y0004581D02*
X0000544D01*
Y0005331D01*
X0002144D01*
Y0004581D01*
X0024091Y0018822D02*
X0025691D01*
Y0018072D01*
X0024091D01*
Y0018822D01*
X0016027Y0005663D02*
Y0007263D01*
X0016777D01*
Y0005663D01*
X0016027D01*
X0026708Y0018938D02*
X0025108D01*
Y0019688D01*
X0026708D01*
Y0018938D01*
X0004337Y0012575D02*
X0002737D01*
Y0013325D01*
X0004337D01*
Y0012575D01*
X0008299Y0009225D02*
X0009899D01*
Y0008475D01*
X0008299D01*
Y0009225D01*
X0013470Y-0000453D02*
Y0001147D01*
X0014220D01*
Y-0000453D01*
X0013470D01*
X0017719Y0019884D02*
X0019319D01*
Y0019134D01*
X0017719D01*
Y0019884D01*
X-0000663Y0011361D02*
Y0011061D01*
X-0000403D01*
X0000277D02*
X0000537D01*
Y0011361D01*
X0000587D01*
X0011071Y0004011D02*
Y0005611D01*
X0011821D01*
Y0004011D01*
X0011071D01*
X0005132Y0002104D02*
Y0003704D01*
X0005882D01*
Y0002104D01*
X0005132D01*
X0007098Y0002084D02*
Y0003684D01*
X0007848D01*
Y0002084D01*
X0007098D01*
X0017601Y0020750D02*
X0019201D01*
Y0020000D01*
X0017601D01*
Y0020750D01*
X0002694Y0014850D02*
X0004294D01*
Y0014100D01*
X0002694D01*
Y0014850D01*
X0011820Y-0001555D02*
X0010220D01*
Y-0000805D01*
X0011820D01*
Y-0001555D01*
X0012487Y0002320D02*
Y0003920D01*
X0013237D01*
Y0002320D01*
X0012487D01*
X-0000923Y0008497D02*
Y0006897D01*
X-0001673D01*
Y0008497D01*
X-0000923D01*
X0010088Y0003756D02*
Y0005356D01*
X0010838D01*
Y0003756D01*
X0010088D01*
X-0003298Y0018401D02*
Y0018101D01*
X-0003038D01*
X-0002358D02*
X-0002098D01*
Y0018401D01*
X-0002048D01*
X0017465Y0023933D02*
X0015865D01*
Y0024683D01*
X0017465D01*
Y0023933D01*
X0022145Y0003480D02*
X0020545D01*
Y0004230D01*
X0022145D01*
Y0003480D01*
X0006058Y0009498D02*
X0004458D01*
Y0010248D01*
X0006058D01*
Y0009498D01*
X0004680Y0023739D02*
X0006280D01*
Y0022989D01*
X0004680D01*
Y0023739D01*
X0012487Y-0000433D02*
Y0001167D01*
X0013237D01*
Y-0000433D01*
X0012487D01*
X0030425Y0010520D02*
X0028825D01*
Y0011270D01*
X0030425D01*
Y0010520D01*
X0018193Y0018586D02*
Y0016986D01*
X0017443D01*
Y0018586D01*
X0018193D01*
X0017836Y0000747D02*
Y0002347D01*
X0018586D01*
Y0000747D01*
X0017836D01*
X0008457Y0014729D02*
X0006857D01*
Y0015479D01*
X0008457D01*
Y0014729D01*
X0019913Y0024729D02*
X0018313D01*
Y0025479D01*
X0019913D01*
Y0024729D01*
X0022832Y0002656D02*
X0024432D01*
Y0001906D01*
X0022832D01*
Y0002656D01*
X0026629Y0024759D02*
X0025029D01*
Y0025509D01*
X0026629D01*
Y0024759D01*
X-0001004Y0014928D02*
X0000596D01*
Y0014178D01*
X-0001004D01*
Y0014928D01*
X0006451Y-0000611D02*
X0004851D01*
Y0000139D01*
X0006451D01*
Y-0000611D01*
X-0000020Y0017288D02*
X0001580D01*
Y0016538D01*
X-0000020D01*
Y0017288D01*
X0022124Y0020649D02*
Y0022249D01*
X0022874D01*
Y0020649D01*
X0022124D01*
X0000387Y0007821D02*
X0000087D01*
Y0007561D01*
Y0006881D02*
Y0006621D01*
X0000387D01*
Y0006571D01*
X0004701Y0003834D02*
X0003101D01*
Y0004584D01*
X0004701D01*
Y0003834D01*
X0022852Y0001673D02*
X0024452D01*
Y0000923D01*
X0022852D01*
Y0001673D01*
X0000611Y0003049D02*
Y0001449D01*
X-0000139D01*
Y0003049D01*
X0000611D01*
X0017760Y0012745D02*
Y0011145D01*
X0017010D01*
Y0012745D01*
X0017760D01*
X0000040Y0019528D02*
X-0001560D01*
Y0020278D01*
X0000040D01*
Y0019528D01*
X0026767Y0006508D02*
X0025167D01*
Y0007258D01*
X0026767D01*
Y0006508D01*
X-0000569Y0017091D02*
Y0015491D01*
X-0001319D01*
Y0017091D01*
X-0000569D01*
X0008477Y0015712D02*
X0006877D01*
Y0016462D01*
X0008477D01*
Y0015712D01*
X0017503Y0021733D02*
X0019103D01*
Y0020983D01*
X0017503D01*
Y0021733D01*
X0023698Y0015086D02*
X0025298D01*
Y0014336D01*
X0023698D01*
Y0015086D01*
X0024740Y0017013D02*
X0026340D01*
Y0016263D01*
X0024740D01*
Y0017013D01*
G54D61*
G01X0002444Y0002723D02*
X0002388Y0002667D01*
Y0002556D01*
X0002444Y0002501D01*
X0002499D01*
X0002610Y0002612D01*
X0002722Y0002501D01*
Y0002723D01*
Y0002911D02*
X0002444D01*
X0002388Y0002939D01*
Y0003105D01*
X0002444Y0003133D01*
X0002722D01*
X0021421Y0017969D02*
Y0018136D01*
X0021477Y0018164D01*
X0021532D01*
X0021588Y0018136D01*
Y0017969D01*
X0021532Y0017941D01*
X0021477D01*
X0021254Y0018053D01*
Y0017754D02*
X0021532D01*
X0021588Y0017726D01*
Y0017559D01*
X0021532Y0017531D01*
X0021254D01*
X0017964Y0004169D02*
Y0004280D01*
Y0004225D02*
X0018298D01*
X0018242Y0004280D01*
X0018298Y0004523D02*
X0018020D01*
X0017964Y0004551D01*
Y0004718D01*
X0018020Y0004746D01*
X0018298D01*
X0007116Y0019376D02*
X0007088Y0019320D01*
Y0019265D01*
X0007116Y0019209D01*
X0007283D01*
X0007310Y0019265D01*
Y0019320D01*
X0007283Y0019376D01*
X0007116D01*
X0007088Y0019431D01*
Y0019487D01*
X0007116Y0019542D01*
X0007283D01*
X0007310Y0019487D01*
Y0019431D01*
X0007283Y0019376D01*
X0007498Y0019209D02*
Y0019487D01*
X0007526Y0019542D01*
X0007693D01*
X0007720Y0019487D01*
Y0019209D01*
X0022150Y0023766D02*
X0022094Y0023739D01*
Y0023572D01*
X0022150Y0023544D01*
X0022261D01*
X0022316Y0023600D01*
Y0023766D01*
X0022428D01*
Y0023544D01*
Y0023954D02*
X0022150D01*
X0022094Y0023982D01*
Y0024149D01*
X0022150Y0024176D01*
X0022428D01*
X0010549Y0001181D02*
X0010772D01*
X0010661Y0000958D01*
X0010605D01*
Y0001292D01*
X0010959Y0000958D02*
Y0001236D01*
X0010987Y0001292D01*
X0011154D01*
X0011182Y0001236D01*
Y0000958D01*
X0002017Y0015976D02*
X0001684Y0016143D01*
Y0015921D01*
Y0015733D02*
X0001961D01*
X0002017Y0015705D01*
Y0015539D01*
X0001961Y0015511D01*
X0001684D01*
X0024852Y0004476D02*
Y0004253D01*
X0024630Y0004476D01*
X0024575D01*
X0024519Y0004448D01*
Y0004281D01*
X0024575Y0004253D01*
X0024519Y0004066D02*
X0024797D01*
X0024852Y0004038D01*
Y0003871D01*
X0024797Y0003843D01*
X0024519D01*
X0003595Y0002334D02*
Y0003584D01*
X0002095D01*
Y0002334D01*
X0003595D01*
Y0003334D02*
X0002095D01*
X0022532Y0016795D02*
X0021032D01*
Y0016545D02*
Y0020045D01*
X0022532D01*
Y0016545D01*
X0021032D01*
X0019171Y0003947D02*
Y0005197D01*
X0017671D01*
Y0003947D01*
X0019171D01*
Y0004947D02*
X0017671D01*
X0008457Y0020486D02*
Y0018986D01*
X0008707D02*
X0005207D01*
Y0020486D01*
X0008707D01*
Y0018986D01*
X0023301Y0023378D02*
Y0024628D01*
X0021801D01*
Y0023378D01*
X0023301D01*
Y0024378D02*
X0021801D01*
X0011918Y0002236D02*
Y0000736D01*
X0012168D02*
X0008668D01*
Y0002236D01*
X0012168D01*
Y0000736D01*
X0000811Y0016310D02*
Y0015060D01*
X0002311D01*
Y0016310D01*
X0000811D01*
Y0015310D02*
X0002311D01*
X0025796Y0003107D02*
X0024296D01*
Y0002857D02*
Y0006357D01*
X0025796D01*
Y0002857D01*
X0024296D01*
G54D62*
G01X0004623Y0007194D02*
X0004553Y0007124D01*
Y0006984D01*
X0004623Y0006914D01*
X0004693D01*
X0004833Y0007054D01*
X0004973Y0006914D01*
Y0007194D01*
X0004693Y0007534D02*
X0004553Y0007394D01*
X0004623Y0007674D02*
X0004553Y0007639D01*
Y0007499D01*
X0004623Y0007464D01*
X0004693Y0007394D01*
X0004903D01*
X0004973Y0007429D01*
Y0007639D01*
X0004903Y0007674D01*
X0004623D01*
X0018632Y0011748D02*
Y0011468D01*
X0018352Y0011748D01*
X0018282D01*
X0018212Y0011713D01*
Y0011503D01*
X0018282Y0011468D01*
X0018492Y0011128D02*
X0018632Y0011268D01*
X0018562Y0010988D02*
X0018632Y0011023D01*
Y0011163D01*
X0018562Y0011198D01*
X0018492Y0011268D01*
X0018282D01*
X0018212Y0011233D01*
Y0011023D01*
X0018282Y0010988D01*
X0018562D01*
X0015007Y0015944D02*
X0014797D01*
X0014762Y0016014D01*
Y0016084D01*
X0014797Y0016154D01*
X0015007D01*
X0015042Y0016084D01*
Y0016014D01*
X0014902Y0015734D01*
X0015382Y0016014D02*
X0015242Y0016154D01*
X0015522Y0016084D02*
X0015487Y0016154D01*
X0015347D01*
X0015312Y0016084D01*
X0015242Y0016014D01*
Y0015804D01*
X0015277Y0015734D01*
X0015487D01*
X0015522Y0015804D01*
Y0016084D01*
X0023334Y0012680D02*
Y0012540D01*
Y0012610D02*
X0022914D01*
X0022984Y0012540D01*
X0023194Y0012130D02*
X0023334Y0012270D01*
X0023264Y0011990D02*
X0023334Y0012025D01*
Y0012165D01*
X0023264Y0012200D01*
X0023194Y0012270D01*
X0022984D01*
X0022914Y0012235D01*
Y0012025D01*
X0022984Y0011990D01*
X0023264D01*
X0015417Y0019527D02*
X0015382Y0019597D01*
X0015172D01*
X0015137Y0019527D01*
Y0019387D01*
X0015207Y0019317D01*
X0015417D01*
Y0019177D01*
X0015137D01*
X0015757Y0019457D02*
X0015617Y0019597D01*
X0015897Y0019527D02*
X0015862Y0019597D01*
X0015722D01*
X0015687Y0019527D01*
X0015617Y0019457D01*
Y0019247D01*
X0015652Y0019177D01*
X0015862D01*
X0015897Y0019247D01*
Y0019527D01*
X0000658Y0011009D02*
X0000623Y0010939D01*
Y0010869D01*
X0000658Y0010799D01*
X0000868D01*
X0000903Y0010869D01*
Y0010939D01*
X0000868Y0011009D01*
X0000658D01*
X0000623Y0011079D01*
Y0011149D01*
X0000658Y0011219D01*
X0000868D01*
X0000903Y0011149D01*
Y0011079D01*
X0000868Y0011009D01*
X0001243Y0011079D02*
X0001103Y0011219D01*
X0001383Y0011149D02*
X0001348Y0011219D01*
X0001208D01*
X0001173Y0011149D01*
X0001103Y0011079D01*
Y0010869D01*
X0001138Y0010799D01*
X0001348D01*
X0001383Y0010869D01*
Y0011149D01*
X-0004044Y0019047D02*
X-0004254Y0018627D01*
X-0003974D01*
X-0003634Y0018907D02*
X-0003774Y0019047D01*
X-0003494Y0018977D02*
X-0003529Y0019047D01*
X-0003669D01*
X-0003704Y0018977D01*
X-0003774Y0018907D01*
Y0018697D01*
X-0003739Y0018627D01*
X-0003529D01*
X-0003494Y0018697D01*
Y0018977D01*
X0000892Y0008777D02*
Y0008497D01*
X0000612Y0008637D01*
Y0008707D01*
X0001032D01*
X0000892Y0008157D02*
X0001032Y0008297D01*
X0000962Y0008017D02*
X0001032Y0008052D01*
Y0008192D01*
X0000962Y0008227D01*
X0000892Y0008297D01*
X0000682D01*
X0000612Y0008262D01*
Y0008052D01*
X0000682Y0008017D01*
X0000962D01*
G54D29*
X0007119Y0015104D03*
X0008201D03*
X0006175Y0015025D03*
Y0016107D03*
X-0002035Y0016825D03*
Y0015743D03*
X0008378Y0017267D03*
X0009460D03*
X0009204Y0025291D03*
Y0024210D03*
X0004248Y0020178D03*
X0003166D03*
X0006018Y0023364D03*
X0004936D03*
X0007277Y0024269D03*
X0008358D03*
X0002999Y0012950D03*
X0004081D03*
X0008063Y0022302D03*
X0009145D03*
X0005035Y0014986D03*
Y0016068D03*
X-0001298Y0019903D03*
X-0000216D03*
X-0001455Y0011289D03*
Y0012370D03*
X-0003933Y0017779D03*
Y0016697D03*
X0018939Y0020375D03*
X0017857D03*
X0022499Y0021987D03*
Y0020906D03*
X0025291Y0025134D03*
X0026373D03*
X0018801Y0017267D03*
Y0018349D03*
X0026078Y0016638D03*
X0024996D03*
X0018841Y0021358D03*
X0017759D03*
X0025881Y0020217D03*
X0026963D03*
X0025370Y0019313D03*
X0026452D03*
X0015851Y0017739D03*
Y0016658D03*
X0024387Y0015655D03*
X0023305D03*
X0018575Y0025104D03*
X0019657D03*
X0016127Y0024308D03*
X0017208D03*
X0012862Y0017228D03*
Y0016146D03*
X0013019Y0020099D03*
Y0019018D03*
X0010463Y-0002124D03*
X0011544D03*
X0006519Y0003491D03*
Y0002409D03*
X0004002Y-0000206D03*
Y-0001288D03*
X0012862Y0000905D03*
Y-0000177D03*
X0011446Y0005349D03*
Y0004268D03*
X0009637Y0008850D03*
X0008555D03*
X0007473Y0003422D03*
Y0002340D03*
X0009735Y0009794D03*
X0008653D03*
X0005113Y-0000236D03*
X0006195D03*
X0012862Y0003658D03*
Y0002576D03*
X-0000865Y0003973D03*
X0000216D03*
X-0000551Y0006018D03*
Y0004936D03*
X-0001298Y0007159D03*
Y0008240D03*
X0004720Y0009873D03*
X0005802D03*
X0025331Y-0000354D03*
X0024249D03*
X0020807Y0003855D03*
X0021889D03*
X0018211Y0002085D03*
Y0001003D03*
X0024190Y0001298D03*
X0023108D03*
X0024505Y0009991D03*
X0023423D03*
X0027297Y0006883D03*
X0028379D03*
X0025960Y0001967D03*
Y0000885D03*
X0019588Y0003107D03*
Y0002026D03*
X0028556Y0002753D03*
Y0001672D03*
X0029028Y0011879D03*
X0030110D03*
X0016402Y0007001D03*
Y0005920D03*
X0017356Y0008919D03*
Y0007837D03*
X0017385Y0011407D03*
Y0012488D03*
X0021279Y0011564D03*
X0020198D03*
X0007119Y0016087D03*
X0008221D03*
X-0000944Y0015733D03*
Y0016835D03*
X0010109Y0025291D03*
Y0024190D03*
X0006057Y0022420D03*
X0004956D03*
X0001337Y0016913D03*
X0000236D03*
X0000354Y0014553D03*
X-0000747D03*
X0004051Y0014475D03*
X0002950D03*
X0019077Y0019509D03*
X0017975D03*
X0025370Y0024269D03*
Y0023167D03*
X0017818Y0017228D03*
Y0018329D03*
X0025449Y0018447D03*
X0024347D03*
X0025488Y0017543D03*
X0024387D03*
X0024426Y0019313D03*
Y0020414D03*
X0025055Y0014711D03*
X0023954D03*
X0020060Y0023010D03*
Y0024111D03*
X0022774Y0025291D03*
X0023875D03*
X0020611Y0025252D03*
X0021712D03*
X0010463Y-0001180D03*
X0011564D03*
X0005507Y0003461D03*
Y0002360D03*
X0013845Y0000905D03*
Y-0000197D03*
X0010463Y0005113D03*
Y0004012D03*
X0012429Y0005900D03*
Y0004799D03*
X0008889Y0004759D03*
X0007788D03*
X0013806Y0003658D03*
Y0002557D03*
X0000236Y0001691D03*
Y0002793D03*
X0003343Y0004209D03*
X0004445D03*
X0000787Y0004956D03*
X0001888D03*
X0022223Y0005782D03*
Y0004681D03*
X0021122Y0006018D03*
Y0004917D03*
X0024190Y0002281D03*
X0023089D03*
X0028989Y0005192D03*
X0027887D03*
X0028674Y0004248D03*
X0027573D03*
X0025409Y0006883D03*
X0026511D03*
X0027612Y0003107D03*
Y0002006D03*
X0029067Y0010895D03*
X0030169D03*
X0015930Y0003383D03*
Y0004484D03*
X0018959Y0005782D03*
X0020060D03*
X0017346Y0007041D03*
Y0005939D03*
G54D30*
X0009519Y0014357D03*
Y0013295D03*
X0004484Y0024937D03*
X0005546D03*
X0010699Y0020375D03*
Y0021437D03*
X0027376Y0015969D03*
Y0017031D03*
X0014475Y-0001770D03*
X0013413D03*
X0012783Y0011092D03*
Y0012154D03*
X0024465Y-0001809D03*
X0025527D03*
X0029500Y0007985D03*
Y0006923D03*
X0029854Y0016891D03*
Y0017891D03*
Y0018891D03*
Y0019891D03*
Y0020891D03*
Y0021891D03*
Y0022891D03*
Y0023891D03*
Y0024891D03*
G54D31*
X0009519Y0015419D03*
X0003422Y0024937D03*
X0010699Y0019313D03*
X0027376Y0014907D03*
X0015537Y-0001770D03*
X0012783Y0010030D03*
X0023403Y-0001809D03*
X0029500Y0009047D03*
X0029854Y0015891D03*
G54D33*
X0001298Y0007631D03*
X0000000Y0007237D03*
X0001287Y0006841D03*
X0004287Y0008061D03*
X0005585Y0008454D03*
X0004299Y0008850D03*
X0018898Y0010602D03*
X0017600Y0010208D03*
X0018887Y0009812D03*
X0023600Y0011603D03*
X0022302Y0011210D03*
X0023589Y0010814D03*
G54D35*
X-0000472Y0012272D03*
X-0000079Y0010974D03*
X0000317Y0012261D03*
X-0003107Y0019313D03*
X-0002714Y0018015D03*
X-0002318Y0019301D03*
X0013942Y0017561D03*
X0014336Y0016263D03*
X0014732Y0017550D03*
X0014003Y0020217D03*
X0014396Y0018919D03*
X0014792Y0020206D03*
G54D36*
X0001613Y0019394D03*
X0003979Y0018414D03*
X-0000753D03*
X0001613Y0012701D03*
X0018605Y0022738D03*
X0020971Y0021757D03*
X0016238D03*
X0018605Y0016045D03*
X0007434Y0007319D03*
X0009800Y0006339D03*
X0005068D03*
X0007434Y0000626D03*
X0021397Y0009325D03*
X0023763Y0008345D03*
X0019031D03*
X0021397Y0002632D03*
G54D54*
X0002793Y0015557D03*
Y0015813D03*
Y0016069D03*
X0000315Y0016087D03*
Y0015831D03*
Y0015575D03*
Y0015301D03*
X0021319Y0024131D03*
Y0023875D03*
Y0023619D03*
X0023797Y0023600D03*
Y0023856D03*
Y0024112D03*
Y0024387D03*
X0001613Y0003087D03*
Y0002831D03*
Y0002575D03*
X0004091Y0002557D03*
Y0002813D03*
Y0003069D03*
Y0003343D03*
X0017189Y0004700D03*
Y0004444D03*
Y0004188D03*
X0019667Y0004169D03*
Y0004425D03*
Y0004681D03*
Y0004956D03*
G54D55*
X0002793Y0015301D03*
X0021319Y0024387D03*
X0001613Y0003343D03*
X0017189Y0004956D03*
G54D56*
X0023207Y0017295D03*
Y0017795D03*
Y0018295D03*
Y0018795D03*
Y0019295D03*
Y0019795D03*
X0020357D03*
Y0019295D03*
Y0018795D03*
Y0018295D03*
Y0017795D03*
Y0017295D03*
Y0016795D03*
X0026471Y0003607D03*
Y0004107D03*
Y0004607D03*
Y0005107D03*
Y0005607D03*
Y0006107D03*
X0023621D03*
Y0005607D03*
Y0005107D03*
Y0004607D03*
Y0004107D03*
Y0003607D03*
Y0003107D03*
G54D57*
X0023207Y0016795D03*
X0026471Y0003107D03*
G54D58*
X0007957Y0021161D03*
X0007457D03*
X0006957D03*
X0006457D03*
X0005957D03*
X0005457D03*
Y0018311D03*
X0005957D03*
X0006457D03*
X0006957D03*
X0007457D03*
X0007957D03*
X0008457D03*
X0011418Y0002911D03*
X0010918D03*
X0010418D03*
X0009918D03*
X0009418D03*
X0008918D03*
Y0000061D03*
X0009418D03*
X0009918D03*
X0010418D03*
X0010918D03*
X0011418D03*
X0011918D03*
G54D59*
X0008457Y0021161D03*
X0011918Y0002911D03*
G54D27*
%LPC*%
X0002635Y0004209D03*
X0004563Y0011603D03*
X0005467Y0004287D03*
X0005900Y0010738D03*
X-0002360Y0012508D03*
X-0002989Y0016559D03*
X0008653Y0019155D03*
X0006529Y0019313D03*
X0028595Y0005979D03*
X0007749Y0020139D03*
X0022341Y0018211D03*
X0029225Y0013059D03*
X0010266Y0016992D03*
X0009204Y0021397D03*
X0010659Y0002006D03*
X0029225Y0013059D03*
X0005900Y0010738D03*
X-0000354Y0013727D03*
X0018959Y0012233D03*
X0015261Y0010974D03*
X0019824Y0020453D03*
X0019627Y0021633D03*
X0006136Y0017346D03*
X0003658Y0016481D03*
X0010856Y0012193D03*
X0005900Y0010738D03*
X0009401Y0001062D03*
X0013019Y0006569D03*
X0019824Y0020453D03*
X0021161Y0018054D03*
X0006136Y0017346D03*
X0011210Y0016363D03*
X0021161Y0018054D03*
X0020689Y0014947D03*
X0020729Y0013806D03*
X0026196Y0017739D03*
X0007080Y0013334D03*
X0001101Y0014357D03*
X0028241Y0011171D03*
X0026117Y0013216D03*
X0015930Y0002596D03*
X0013019Y0006569D03*
X0002635Y0004209D03*
X0002163Y0001809D03*
X0018054Y0005153D03*
X0017897Y0003619D03*
X0026117Y0013216D03*
X0007867Y0005703D03*
X0026275Y0023639D03*
X0003658Y0016481D03*
X0001495Y0017857D03*
X0021515Y0023010D03*
X0022892Y0024347D03*
X0018054Y0005153D03*
X0022223Y0006529D03*
X0029421Y0005900D03*
X0009597Y-0002085D03*
X-0000354Y0013727D03*
X-0002360Y0012508D03*
X0006962Y0019863D03*
X0022341Y0018880D03*
X0021751Y0014947D03*
X0022774Y0013373D03*
X0015655Y0005231D03*
X0022774Y0023639D03*
X0015891Y0018447D03*
X0009597Y0004091D03*
X0015655Y0005231D03*
D03*
X0004012Y0015812D03*
X0009597Y0004091D03*
X0004799Y0001691D03*
X0027455Y0006136D03*
X0022341Y0018880D03*
X0023639Y0021083D03*
X0004012Y0015812D03*
X0000826Y0018093D03*
X0009204Y0016481D03*
X0001809Y0014475D03*
X0006175Y0013963D03*
X0030247Y0010069D03*
X0025488Y0005979D03*
X0025409Y0002596D03*
X0025331Y0015812D03*
X0029107Y0003383D03*
X0014986Y0008693D03*
X0016048Y0008732D03*
X0024937Y0005113D03*
X0022499Y0003147D03*
X-0003147Y0015104D03*
X0003147Y0002989D03*
X0021791Y0020650D03*
X0021279Y0015773D03*
X0023836Y0016323D03*
X0027848Y0019313D03*
X0017149Y0019470D03*
X0019470Y0017818D03*
X0008221Y0023285D03*
X0009204Y0018683D03*
X0018447Y0004641D03*
X0018801Y0003107D03*
X0025252Y0021043D03*
X0026471Y0007788D03*
X0008771Y0005585D03*
X0009676Y0007945D03*
X0019981Y-0001259D03*
X0022813Y0014868D03*
X0025842Y0015340D03*
X0009637Y-0001062D03*
X0012587Y-0000944D03*
X0015969Y0009479D03*
X0015065Y0009440D03*
X0006215Y0024387D03*
X0029421Y0005900D03*
X0013255Y0018290D03*
X0006490Y0016795D03*
X0018919Y0011210D03*
X0024623Y0011603D03*
X0002281Y0006726D03*
X0008299Y0010817D03*
X0018093Y0005939D03*
X0009204Y0023325D03*
X0007316Y0023167D03*
X0004130Y0021751D03*
X0014003Y0021043D03*
X0019706Y0010030D03*
X0008653Y0019155D03*
X0029382Y0015222D03*
X0004917Y0024111D03*
X0026786Y0001259D03*
X0000511Y0020099D03*
X0005192Y0014003D03*
X0007316Y0023167D03*
X0015458Y0019863D03*
X0016481Y0020532D03*
X0027219Y0019155D03*
X0023482Y0022184D03*
X0022145Y0024387D03*
X0003973Y-0002242D03*
X0025488Y0005979D03*
X0025252Y0009676D03*
X-0004091Y0015065D03*
X0008653Y0019155D03*
X0017267Y0001023D03*
X0009204Y0016481D03*
X0027061Y0024662D03*
X0019588Y0001219D03*
%LPD*%
G54D63*
%LPC*%
X0001613Y0019394D03*
X0003979Y0018414D03*
X-0000753D03*
X0001613Y0012701D03*
X0018605Y0022738D03*
X0020971Y0021757D03*
X0016238D03*
X0018605Y0016045D03*
X0007434Y0007319D03*
X0009800Y0006339D03*
X0005068D03*
X0007434Y0000626D03*
X0021397Y0009325D03*
X0023763Y0008345D03*
X0019031D03*
X0021397Y0002632D03*
X0009519Y0015419D03*
Y0014357D03*
Y0013295D03*
X0003422Y0024937D03*
X0004484D03*
X0005546D03*
X0010699Y0019313D03*
Y0020375D03*
Y0021437D03*
X0027376Y0014907D03*
Y0015969D03*
Y0017031D03*
X0015537Y-0001770D03*
X0014475D03*
X0013413D03*
X0012783Y0010030D03*
Y0011092D03*
Y0012154D03*
X0023403Y-0001809D03*
X0024465D03*
X0025527D03*
X0029500Y0009047D03*
Y0007985D03*
Y0006923D03*
X0012036Y0014632D03*
X0027691Y0023600D03*
X0027573Y0000000D03*
X0000039Y0023639D03*
Y-0000039D03*
X0029854Y0015891D03*
Y0016891D03*
Y0017891D03*
Y0018891D03*
Y0019891D03*
Y0020891D03*
Y0021891D03*
Y0022891D03*
Y0023891D03*
Y0024891D03*
%LPD*%
M02*
