*
G04 Mass Parameters ***
*
G04 Image ***
*
%INC:\PROGETTI\SCHEDA-ALPHASENSEB43\ALPHAB43-10.ASB*%
%ICAS*%
%MOIN*%
%IPPOS*%
%ASAXBY*%
G74*%FSLAN2X34Y34*%
*
G04 Aperture Definitions ***
*
%ADD10R,0.0590X0.0590*%
%ADD11C,0.0630*%
%ADD12R,0.0630X0.0630*%
%ADD13C,0.1260*%
%ADD14R,0.0787X0.0472*%
%ADD15R,0.0472X0.0787*%
%ADD16C,0.0551*%
%ADD17R,0.0551X0.0551*%
%ADD18C,0.1575*%
%ADD19O,0.0900X0.0160*%
%ADD20R,0.0900X0.0160*%
%ADD21O,0.0984X0.0240*%
%ADD22R,0.0984X0.0240*%
%ADD23O,0.0240X0.0984*%
%ADD24R,0.0240X0.0984*%
%ADD25C,0.0100*%
%ADD26C,0.0120*%
%ADD27C,0.0500*%
%ADD28C,0.0500*%
%ADD29C,0.0140*%
%ADD30C,0.0140*%
%ADD31R,0.0590X0.0590*%
%ADD32C,0.0630*%
%ADD33R,0.0630X0.0630*%
%ADD34C,0.1260*%
%ADD35R,0.0787X0.0472*%
%ADD36R,0.0787X0.0787*%
%ADD37C,0.0551*%
%ADD38R,0.0551X0.0551*%
%ADD39R,0.0472X0.0787*%
%ADD40C,0.1575*%
%ADD41R,0.0669X0.0669*%
%ADD42C,0.1338*%
%ADD43R,0.0866X0.0551*%
%ADD44R,0.0551X0.0866*%
%ADD45C,0.1653*%
%ADD46O,0.0979X0.0239*%
%ADD47R,0.0979X0.0239*%
%ADD48O,0.1063X0.0319*%
%ADD49R,0.1063X0.0319*%
%ADD50O,0.0319X0.1063*%
%ADD51R,0.0319X0.1063*%
%ADD52C,0.0550*%
%ADD53C,0.0550*%
%ADD54C,0.0140*%
%ADD55R,0.0866X0.0866*%
%ADD56O,0.0900X0.0160*%
%ADD57R,0.0900X0.0160*%
%ADD58O,0.0984X0.0240*%
%ADD59R,0.0984X0.0240*%
%ADD60O,0.0240X0.0984*%
%ADD61R,0.0240X0.0984*%
%ADD62C,0.0060*%
%ADD63C,0.0080*%
%ADD64C,0.0083*%
%ADD65C,0.0140*%
%ADD66C,0.0098*%
%ADD67C,0.0118*%
%ADD68C,0.0087*%
%ADD69C,0.0039*%
%ADD70C,0.0079*%
*
G04 Plot Data ***
*
G54D25*
G01X-0001219Y-0002832D02*
Y0001495D01*
X-0005546D01*
Y0022302D01*
X-0001219D01*
Y0026235D01*
X0030719D01*
Y-0002832D01*
X-0001219D01*
G54D62*
G01X0029259Y0004872D02*
X0029204Y0004817D01*
X0029093D01*
X0029037Y0004872D01*
Y0004928D01*
X0029148Y0005039D01*
X0029037Y0005150D01*
X0029259D01*
X0029407Y0004817D02*
X0029518D01*
X0029462D02*
Y0005150D01*
X0029518Y0005094D01*
X0029805Y0004983D02*
X0029721Y0004817D01*
X0029944Y0004983D02*
X0029777D01*
X0029721Y0005039D01*
Y0005094D01*
X0029777Y0005150D01*
X0029944D01*
Y0004817D01*
X0009544Y0017131D02*
X0009489Y0017076D01*
X0009461Y0017020D01*
Y0016909D01*
X0009489Y0016853D01*
X0009544Y0016798D01*
X0009600D01*
X0009655Y0016853D01*
X0009683Y0016909D01*
Y0017020D01*
X0009655Y0017076D01*
X0009600Y0017131D01*
X0009544D01*
X0009313Y0017020D02*
X0009091D01*
X0009202Y0016798D01*
X0009258D01*
Y0017131D01*
X0008943Y0017076D02*
X0008915Y0017131D01*
X0008749D01*
X0008721Y0017076D01*
Y0016853D01*
X0008749Y0016798D01*
X0008915D01*
X0008943Y0016853D01*
X0005958Y0021861D02*
X0006124D01*
X0006152Y0021916D01*
Y0021972D01*
X0006124Y0022027D01*
X0005958D01*
X0005930Y0021972D01*
Y0021916D01*
X0006041Y0021694D01*
X0006522Y0021750D02*
X0006466Y0021694D01*
X0006355D01*
X0006300Y0021750D01*
Y0021805D01*
X0006411Y0021916D01*
X0006300Y0022027D01*
X0006522D01*
X0006670Y0021750D02*
X0006698Y0021694D01*
X0006864D01*
X0006892Y0021750D01*
Y0021972D01*
X0006864Y0022027D01*
X0006698D01*
X0006670Y0021972D01*
X-0003811Y0010354D02*
X-0003922D01*
X-0003867D02*
Y0010021D01*
X-0003922Y0010076D01*
X-0004292Y0010354D02*
X-0004126Y0010021D01*
X-0004348D01*
X-0004579Y0010187D02*
X-0004496Y0010354D01*
X-0004718Y0010187D02*
X-0004551D01*
X-0004496Y0010132D01*
Y0010076D01*
X-0004551Y0010021D01*
X-0004718D01*
Y0010354D01*
X0026963Y0020613D02*
Y0020780D01*
X0026907Y0020808D01*
X0026852D01*
X0026796Y0020780D01*
Y0020613D01*
X0026852Y0020585D01*
X0026907D01*
X0027130Y0020697D01*
X0026907Y0020438D02*
Y0020215D01*
X0027130Y0020327D01*
Y0020382D01*
X0026796D01*
X0026963Y0019984D02*
X0026796Y0020068D01*
X0026963Y0019845D02*
Y0020012D01*
X0027018Y0020068D01*
X0027074D01*
X0027130Y0020012D01*
Y0019845D01*
X0026796D01*
X0001442Y-0001480D02*
X0001387Y-0001453D01*
Y-0001286D01*
X0001442Y-0001258D01*
X0001554D01*
X0001609Y-0001314D01*
Y-0001480D01*
X0001720D01*
Y-0001258D01*
X0001442Y-0001850D02*
X0001387Y-0001795D01*
Y-0001684D01*
X0001442Y-0001628D01*
X0001498D01*
X0001609Y-0001739D01*
X0001720Y-0001628D01*
Y-0001850D01*
X0001554Y-0002081D02*
X0001387Y-0001998D01*
X0001554Y-0002220D02*
Y-0002054D01*
X0001609Y-0001998D01*
X0001665D01*
X0001720Y-0002054D01*
Y-0002220D01*
X0001387D01*
X0003061Y0022819D02*
X0003117Y0022791D01*
Y0022624D01*
X0003061Y0022596D01*
X0002950D01*
X0002894Y0022652D01*
Y0022819D01*
X0002783D01*
Y0022596D01*
X0002950Y0023161D02*
Y0022994D01*
X0003005Y0022966D01*
X0003061D01*
X0003117Y0022994D01*
Y0023161D01*
X0003061Y0023189D01*
X0003005D01*
X0002783Y0023078D01*
X0002950Y0023420D02*
X0003117Y0023336D01*
X0002950Y0023559D02*
Y0023392D01*
X0002894Y0023336D01*
X0002839D01*
X0002783Y0023392D01*
Y0023559D01*
X0003117D01*
X0029466Y0014234D02*
X0029521Y0014178D01*
Y0014067D01*
X0029466Y0014011D01*
X0029410D01*
X0029299Y0014122D01*
X0029188Y0014011D01*
Y0014234D01*
X0029466Y0014381D02*
X0029521Y0014409D01*
Y0014576D01*
X0029466Y0014604D01*
X0029243D01*
X0029188Y0014576D01*
Y0014409D01*
X0029243Y0014381D01*
X0018202Y-0000831D02*
X0018535Y-0000665D01*
Y-0000887D01*
X0018202Y-0001035D02*
Y-0001146D01*
Y-0001090D02*
X0018535D01*
X0018480Y-0001146D01*
X0018369Y-0001432D02*
X0018202Y-0001349D01*
X0018369Y-0001571D02*
Y-0001405D01*
X0018424Y-0001349D01*
X0018480D01*
X0018535Y-0001405D01*
Y-0001571D01*
X0018202D01*
X0008684Y0022786D02*
Y0022952D01*
X0008629Y0022980D01*
X0008573D01*
X0008517Y0022952D01*
Y0022786D01*
X0008573Y0022758D01*
X0008629D01*
X0008851Y0022869D01*
X0008573Y0022388D02*
X0008517Y0022443D01*
Y0022554D01*
X0008573Y0022610D01*
X0008629D01*
X0008740Y0022499D01*
X0008851Y0022610D01*
Y0022388D01*
X0008573Y0022240D02*
X0008517Y0022212D01*
Y0022046D01*
X0008573Y0022018D01*
X0008795D01*
X0008851Y0022046D01*
Y0022212D01*
X0008795Y0022240D01*
X0026032Y0021678D02*
X0026087Y0021622D01*
Y0021511D01*
X0026032Y0021456D01*
X0025976D01*
X0025865Y0021567D01*
X0025754Y0021456D01*
Y0021678D01*
X0026032Y0022048D02*
X0026087Y0022020D01*
Y0021854D01*
X0026032Y0021826D01*
X0025921D01*
X0025865Y0021881D01*
Y0022048D01*
X0025754D01*
Y0021826D01*
X0025921Y0022279D02*
X0026087Y0022196D01*
X0025921Y0022418D02*
Y0022251D01*
X0025865Y0022196D01*
X0025809D01*
X0025754Y0022251D01*
Y0022418D01*
X0026087D01*
X0029337Y0012041D02*
X0029282Y0012097D01*
Y0012208D01*
X0029337Y0012263D01*
X0029393D01*
X0029504Y0012152D01*
X0029615Y0012263D01*
Y0012041D01*
X0029449Y0011810D02*
X0029282Y0011893D01*
X0029449Y0011671D02*
Y0011838D01*
X0029504Y0011893D01*
X0029560D01*
X0029615Y0011838D01*
Y0011671D01*
X0029282D01*
X0009873Y0010195D02*
X0009817Y0010167D01*
X0009761D01*
X0009706Y0010195D01*
Y0010362D01*
X0009761Y0010389D01*
X0009817D01*
X0009873Y0010362D01*
Y0010195D01*
X0009928Y0010167D01*
X0009984D01*
X0010039Y0010195D01*
Y0010362D01*
X0009984Y0010389D01*
X0009928D01*
X0009873Y0010362D01*
X0010039Y0010537D02*
Y0010759D01*
X0009817Y0010537D01*
X0009761D01*
X0009706Y0010565D01*
Y0010732D01*
X0009761Y0010759D01*
X0009873Y0010990D02*
X0010039Y0010907D01*
X0009873Y0011129D02*
Y0010963D01*
X0009817Y0010907D01*
X0009761D01*
X0009706Y0010963D01*
Y0011129D01*
X0010039D01*
X0029019Y0002500D02*
X0029074Y0002445D01*
X0029130Y0002417D01*
X0029241D01*
X0029296Y0002445D01*
X0029352Y0002500D01*
Y0002556D01*
X0029296Y0002611D01*
X0029241Y0002639D01*
X0029130D01*
X0029074Y0002611D01*
X0029019Y0002556D01*
Y0002500D01*
Y0002269D02*
Y0002158D01*
Y0002214D02*
X0029352D01*
X0029296Y0002158D01*
X0029185Y0001871D02*
X0029019Y0001955D01*
X0029185Y0001732D02*
Y0001899D01*
X0029241Y0001955D01*
X0029296D01*
X0029352Y0001899D01*
Y0001732D01*
X0029019D01*
X0027553Y0019726D02*
Y0020630D01*
X0026373D01*
Y0019700D01*
X0027553D01*
X0002144Y-0002340D02*
Y-0001436D01*
X0000964D01*
Y-0002366D01*
X0002144D01*
X0002360Y0023679D02*
Y0022774D01*
X0003540D01*
Y0023704D01*
X0002360D01*
X0030504Y0013314D02*
Y0014914D01*
X0029754D01*
Y0013314D01*
X0030504D01*
X0018959Y-0001691D02*
Y-0000787D01*
X0017779D01*
Y-0001717D01*
X0018959D01*
X0009500Y0022913D02*
X0007900D01*
Y0022163D01*
X0009500D01*
Y0022913D01*
X0025331Y0022538D02*
Y0021633D01*
X0026511D01*
Y0022563D01*
X0025331D01*
X0029754Y0013059D02*
Y0011459D01*
X0030504D01*
Y0013059D01*
X0029754D01*
X0009283Y0011249D02*
Y0010345D01*
X0010463D01*
Y0011275D01*
X0009283D01*
X0029775Y0001613D02*
Y0002517D01*
X0028595D01*
Y0001587D01*
X0029775D01*
X0028673Y0003834D02*
X0030273D01*
Y0004584D01*
X0028673D01*
Y0003834D01*
X0010011Y0018114D02*
X0008411D01*
Y0017364D01*
X0010011D01*
Y0018114D01*
X0006587Y0022637D02*
Y0021037D01*
X0007337D01*
Y0022637D01*
X0006587D01*
X-0004838Y0009597D02*
X-0003933D01*
Y0010777D01*
X-0004863D01*
Y0009597D01*
G54D67*
G01X0007045Y0004098D02*
X0007482D01*
X0007045Y0004536D01*
Y0004645D01*
X0007099Y0004754D01*
X0007427D01*
X0007482Y0004645D01*
X0007773D02*
X0007828Y0004754D01*
X0008156D01*
X0008211Y0004645D01*
Y0004536D01*
X0008156Y0004426D01*
X0007828D01*
X0007773Y0004317D01*
Y0004208D01*
X0007828Y0004098D01*
X0008156D01*
X0008211Y0004208D01*
X0021117Y0006104D02*
X0021336D01*
X0021227D02*
Y0006760D01*
X0021336Y0006651D01*
X0021736D02*
X0021791Y0006760D01*
X0022119D01*
X0022174Y0006651D01*
Y0006542D01*
X0022119Y0006432D01*
X0021791D01*
X0021736Y0006323D01*
Y0006214D01*
X0021791Y0006104D01*
X0022119D01*
X0022174Y0006214D01*
X0001223Y0016392D02*
X0001661D01*
X0001442Y0016830D01*
X0001333D01*
Y0016174D01*
X0001952Y0016720D02*
X0002007Y0016830D01*
X0002335D01*
X0002389Y0016720D01*
Y0016611D01*
X0002335Y0016502D01*
X0002007D01*
X0001952Y0016392D01*
Y0016283D01*
X0002007Y0016174D01*
X0002335D01*
X0002389Y0016283D01*
X0018653Y0019626D02*
X0018543Y0019517D01*
X0018325D01*
X0018215Y0019626D01*
Y0019736D01*
X0018434Y0019954D01*
X0018215Y0020173D01*
X0018653D01*
X0018944Y0020064D02*
X0018999Y0020173D01*
X0019327D01*
X0019381Y0020064D01*
Y0019954D01*
X0019327Y0019845D01*
X0018999D01*
X0018944Y0019736D01*
Y0019626D01*
X0018999Y0019517D01*
X0019327D01*
X0019381Y0019626D01*
G54D68*
G01X0028340Y0007211D02*
Y0007491D01*
X0028060Y0007351D01*
Y0007281D01*
X0028480D01*
Y0007700D02*
Y0007840D01*
Y0007770D02*
X0028060D01*
X0028130Y0007840D01*
X0028270Y0008223D02*
X0028480Y0008118D01*
X0028270Y0008398D02*
Y0008188D01*
X0028200Y0008118D01*
X0028130D01*
X0028060Y0008188D01*
Y0008398D01*
X0028480D01*
X0006415Y0024586D02*
X0006625Y0024166D01*
X0006345D01*
X0005892Y0024376D02*
X0006102D01*
X0006137Y0024446D01*
Y0024516D01*
X0006102Y0024586D01*
X0005892D01*
X0005857Y0024516D01*
Y0024446D01*
X0005997Y0024166D01*
X0005543Y0024376D02*
X0005648Y0024586D01*
X0005368Y0024376D02*
X0005578D01*
X0005648Y0024306D01*
Y0024236D01*
X0005578Y0024166D01*
X0005368D01*
Y0024586D01*
X0013841Y-0000750D02*
X0013631Y-0000330D01*
X0013911D01*
X0014400Y-0000680D02*
X0014330Y-0000750D01*
X0014190D01*
X0014120Y-0000680D01*
Y-0000610D01*
X0014260Y-0000470D01*
X0014120Y-0000330D01*
X0014400D01*
X0014713Y-0000540D02*
X0014608Y-0000750D01*
X0014888Y-0000540D02*
X0014678D01*
X0014608Y-0000470D01*
Y-0000400D01*
X0014678Y-0000330D01*
X0014888D01*
Y-0000750D01*
X0013803Y0011865D02*
Y0011725D01*
Y0011795D02*
X0014223D01*
X0014153Y0011725D01*
X0013873Y0011167D02*
X0013803Y0011237D01*
Y0011377D01*
X0013873Y0011447D01*
X0013943D01*
X0014083Y0011307D01*
X0014223Y0011447D01*
Y0011167D01*
X0014013Y0010853D02*
X0013803Y0010958D01*
X0014013Y0010678D02*
Y0010888D01*
X0014083Y0010958D01*
X0014153D01*
X0014223Y0010888D01*
Y0010678D01*
X0013803D01*
X0011198Y0021174D02*
X0011128Y0021209D01*
Y0021419D01*
X0011198Y0021454D01*
X0011338D01*
X0011408Y0021384D01*
Y0021174D01*
X0011548D01*
Y0021454D01*
X0011198Y0020685D02*
X0011128Y0020720D01*
Y0020930D01*
X0011198Y0020965D01*
X0011338D01*
X0011408Y0020895D01*
Y0020685D01*
X0011548D01*
Y0020965D01*
X0011338Y0020372D02*
X0011128Y0020477D01*
X0011338Y0020197D02*
Y0020407D01*
X0011408Y0020477D01*
X0011478D01*
X0011548Y0020407D01*
Y0020197D01*
X0011128D01*
X0025833Y-0001072D02*
X0025623D01*
X0025588Y-0001142D01*
Y-0001212D01*
X0025623Y-0001282D01*
X0025833D01*
X0025868Y-0001212D01*
Y-0001142D01*
X0025728Y-0000862D01*
X0025379D02*
X0025239D01*
X0025309D02*
Y-0001282D01*
X0025239Y-0001212D01*
X0024856Y-0001072D02*
X0024961Y-0000862D01*
X0024681Y-0001072D02*
X0024891D01*
X0024961Y-0001142D01*
Y-0001212D01*
X0024891Y-0001282D01*
X0024681D01*
Y-0000862D01*
X0008547Y0013400D02*
X0008617Y0013330D01*
Y0013190D01*
X0008547Y0013120D01*
X0008477D01*
X0008337Y0013260D01*
X0008197Y0013120D01*
Y0013400D01*
X0008617Y0013818D02*
X0008197Y0013608D01*
Y0013888D01*
X0008407Y0014202D02*
X0008617Y0014097D01*
X0008407Y0014377D02*
Y0014167D01*
X0008337Y0014097D01*
X0008267D01*
X0008197Y0014167D01*
Y0014377D01*
X0008617D01*
X0028605Y0016777D02*
Y0016567D01*
X0028675Y0016532D01*
X0028745D01*
X0028815Y0016567D01*
Y0016777D01*
X0028745Y0016812D01*
X0028675D01*
X0028395Y0016672D01*
X0028535Y0016324D02*
Y0016044D01*
X0028815Y0016184D01*
Y0016254D01*
X0028395D01*
X0028605Y0015731D02*
X0028395Y0015836D01*
X0028605Y0015556D02*
Y0015766D01*
X0028675Y0015836D01*
X0028745D01*
X0028815Y0015766D01*
Y0015556D01*
X0028395D01*
G54D69*
G01X0002478Y0025803D02*
X0002517Y0025763D01*
X0006451D01*
Y0024151D01*
X0002517D01*
Y0025763D01*
X0002478Y0025803D01*
X0016481Y-0002635D02*
X0016441Y-0002596D01*
X0012508D01*
Y-0000983D01*
X0016441D01*
Y-0002596D01*
X0016481Y-0002635D01*
X0011918Y0009086D02*
X0011957Y0009125D01*
Y0013059D01*
X0013570D01*
Y0009125D01*
X0011957D01*
X0011918Y0009086D01*
X0009833Y0018369D02*
X0009873Y0018408D01*
Y0022341D01*
X0011485D01*
Y0018408D01*
X0009873D01*
X0009833Y0018369D01*
X0022459Y-0000944D02*
X0022499Y-0000983D01*
X0026432D01*
Y-0002596D01*
X0022499D01*
Y-0000983D01*
X0022459Y-0000944D01*
X0010384Y0016363D02*
X0010345Y0016323D01*
Y0012390D01*
X0008732D01*
Y0016323D01*
X0010345D01*
X0010384Y0016363D01*
X0026511Y0013963D02*
X0026550Y0014003D01*
Y0017936D01*
X0028163D01*
Y0014003D01*
X0026550D01*
X0026511Y0013963D01*
X0030365Y0009991D02*
X0030326Y0009951D01*
Y0006018D01*
X0028713D01*
Y0009951D01*
X0030326D01*
X0030365Y0009991D01*
G54D70*
G01X0021395Y-0000500D02*
G03X0027893Y0005998I0000000J0006498D01*
G01X0014897D02*
G03X0021395Y-0000500I0006498J0000000D01*
Y0012495D02*
G03X0014898Y0005998I0000000J0006497D01*
G01X0027892D02*
G03X0021395Y0012495I0006497J0000000D01*
G01X0001610Y0009571D02*
G03X0008107Y0016068I0000000J0006497D01*
G01X-0004887D02*
G03X0001610Y0009571I0006497J0000000D01*
Y0022565D02*
G03X-0004887Y0016068I0000000J0006497D01*
G01X0008107D02*
G03X0001610Y0022565I0006497J0000000D01*
G01X0018602Y0012914D02*
G03X0025099Y0019411I0000000J0006497D01*
G01X0012105D02*
G03X0018602Y0012914I0006497J0000000D01*
Y0025908D02*
G03X0012105Y0019411I0000000J0006497D01*
G01X0025099D02*
G03X0018602Y0025908I0006497J0000000D01*
G01X0007431Y-0002505D02*
G03X0013928Y0003992I0000000J0006497D01*
G01X0000934D02*
G03X0007431Y-0002505I0006497J0000000D01*
Y0010490D02*
G03X0000933Y0003992I0000000J0006498D01*
G01X0013929D02*
G03X0007431Y0010490I0006498J0000000D01*
G54D31*
X0030011Y0004209D03*
X0028930D03*
X0030129Y0011721D03*
Y0012803D03*
X0008653Y0017739D03*
X0009755D03*
X0006962Y0021279D03*
Y0022381D03*
X0008142Y0022538D03*
X0009243D03*
X0030129Y0014671D03*
Y0013570D03*
G54D35*
X0003697Y0023639D03*
Y0022853D03*
X0026668Y0022499D03*
Y0021712D03*
X0026216Y0019765D03*
Y0020552D03*
X0000806Y-0002301D03*
Y-0001514D03*
X0010620Y0011210D03*
Y0010423D03*
X0017621Y-0001652D03*
Y-0000865D03*
X0028438Y0001652D03*
Y0002439D03*
G54D36*
X-0004405Y0009479D03*
X0002242Y0023246D03*
X0025213Y0022105D03*
X0027671Y0020158D03*
X0002262Y-0001908D03*
X0009165Y0010817D03*
X0019077Y-0001259D03*
X0029893Y0002045D03*
G54D37*
X0009519Y0014357D03*
Y0013295D03*
X0004484Y0024937D03*
X0005546D03*
X0010699Y0020375D03*
Y0021437D03*
X0027376Y0015969D03*
Y0017031D03*
X0014475Y-0001770D03*
X0013413D03*
X0012783Y0011092D03*
Y0012154D03*
X0024465Y-0001809D03*
X0025527D03*
X0029500Y0007985D03*
Y0006923D03*
G54D38*
X0009519Y0015419D03*
X0003422Y0024937D03*
X0010699Y0019313D03*
X0027376Y0014907D03*
X0015537Y-0001770D03*
X0012783Y0010030D03*
X0023403Y-0001809D03*
X0029500Y0009047D03*
G54D39*
X-0004799Y0010935D03*
X-0004012D03*
G54D40*
X0001613Y0019394D03*
X0003979Y0018414D03*
X-0000753D03*
X0001613Y0012701D03*
X0018605Y0022738D03*
X0020971Y0021757D03*
X0016238D03*
X0018605Y0016045D03*
X0007434Y0007319D03*
X0009800Y0006339D03*
X0005068D03*
X0007434Y0000626D03*
X0021397Y0009325D03*
X0023763Y0008345D03*
X0019031D03*
X0021397Y0002632D03*
G54D29*
%LPC*%
X0002635Y0004209D03*
X0004563Y0011603D03*
X0005467Y0004287D03*
X0005900Y0010738D03*
X-0002360Y0012508D03*
X-0002989Y0016559D03*
X0008653Y0019155D03*
X0006529Y0019313D03*
X0028595Y0005979D03*
X0007749Y0020139D03*
X0022341Y0018211D03*
X0029225Y0013059D03*
X0010266Y0016992D03*
X0009204Y0021397D03*
X0010659Y0002006D03*
X0029225Y0013059D03*
X0005900Y0010738D03*
X-0000354Y0013727D03*
X0018959Y0012233D03*
X0015261Y0010974D03*
X0019824Y0020453D03*
X0019627Y0021633D03*
X0006136Y0017346D03*
X0003658Y0016481D03*
X0010856Y0012193D03*
X0005900Y0010738D03*
X0009401Y0001062D03*
X0013019Y0006569D03*
X0019824Y0020453D03*
X0021161Y0018054D03*
X0006136Y0017346D03*
X0011210Y0016363D03*
X0021161Y0018054D03*
X0020689Y0014947D03*
X0020729Y0013806D03*
X0026196Y0017739D03*
X0007080Y0013334D03*
X0001101Y0014357D03*
X0028241Y0011171D03*
X0026117Y0013216D03*
X0015930Y0002596D03*
X0013019Y0006569D03*
X0002635Y0004209D03*
X0002163Y0001809D03*
X0018054Y0005153D03*
X0017897Y0003619D03*
X0026117Y0013216D03*
X0007867Y0005703D03*
X0026275Y0023639D03*
X0003658Y0016481D03*
X0001495Y0017857D03*
X0021515Y0023010D03*
X0022892Y0024347D03*
X0018054Y0005153D03*
X0022223Y0006529D03*
X0029421Y0005900D03*
X0009597Y-0002085D03*
X-0000354Y0013727D03*
X-0002360Y0012508D03*
X0006962Y0019863D03*
X0022341Y0018880D03*
X0021751Y0014947D03*
X0022774Y0013373D03*
X0015655Y0005231D03*
X0022774Y0023639D03*
X0015891Y0018447D03*
X0009597Y0004091D03*
X0015655Y0005231D03*
D03*
X0004012Y0015812D03*
X0009597Y0004091D03*
X0004799Y0001691D03*
X0027455Y0006136D03*
X0022341Y0018880D03*
X0023639Y0021083D03*
X0004012Y0015812D03*
X0000826Y0018093D03*
X0009204Y0016481D03*
X0001809Y0014475D03*
X0006175Y0013963D03*
X0030247Y0010069D03*
X0025488Y0005979D03*
X0025409Y0002596D03*
X0025331Y0015812D03*
X0029107Y0003383D03*
X0014986Y0008693D03*
X0016048Y0008732D03*
X0024937Y0005113D03*
X0022499Y0003147D03*
X-0003147Y0015104D03*
X0003147Y0002989D03*
X0021791Y0020650D03*
X0021279Y0015773D03*
X0023836Y0016323D03*
X0027848Y0019313D03*
X0017149Y0019470D03*
X0019470Y0017818D03*
X0008221Y0023285D03*
X0009204Y0018683D03*
X0018447Y0004641D03*
X0018801Y0003107D03*
X0025252Y0021043D03*
X0026471Y0007788D03*
X0008771Y0005585D03*
X0009676Y0007945D03*
X0019981Y-0001259D03*
X0022813Y0014868D03*
X0025842Y0015340D03*
X0009637Y-0001062D03*
X0012587Y-0000944D03*
X0015969Y0009479D03*
X0015065Y0009440D03*
X0006215Y0024387D03*
X0029421Y0005900D03*
X0013255Y0018290D03*
X0006490Y0016795D03*
X0018919Y0011210D03*
X0024623Y0011603D03*
X0002281Y0006726D03*
X0008299Y0010817D03*
X0018093Y0005939D03*
X0009204Y0023325D03*
X0007316Y0023167D03*
X0004130Y0021751D03*
X0014003Y0021043D03*
X0019706Y0010030D03*
X0008653Y0019155D03*
X0029382Y0015222D03*
X0004917Y0024111D03*
X0026786Y0001259D03*
X0000511Y0020099D03*
X0005192Y0014003D03*
X0007316Y0023167D03*
X0015458Y0019863D03*
X0016481Y0020532D03*
X0027219Y0019155D03*
X0023482Y0022184D03*
X0022145Y0024387D03*
X0003973Y-0002242D03*
X0025488Y0005979D03*
X0025252Y0009676D03*
X-0004091Y0015065D03*
X0008653Y0019155D03*
X0017267Y0001023D03*
X0009204Y0016481D03*
X0027061Y0024662D03*
X0019588Y0001219D03*
%LPD*%
G54D54*
%LPC*%
X0001613Y0019394D03*
X0003979Y0018414D03*
X-0000753D03*
X0001613Y0012701D03*
X0018605Y0022738D03*
X0020971Y0021757D03*
X0016238D03*
X0018605Y0016045D03*
X0007434Y0007319D03*
X0009800Y0006339D03*
X0005068D03*
X0007434Y0000626D03*
X0021397Y0009325D03*
X0023763Y0008345D03*
X0019031D03*
X0021397Y0002632D03*
X0009519Y0015419D03*
Y0014357D03*
Y0013295D03*
X0003422Y0024937D03*
X0004484D03*
X0005546D03*
X0010699Y0019313D03*
Y0020375D03*
Y0021437D03*
X0027376Y0014907D03*
Y0015969D03*
Y0017031D03*
X0015537Y-0001770D03*
X0014475D03*
X0013413D03*
X0012783Y0010030D03*
Y0011092D03*
Y0012154D03*
X0023403Y-0001809D03*
X0024465D03*
X0025527D03*
X0029500Y0009047D03*
Y0007985D03*
Y0006923D03*
X0012036Y0014632D03*
X0027691Y0023600D03*
X0027573Y0000000D03*
X0000039Y0023639D03*
Y-0000039D03*
X0029854Y0015891D03*
Y0016891D03*
Y0017891D03*
Y0018891D03*
Y0019891D03*
Y0020891D03*
Y0021891D03*
Y0022891D03*
Y0023891D03*
Y0024891D03*
%LPD*%
M02*
