*
G04 Mass Parameters ***
*
G04 Image ***
*
%INC:\PROGETTI\SCHEDA-ALPHASENSEB43\ALPHAB43-11.SSB*%
%ICAS*%
%MOIN*%
%IPPOS*%
%ASAXBY*%
G74*%FSLAN2X34Y34*%
*
G04 Aperture Definitions ***
*
%ADD10R,0.0590X0.0590*%
%ADD11C,0.0551*%
%ADD12R,0.0551X0.0551*%
%ADD13C,0.1260*%
%ADD14R,0.0787X0.0472*%
%ADD15R,0.0472X0.0787*%
%ADD16C,0.1575*%
%ADD17O,0.0900X0.0160*%
%ADD18R,0.0900X0.0160*%
%ADD19O,0.0984X0.0240*%
%ADD20R,0.0984X0.0240*%
%ADD21O,0.0240X0.0984*%
%ADD22R,0.0240X0.0984*%
%ADD23C,0.0100*%
%ADD24C,0.0120*%
%ADD25C,0.0500*%
%ADD26C,0.0500*%
%ADD27C,0.0140*%
%ADD28C,0.0140*%
%ADD29R,0.0590X0.0590*%
%ADD30C,0.0551*%
%ADD31R,0.0551X0.0551*%
%ADD32C,0.1260*%
%ADD33R,0.0787X0.0472*%
%ADD34R,0.0787X0.0787*%
%ADD35R,0.0472X0.0787*%
%ADD36C,0.1575*%
%ADD37R,0.0669X0.0669*%
%ADD38C,0.0630*%
%ADD39R,0.0630X0.0630*%
%ADD40C,0.1338*%
%ADD41R,0.0866X0.0551*%
%ADD42R,0.0551X0.0866*%
%ADD43C,0.1653*%
%ADD44O,0.0979X0.0239*%
%ADD45R,0.0979X0.0239*%
%ADD46O,0.1063X0.0319*%
%ADD47R,0.1063X0.0319*%
%ADD48O,0.0319X0.1063*%
%ADD49R,0.0319X0.1063*%
%ADD50C,0.0550*%
%ADD51C,0.0550*%
%ADD52C,0.0140*%
%ADD53R,0.0866X0.0866*%
%ADD54O,0.0900X0.0160*%
%ADD55R,0.0900X0.0160*%
%ADD56O,0.0984X0.0240*%
%ADD57R,0.0984X0.0240*%
%ADD58O,0.0240X0.0984*%
%ADD59R,0.0240X0.0984*%
%ADD60C,0.0060*%
%ADD61C,0.0080*%
%ADD62C,0.0083*%
%ADD63C,0.0140*%
%ADD64C,0.0098*%
%ADD65C,0.0118*%
%ADD66C,0.0087*%
*
G04 Plot Data ***
*
G54D23*
G01X0029669Y0015042D02*
Y0014875D01*
Y0014958D02*
X0030169D01*
X0030086Y0014875D01*
X0007435Y0004806D02*
X0007872D01*
X0007435Y0005244D01*
Y0005353D01*
X0007490Y0005462D01*
X0007818D01*
X0007872Y0005353D01*
X0008127D02*
X0008182Y0005462D01*
X0008510D01*
X0008565Y0005353D01*
Y0005244D01*
X0008510Y0005134D01*
X0008182D01*
X0008127Y0005025D01*
Y0004916D01*
X0008182Y0004806D01*
X0008510D01*
X0008565Y0004916D01*
X0021508Y0006812D02*
X0021726D01*
X0021617D02*
Y0007468D01*
X0021726Y0007359D01*
X0022090D02*
X0022145Y0007468D01*
X0022473D01*
X0022528Y0007359D01*
Y0007250D01*
X0022473Y0007140D01*
X0022145D01*
X0022090Y0007031D01*
Y0006922D01*
X0022145Y0006812D01*
X0022473D01*
X0022528Y0006922D01*
X0001614Y0017100D02*
X0002051D01*
X0001832Y0017538D01*
X0001723D01*
Y0016882D01*
X0002306Y0017428D02*
X0002361Y0017538D01*
X0002689D01*
X0002743Y0017428D01*
Y0017319D01*
X0002689Y0017210D01*
X0002361D01*
X0002306Y0017100D01*
Y0016991D01*
X0002361Y0016882D01*
X0002689D01*
X0002743Y0016991D01*
X0019043Y0020334D02*
X0018934Y0020225D01*
X0018715D01*
X0018606Y0020334D01*
Y0020444D01*
X0018824Y0020662D01*
X0018606Y0020881D01*
X0019043D01*
X0019298Y0020772D02*
X0019353Y0020881D01*
X0019681D01*
X0019735Y0020772D01*
Y0020662D01*
X0019681Y0020553D01*
X0019353D01*
X0019298Y0020444D01*
Y0020334D01*
X0019353Y0020225D01*
X0019681D01*
X0019735Y0020334D01*
X0028815Y0018448D02*
X0029095D01*
X0028955Y0018308D02*
Y0018588D01*
X0029165Y0018823D02*
Y0019103D01*
X0028885Y0018823D01*
X0028815D01*
X0028745Y0018858D01*
Y0019068D01*
X0028815Y0019103D01*
Y0019338D02*
X0028745Y0019373D01*
Y0019583D01*
X0028815Y0019618D01*
X0028885D01*
X0028955Y0019583D01*
Y0019373D01*
X0029025Y0019338D01*
X0029095D01*
X0029165Y0019373D01*
Y0019583D01*
X0029095Y0019618D01*
X0030310Y0019470D02*
X0030590D01*
X0030450Y0019330D02*
Y0019610D01*
X0030590Y0020125D02*
X0030660Y0020055D01*
Y0019915D01*
X0030590Y0019845D01*
X0030520D01*
X0030380Y0019985D01*
X0030240Y0019845D01*
Y0020125D01*
X0030310Y0020360D02*
X0030240Y0020395D01*
Y0020605D01*
X0030310Y0020640D01*
X0030380D01*
X0030450Y0020605D01*
Y0020395D01*
X0030520Y0020360D01*
X0030590D01*
X0030660Y0020395D01*
Y0020605D01*
X0030590Y0020640D01*
X0028994Y0020196D02*
Y0020476D01*
X0029134Y0020991D02*
X0029204Y0020921D01*
Y0020781D01*
X0029134Y0020711D01*
X0029064D01*
X0028924Y0020851D01*
X0028784Y0020711D01*
Y0020991D01*
X0028854Y0021226D02*
X0028784Y0021261D01*
Y0021471D01*
X0028854Y0021506D01*
X0028924D01*
X0028994Y0021471D01*
Y0021261D01*
X0029064Y0021226D01*
X0029134D01*
X0029204Y0021261D01*
Y0021471D01*
X0029134Y0021506D01*
X0027958Y0022136D02*
X0028238D01*
X0028473Y0022066D02*
X0028753D01*
X0028613Y0022346D01*
X0028543D01*
Y0021926D01*
X0028988Y0022276D02*
X0029023Y0022346D01*
X0029233D01*
X0029268Y0022276D01*
Y0022206D01*
X0029233Y0022136D01*
X0029023D01*
X0028988Y0022066D01*
Y0021996D01*
X0029023Y0021926D01*
X0029233D01*
X0029268Y0021996D01*
X0030310Y0022499D02*
X0030590D01*
X0030450Y0022359D02*
Y0022639D01*
X0030520Y0022874D02*
Y0023154D01*
X0030240Y0023014D01*
Y0022944D01*
X0030660D01*
X0030310Y0023389D02*
X0030240Y0023424D01*
Y0023634D01*
X0030310Y0023669D01*
X0030380D01*
X0030450Y0023634D01*
Y0023424D01*
X0030520Y0023389D01*
X0030590D01*
X0030660Y0023424D01*
Y0023634D01*
X0030590Y0023669D01*
X0028751Y0024172D02*
X0029085D01*
X0028918Y0024005D02*
Y0024338D01*
X0028668Y0024580D02*
X0028835D01*
X0029168Y0024747D01*
X0028835Y0024913D01*
X0028668D01*
X0027746Y0025803D02*
Y0025303D01*
X0027996D01*
X0028038Y0025386D01*
Y0025553D01*
X0027996Y0025636D01*
X0027746D01*
X0028279Y0025303D02*
Y0025553D01*
X0028321Y0025636D01*
X0028571D01*
Y0025303D01*
X0029021Y0025136D02*
X0028854D01*
X0028813Y0025220D01*
Y0025636D01*
X0029063D01*
X0029104Y0025553D01*
Y0025386D01*
X0029063Y0025303D01*
X0028813D01*
X-0002632Y0001826D02*
X-0002633D01*
Y0001825D01*
X-0002632D01*
Y0001826D01*
X-0002133Y0001742D02*
Y0001909D01*
Y0001826D02*
X-0002466D01*
Y0001909D01*
Y0002234D02*
Y0002484D01*
X-0002383Y0002526D01*
X-0002299Y0002484D01*
Y0002234D01*
X-0002216Y0002192D01*
X-0002133Y0002234D01*
Y0002484D01*
X-0002632Y0002851D02*
X-0002633D01*
Y0002850D01*
X-0002632D01*
Y0002851D01*
X-0002133Y0002767D02*
Y0002934D01*
Y0002851D02*
X-0002466D01*
Y0002934D01*
X-0002633Y0003217D02*
X-0002133D01*
Y0003467D01*
X-0002216Y0003509D01*
X-0002383D01*
X-0002466Y0003467D01*
Y0003217D01*
X-0002133Y0003751D02*
X-0002383D01*
X-0002466Y0003792D01*
Y0004042D01*
X-0002133D01*
X-0002632Y0004368D02*
X-0002633D01*
Y0004367D01*
X-0002632D01*
Y0004368D01*
X-0002133Y0004284D02*
Y0004451D01*
Y0004367D02*
X-0002466D01*
Y0004451D01*
Y0004734D02*
Y0004901D01*
X-0002383Y0004942D01*
Y0005026D01*
X-0002466D02*
X-0002133D01*
Y0005559D02*
X-0002633D01*
X-0002133Y0005601D02*
Y0005351D01*
X-0002216Y0005267D01*
X-0002299D01*
X-0002383Y0005309D01*
Y0005559D02*
Y0005309D01*
X-0002466Y0005267D01*
X-0002549D01*
X-0002633Y0005351D01*
Y0005601D01*
X-0002466Y0006855D02*
Y0006688D01*
X-0002383Y0006646D01*
X-0002216D01*
X-0002133Y0006605D01*
Y0006896D01*
X-0002216Y0006938D01*
X-0002299Y0006896D01*
Y0006646D01*
X-0002133Y0007221D02*
Y0007471D01*
X-0002216Y0007513D01*
X-0002383D01*
X-0002466Y0007471D01*
Y0007221D01*
X-0002383Y0007180D01*
X-0002299D01*
Y0007513D01*
X-0002133Y0007755D02*
X-0002383D01*
X-0002466Y0007796D01*
Y0008046D01*
X-0002133D01*
X-0002383Y0008371D02*
Y0008621D01*
X-0002133Y0008288D02*
Y0008621D01*
X-0002633D01*
Y0008288D01*
X-0002133Y0009709D02*
Y0009626D01*
X-0002216D01*
Y0009709D01*
X-0002133D01*
X-0002383Y0010159D02*
X-0002133Y0010034D01*
X-0002383Y0010367D02*
Y0010117D01*
X-0002466Y0010034D01*
X-0002549D01*
X-0002633Y0010117D01*
Y0010367D01*
X-0002133D01*
Y0010692D02*
Y0010609D01*
X-0002216D01*
Y0010692D01*
X-0002133D01*
X-0002216Y0011017D02*
X-0002133Y0011059D01*
Y0011309D01*
X-0002216Y0011351D01*
X-0002549D01*
X-0002633Y0011309D01*
Y0011059D01*
X-0002549Y0011017D01*
X-0002836Y0002182D02*
X-0002919Y0002224D01*
X-0003086D01*
X-0003169Y0002182D01*
Y0001932D01*
X-0003086Y0001890D01*
X-0002919D01*
X-0002836Y0001932D01*
Y0002182D01*
Y0002465D02*
X-0003086D01*
X-0003169Y0002507D01*
Y0002757D01*
X-0002836D01*
X-0003169Y0003249D02*
Y0003082D01*
X-0003086Y0003040D01*
X-0002919D01*
X-0002836Y0002999D01*
Y0003290D01*
X-0002919Y0003332D01*
X-0003003Y0003290D01*
Y0003040D01*
X-0003335Y0003657D02*
X-0003336D01*
X-0003335D01*
X-0002836Y0003574D02*
Y0003740D01*
Y0003657D02*
X-0003169D01*
Y0003740D01*
Y0004024D02*
Y0004190D01*
X-0003086Y0004232D01*
Y0004315D01*
X-0003169D02*
X-0002836D01*
X-0003169Y0004599D02*
X-0002836D01*
Y0004557D02*
Y0004849D01*
X-0002919Y0004890D01*
X-0003169D01*
X-0003253Y0005132D02*
X-0003336Y0005174D01*
Y0005424D01*
X-0003253Y0005465D01*
X-0003169D01*
X-0003086Y0005424D01*
Y0005174D01*
X-0003003Y0005132D01*
X-0002919D01*
X-0002836Y0005174D01*
Y0005424D01*
X-0002919Y0005465D01*
X-0002836Y0006761D02*
X-0002919Y0006803D01*
X-0003086D01*
X-0003169Y0006761D01*
Y0006511D01*
X-0003086Y0006469D01*
X-0002919D01*
X-0002836Y0006511D01*
Y0006761D01*
X-0003169Y0007044D02*
Y0007294D01*
X-0003086Y0007336D01*
X-0002919D01*
X-0002836Y0007294D01*
Y0007044D01*
X-0003335Y0007662D02*
X-0003336D01*
Y0007661D01*
X-0003335D01*
Y0007662D01*
X-0002836Y0007578D02*
Y0007744D01*
Y0007661D02*
X-0003169D01*
Y0007744D01*
X-0002836Y0008028D02*
X-0003086D01*
X-0003169Y0008069D01*
Y0008319D01*
X-0002836D01*
Y0008603D02*
Y0008853D01*
X-0002919Y0008894D01*
X-0003086D01*
X-0003169Y0008853D01*
Y0008603D01*
X-0003086Y0008561D01*
X-0003003D01*
Y0008894D01*
X-0002836Y0009303D02*
X-0003086D01*
X-0002836Y0009136D02*
X-0003086D01*
X-0003169Y0009178D01*
Y0009261D01*
X-0003086Y0009303D01*
X-0003169Y0009344D01*
Y0009428D01*
X-0003086Y0009469D01*
X-0002836D01*
Y0010003D02*
X-0002919Y0010044D01*
X-0003086D01*
X-0003169Y0010003D01*
Y0009753D01*
X-0003086Y0009711D01*
X-0002919D01*
X-0002836Y0009753D01*
Y0010003D01*
Y0010578D02*
X-0003336D01*
X-0002836Y0010619D02*
Y0010369D01*
X-0003003Y0010286D01*
X-0003169D01*
X-0003336Y0010369D01*
Y0010619D01*
X-0002836Y0011707D02*
Y0011624D01*
X-0002919D01*
Y0011707D01*
X-0002836D01*
X-0002669Y0012240D02*
Y0012074D01*
X-0002753Y0012032D01*
X-0003169D01*
Y0012282D01*
X-0003086Y0012324D01*
X-0002919D01*
X-0002836Y0012282D01*
Y0012032D01*
Y0012565D02*
X-0003086D01*
X-0003169Y0012607D01*
Y0012857D01*
X-0002836D01*
Y0013099D02*
Y0013265D01*
Y0013182D02*
X-0003336D01*
Y0013099D02*
Y0013265D01*
X0010783Y0012644D02*
Y0012924D01*
X0010853Y0013159D02*
Y0013439D01*
X0010573Y0013299D01*
Y0013229D01*
X0010993D01*
Y0013919D02*
X0010573D01*
X0010993Y0013954D02*
Y0013744D01*
X0010923Y0013674D01*
X0010853D01*
X0010783Y0013709D01*
Y0013919D02*
Y0013709D01*
X0010713Y0013674D01*
X0010643D01*
X0010573Y0013744D01*
Y0013954D01*
X0001155Y0025462D02*
Y0025182D01*
X0001015Y0025322D02*
X0001295D01*
X0001530Y0025252D02*
X0001810D01*
X0001670Y0025532D01*
X0001600D01*
Y0025112D01*
X0002290D02*
Y0025532D01*
X0002325Y0025112D02*
X0002115D01*
X0002045Y0025182D01*
Y0025252D01*
X0002080Y0025322D01*
X0002290D02*
X0002080D01*
X0002045Y0025392D01*
Y0025462D01*
X0002115Y0025532D01*
X0002325D01*
X-0005278Y0011713D02*
X-0004998D01*
X-0004763Y0011643D02*
X-0004483D01*
X-0004623Y0011923D01*
X-0004693D01*
Y0011503D01*
X-0004108Y0011713D02*
X-0004248D01*
Y0011573D01*
X-0004213Y0011503D01*
X-0004003D01*
X-0003968Y0011573D01*
Y0011853D01*
X-0004003Y0011923D01*
X-0004213D01*
X-0004248Y0011853D01*
X0004341Y0023338D02*
Y0023058D01*
X0004201Y0023198D02*
X0004481D01*
X0004716Y0023128D02*
X0004996D01*
X0004856Y0023408D01*
X0004786D01*
Y0022988D01*
X0005371Y0023198D02*
X0005231D01*
Y0023058D01*
X0005266Y0022988D01*
X0005476D01*
X0005511Y0023058D01*
Y0023338D01*
X0005476Y0023408D01*
X0005266D01*
X0005231Y0023338D01*
X0025227Y0014764D02*
Y0014484D01*
X0025087Y0014624D02*
X0025367D01*
X0025882Y0014484D02*
X0025812Y0014414D01*
X0025672D01*
X0025602Y0014484D01*
Y0014554D01*
X0025742Y0014694D01*
X0025602Y0014834D01*
X0025882D01*
X0026362Y0014414D02*
Y0014834D01*
X0026397Y0014414D02*
X0026187D01*
X0026117Y0014484D01*
Y0014554D01*
X0026152Y0014624D01*
X0026362D02*
X0026152D01*
X0026117Y0014694D01*
Y0014764D01*
X0026187Y0014834D01*
X0026397D01*
X0010062Y0022687D02*
X0010342D01*
X0010857Y0022547D02*
X0010787Y0022477D01*
X0010647D01*
X0010577Y0022547D01*
Y0022617D01*
X0010717Y0022757D01*
X0010577Y0022897D01*
X0010857D01*
X0011337Y0022477D02*
Y0022897D01*
X0011372Y0022477D02*
X0011162D01*
X0011092Y0022547D01*
Y0022617D01*
X0011127Y0022687D01*
X0011337D02*
X0011127D01*
X0011092Y0022757D01*
Y0022827D01*
X0011162Y0022897D01*
X0011372D01*
X0025218Y0022713D02*
Y0022993D01*
X0025358Y0023508D02*
X0025428Y0023438D01*
Y0023298D01*
X0025358Y0023228D01*
X0025288D01*
X0025148Y0023368D01*
X0025008Y0023228D01*
Y0023508D01*
X0025218Y0023883D02*
Y0023743D01*
X0025358D01*
X0025428Y0023778D01*
Y0023988D01*
X0025358Y0024023D01*
X0025078D01*
X0025008Y0023988D01*
Y0023778D01*
X0025078Y0023743D01*
X0025620Y0019248D02*
Y0018968D01*
X0025480Y0019108D02*
X0025760D01*
X0026275Y0018968D02*
X0026205Y0018898D01*
X0026065D01*
X0025995Y0018968D01*
Y0019038D01*
X0026135Y0019178D01*
X0025995Y0019318D01*
X0026275D01*
X0026650Y0019108D02*
X0026510D01*
Y0018968D01*
X0026545Y0018898D01*
X0026755D01*
X0026790Y0018968D01*
Y0019248D01*
X0026755Y0019318D01*
X0026545D01*
X0026510Y0019248D01*
X0013829Y0011328D02*
X0014109D01*
X0013969Y0011188D02*
Y0011468D01*
X0014179Y0011703D02*
Y0011983D01*
X0013899Y0011703D01*
X0013829D01*
X0013759Y0011738D01*
Y0011948D01*
X0013829Y0011983D01*
X0014179Y0012463D02*
X0013759D01*
X0014179Y0012498D02*
Y0012288D01*
X0014109Y0012218D01*
X0014039D01*
X0013969Y0012253D01*
Y0012463D02*
Y0012253D01*
X0013899Y0012218D01*
X0013829D01*
X0013759Y0012288D01*
Y0012498D01*
X0010927Y-0002290D02*
X0011207D01*
X0011442Y-0002500D02*
X0011722D01*
X0011442Y-0002220D01*
Y-0002150D01*
X0011477Y-0002080D01*
X0011687D01*
X0011722Y-0002150D01*
X0012202Y-0002500D02*
Y-0002080D01*
X0012237Y-0002500D02*
X0012027D01*
X0011957Y-0002430D01*
Y-0002360D01*
X0011992Y-0002290D01*
X0012202D02*
X0011992D01*
X0011957Y-0002220D01*
Y-0002150D01*
X0012027Y-0002080D01*
X0012237D01*
X-0001070Y-0002250D02*
X-0000790D01*
X-0000555Y-0002460D02*
X-0000275D01*
X-0000555Y-0002180D01*
Y-0002110D01*
X-0000520Y-0002040D01*
X-0000310D01*
X-0000275Y-0002110D01*
X0000100Y-0002250D02*
X-0000040D01*
Y-0002390D01*
X-0000005Y-0002460D01*
X0000205D01*
X0000240Y-0002390D01*
Y-0002110D01*
X0000205Y-0002040D01*
X-0000005D01*
X-0000040Y-0002110D01*
X0008707Y0011774D02*
Y0011494D01*
X0008567Y0011634D02*
X0008847D01*
X0009082Y0011424D02*
X0009362D01*
X0009082Y0011704D01*
Y0011774D01*
X0009117Y0011844D01*
X0009327D01*
X0009362Y0011774D01*
X0009737Y0011634D02*
X0009597D01*
Y0011494D01*
X0009632Y0011424D01*
X0009842D01*
X0009877Y0011494D01*
Y0011774D01*
X0009842Y0011844D01*
X0009632D01*
X0009597Y0011774D01*
X0021145Y-0002093D02*
X0021425D01*
X0021660Y-0002303D02*
X0021800D01*
X0021730D02*
Y-0001883D01*
X0021800Y-0001953D01*
X0022350Y-0002303D02*
Y-0001883D01*
X0022385Y-0002303D02*
X0022175D01*
X0022105Y-0002233D01*
Y-0002163D01*
X0022140Y-0002093D01*
X0022350D02*
X0022140D01*
X0022105Y-0002023D01*
Y-0001953D01*
X0022175Y-0001883D01*
X0022385D01*
X0028483Y0010476D02*
Y0010196D01*
X0028343Y0010336D02*
X0028623D01*
X0028858Y0010126D02*
X0028998D01*
X0028928D02*
Y0010546D01*
X0028998Y0010476D01*
X0029548Y0010126D02*
Y0010546D01*
X0029583Y0010126D02*
X0029373D01*
X0029303Y0010196D01*
Y0010266D01*
X0029338Y0010336D01*
X0029548D02*
X0029338D01*
X0029303Y0010406D01*
Y0010476D01*
X0029373Y0010546D01*
X0029583D01*
X0016936Y-0000244D02*
X0017216D01*
X0017451Y-0000454D02*
X0017591D01*
X0017521D02*
Y-0000034D01*
X0017591Y-0000104D01*
X0018036Y-0000244D02*
X0017896D01*
Y-0000384D01*
X0017931Y-0000454D01*
X0018141D01*
X0018176Y-0000384D01*
Y-0000104D01*
X0018141Y-0000034D01*
X0017931D01*
X0017896Y-0000104D01*
X0029191Y0003042D02*
Y0002762D01*
X0029051Y0002902D02*
X0029331D01*
X0029566Y0002692D02*
X0029706D01*
X0029636D02*
Y0003112D01*
X0029706Y0003042D01*
X0030151Y0002902D02*
X0030011D01*
Y0002762D01*
X0030046Y0002692D01*
X0030256D01*
X0030291Y0002762D01*
Y0003042D01*
X0030256Y0003112D01*
X0030046D01*
X0030011Y0003042D01*
X0030301Y0016402D02*
X0030581D01*
X0030441Y0016262D02*
Y0016542D01*
X0030651Y0016777D02*
Y0016917D01*
Y0016847D02*
X0030231D01*
X0030301Y0016917D01*
Y0017222D02*
X0030231Y0017257D01*
Y0017467D01*
X0030301Y0017502D01*
X0030371D01*
X0030441Y0017467D01*
Y0017257D01*
X0030511Y0017222D01*
X0030581D01*
X0030651Y0017257D01*
Y0017467D01*
X0030581Y0017502D01*
X0027919Y0017770D02*
X0028199D01*
X0028434Y0017560D02*
X0028714D01*
X0028434Y0017840D01*
Y0017910D01*
X0028469Y0017980D01*
X0028679D01*
X0028714Y0017910D01*
X0028949D02*
X0028984Y0017980D01*
X0029194D01*
X0029229Y0017910D01*
Y0017840D01*
X0029194Y0017770D01*
X0028984D01*
X0028949Y0017700D01*
Y0017630D01*
X0028984Y0017560D01*
X0029194D01*
X0029229Y0017630D01*
G54D60*
G01X0029259Y0004847D02*
X0029204Y0004791D01*
X0029093D01*
X0029037Y0004847D01*
Y0004902D01*
X0029148Y0005013D01*
X0029037Y0005125D01*
X0029259D01*
X0029407Y0004791D02*
X0029518D01*
X0029462D02*
Y0005125D01*
X0029518Y0005069D01*
X0029805Y0004958D02*
X0029721Y0004791D01*
X0029944Y0004958D02*
X0029777D01*
X0029721Y0005013D01*
Y0005069D01*
X0029777Y0005125D01*
X0029944D01*
Y0004791D01*
X0009072Y0017196D02*
X0009017Y0017140D01*
X0008989Y0017085D01*
Y0016974D01*
X0009017Y0016918D01*
X0009072Y0016863D01*
X0009128D01*
X0009183Y0016918D01*
X0009211Y0016974D01*
Y0017085D01*
X0009183Y0017140D01*
X0009128Y0017196D01*
X0009072D01*
X0008841Y0017085D02*
X0008619D01*
X0008730Y0016863D01*
X0008786D01*
Y0017196D01*
X0008471Y0017140D02*
X0008443Y0017196D01*
X0008277D01*
X0008249Y0017140D01*
Y0016918D01*
X0008277Y0016863D01*
X0008443D01*
X0008471Y0016918D01*
X0006295Y0022360D02*
Y0022193D01*
X0006351Y0022166D01*
X0006406D01*
X0006462Y0022193D01*
Y0022360D01*
X0006406Y0022388D01*
X0006351D01*
X0006129Y0022277D01*
X0006184Y0021796D02*
X0006129Y0021851D01*
Y0021962D01*
X0006184Y0022018D01*
X0006240D01*
X0006351Y0021907D01*
X0006462Y0022018D01*
Y0021796D01*
X0006184Y0021648D02*
X0006129Y0021620D01*
Y0021453D01*
X0006184Y0021426D01*
X0006406D01*
X0006462Y0021453D01*
Y0021620D01*
X0006406Y0021648D01*
X0029491Y0014234D02*
X0029547Y0014178D01*
Y0014067D01*
X0029491Y0014011D01*
X0029435D01*
X0029324Y0014122D01*
X0029213Y0014011D01*
Y0014234D01*
X0029491Y0014381D02*
X0029547Y0014409D01*
Y0014576D01*
X0029491Y0014604D01*
X0029269D01*
X0029213Y0014576D01*
Y0014409D01*
X0029269Y0014381D01*
X0008781Y0021789D02*
X0008947D01*
X0008975Y0021844D01*
Y0021900D01*
X0008947Y0021955D01*
X0008781D01*
X0008753Y0021900D01*
Y0021844D01*
X0008864Y0021622D01*
X0008383Y0021900D02*
X0008439Y0021955D01*
X0008550D01*
X0008605Y0021900D01*
Y0021844D01*
X0008494Y0021733D01*
X0008605Y0021622D01*
X0008383D01*
X0008235Y0021900D02*
X0008207Y0021955D01*
X0008041D01*
X0008013Y0021900D01*
Y0021677D01*
X0008041Y0021622D01*
X0008207D01*
X0008235Y0021677D01*
X0029273Y0012120D02*
X0029217Y0012175D01*
Y0012286D01*
X0029273Y0012342D01*
X0029328D01*
X0029439Y0012231D01*
X0029551Y0012342D01*
Y0012120D01*
X0029384Y0011889D02*
X0029217Y0011972D01*
X0029384Y0011750D02*
Y0011916D01*
X0029439Y0011972D01*
X0029495D01*
X0029551Y0011916D01*
Y0011750D01*
X0029217D01*
X0027553Y0019700D02*
X0026373D01*
Y0020630D01*
X0027553D01*
Y0019726D01*
X0002144Y-0002366D02*
X0000964D01*
Y-0001436D01*
X0002144D01*
Y-0002340D01*
X0002360Y0023704D02*
X0003540D01*
Y0022774D01*
X0002360D01*
Y0023679D01*
X0030504Y0013314D02*
Y0014914D01*
X0029754D01*
Y0013314D01*
X0030504D01*
X0018959Y-0001717D02*
X0017779D01*
Y-0000787D01*
X0018959D01*
Y-0001691D01*
X0009500Y0022913D02*
X0007900D01*
Y0022163D01*
X0009500D01*
Y0022913D01*
X0025331Y0022563D02*
X0026511D01*
Y0021633D01*
X0025331D01*
Y0022538D01*
X0029754Y0013059D02*
X0030504D01*
Y0011459D01*
X0029754D01*
Y0013059D01*
X0009283Y0011275D02*
X0010463D01*
Y0010345D01*
X0009283D01*
Y0011249D01*
X0029775Y0001587D02*
X0028595D01*
Y0002517D01*
X0029775D01*
Y0001613D01*
X0028673Y0003834D02*
Y0004584D01*
X0030273D01*
Y0003834D01*
X0028673D01*
X0010011Y0018114D02*
X0008411D01*
Y0017364D01*
X0010011D01*
Y0018114D01*
X0006587Y0022637D02*
Y0021037D01*
X0007337D01*
Y0022637D01*
X0006587D01*
X-0004863Y0009597D02*
Y0010777D01*
X-0003933D01*
Y0009597D01*
X-0004838D01*
G54D61*
G01X0030629Y0019378D02*
Y0019267D01*
Y0019322D02*
X0030962D01*
X0030906Y0019267D01*
X0030740Y0018829D02*
X0030684D01*
X0030629Y0018857D01*
Y0018968D01*
X0030684Y0018996D01*
X0030962D01*
Y0019024D02*
Y0018912D01*
X0029354Y0025391D02*
Y0015403D01*
Y0015391D01*
X0030354D01*
Y0025391D01*
X0029354D01*
Y0015391D02*
X0029304Y0015341D01*
X0002478Y0025803D02*
X0002517Y0025763D01*
Y0024151D01*
X0006451D01*
Y0025763D01*
X0002517D01*
X0016481Y-0002635D02*
X0016441Y-0002596D01*
Y-0000983D01*
X0012508D01*
Y-0002596D01*
X0016441D01*
X0011918Y0009086D02*
X0011957Y0009125D01*
X0013570D01*
Y0013059D01*
X0011957D01*
Y0009125D01*
X0009833Y0018369D02*
X0009873Y0018408D01*
X0011485D01*
Y0022341D01*
X0009873D01*
Y0018408D01*
X0022459Y-0000944D02*
X0022499Y-0000983D01*
Y-0002596D01*
X0026432D01*
Y-0000983D01*
X0022499D01*
X0010384Y0016363D02*
X0010345Y0016323D01*
X0008732D01*
Y0012390D01*
X0010345D01*
Y0016323D01*
X0026511Y0013963D02*
X0026550Y0014003D01*
X0028163D01*
Y0017936D01*
X0026550D01*
Y0014003D01*
X0030365Y0009991D02*
X0030326Y0009951D01*
X0028713D01*
Y0006018D01*
X0030326D01*
Y0009951D01*
G54D62*
G01X-0004114Y0008741D02*
X-0004225D01*
X-0004170D02*
Y0008408D01*
X-0004225Y0008463D01*
X-0004640Y0008741D02*
X-0004474Y0008408D01*
X-0004696D01*
X-0004972Y0008575D02*
X-0004889Y0008741D01*
X-0005111Y0008575D02*
X-0004945D01*
X-0004889Y0008519D01*
Y0008463D01*
X-0004945Y0008408D01*
X-0005111D01*
Y0008741D01*
X0028340Y0020625D02*
Y0020792D01*
X0028284Y0020820D01*
X0028228D01*
X0028173Y0020792D01*
Y0020625D01*
X0028228Y0020597D01*
X0028284D01*
X0028506Y0020709D01*
X0028284Y0020404D02*
Y0020182D01*
X0028506Y0020293D01*
Y0020349D01*
X0028173D01*
X0028340Y0019906D02*
X0028173Y0019989D01*
X0028340Y0019767D02*
Y0019933D01*
X0028395Y0019989D01*
X0028451D01*
X0028506Y0019933D01*
Y0019767D01*
X0028173D01*
X0003055Y-0001783D02*
X0003000Y-0001755D01*
Y-0001589D01*
X0003055Y-0001561D01*
X0003166D01*
X0003222Y-0001616D01*
Y-0001783D01*
X0003333D01*
Y-0001561D01*
X0003055Y-0002198D02*
X0003000Y-0002143D01*
Y-0002032D01*
X0003055Y-0001976D01*
X0003111D01*
X0003222Y-0002087D01*
X0003333Y-0001976D01*
Y-0002198D01*
X0003166Y-0002475D02*
X0003000Y-0002391D01*
X0003166Y-0002614D02*
Y-0002447D01*
X0003222Y-0002391D01*
X0003277D01*
X0003333Y-0002447D01*
Y-0002614D01*
X0003000D01*
X0001606Y0023397D02*
X0001661Y0023369D01*
Y0023202D01*
X0001606Y0023174D01*
X0001495D01*
X0001439Y0023230D01*
Y0023397D01*
X0001328D01*
Y0023174D01*
X0001495Y0023784D02*
Y0023618D01*
X0001550Y0023590D01*
X0001606D01*
X0001661Y0023618D01*
Y0023784D01*
X0001606Y0023812D01*
X0001550D01*
X0001328Y0023701D01*
X0001495Y0024088D02*
X0001661Y0024005D01*
X0001495Y0024227D02*
Y0024061D01*
X0001439Y0024005D01*
X0001383D01*
X0001328Y0024061D01*
Y0024227D01*
X0001661D01*
X0018424Y-0002326D02*
X0018257Y-0001992D01*
X0018480D01*
X0018673Y-0002326D02*
X0018784D01*
X0018728D02*
Y-0001992D01*
X0018784Y-0002048D01*
X0019116Y-0002159D02*
X0019032Y-0002326D01*
X0019255Y-0002159D02*
X0019088D01*
X0019032Y-0002103D01*
Y-0002048D01*
X0019088Y-0001992D01*
X0019255D01*
Y-0002326D01*
X0024694Y0022885D02*
X0024750Y0022830D01*
Y0022719D01*
X0024694Y0022663D01*
X0024639D01*
X0024528Y0022774D01*
X0024417Y0022663D01*
Y0022885D01*
X0024694Y0023301D02*
X0024750Y0023273D01*
Y0023106D01*
X0024694Y0023078D01*
X0024583D01*
X0024528Y0023134D01*
Y0023301D01*
X0024417D01*
Y0023078D01*
X0024583Y0023577D02*
X0024750Y0023494D01*
X0024583Y0023716D02*
Y0023549D01*
X0024528Y0023494D01*
X0024472D01*
X0024417Y0023549D01*
Y0023716D01*
X0024750D01*
X0007709Y0010655D02*
X0007654Y0010627D01*
X0007598D01*
X0007543Y0010655D01*
Y0010822D01*
X0007598Y0010849D01*
X0007654D01*
X0007709Y0010822D01*
Y0010655D01*
X0007765Y0010627D01*
X0007820D01*
X0007876Y0010655D01*
Y0010822D01*
X0007820Y0010849D01*
X0007765D01*
X0007709Y0010822D01*
X0007876Y0011042D02*
Y0011265D01*
X0007654Y0011042D01*
X0007598D01*
X0007543Y0011070D01*
Y0011237D01*
X0007598Y0011265D01*
X0007709Y0011541D02*
X0007876Y0011458D01*
X0007709Y0011680D02*
Y0011513D01*
X0007654Y0011458D01*
X0007598D01*
X0007543Y0011513D01*
Y0011680D01*
X0007876D01*
X0028977Y0000939D02*
X0029033Y0000994D01*
X0029060Y0001050D01*
Y0001161D01*
X0029033Y0001217D01*
X0028977Y0001272D01*
X0028921D01*
X0028866Y0001217D01*
X0028838Y0001161D01*
Y0001050D01*
X0028866Y0000994D01*
X0028921Y0000939D01*
X0028977D01*
X0029253D02*
X0029364D01*
X0029309D02*
Y0001272D01*
X0029364Y0001217D01*
X0029696Y0001106D02*
X0029613Y0000939D01*
X0029835Y0001106D02*
X0029669D01*
X0029613Y0001161D01*
Y0001217D01*
X0029669Y0001272D01*
X0029835D01*
Y0000939D01*
G54D64*
G01X0021353Y0002499D02*
G03X0024805Y0005951I0000000J0003452D01*
G01X0017901D02*
G03X0021353Y0002499I0003452J0000000D01*
Y0009402D02*
G03X0017902Y0005951I0000000J0003451D01*
G01X0024804D02*
G03X0021353Y0009402I0003451J0000000D01*
G01X0001568Y0012569D02*
G03X0005019Y0016020I0000000J0003451D01*
G01X-0001883D02*
G03X0001568Y0012569I0003451J0000000D01*
Y0019471D02*
G03X-0001883Y0016020I0000000J0003451D01*
G01X0005019D02*
G03X0001568Y0019471I0003451J0000000D01*
G01X0018560Y0015912D02*
G03X0022011Y0019363I0000000J0003451D01*
G01X0015109D02*
G03X0018560Y0015912I0003451J0000000D01*
Y0022814D02*
G03X0015109Y0019363I0000000J0003451D01*
G01X0022011D02*
G03X0018560Y0022814I0003451J0000000D01*
G01X0007389Y0000494D02*
G03X0010840Y0003945I0000000J0003451D01*
G01X0003938D02*
G03X0007389Y0000494I0003451J0000000D01*
Y0007396D02*
G03X0003938Y0003945I0000000J0003451D01*
G01X0010840D02*
G03X0007389Y0007396I0003451J0000000D01*
G54D65*
G01X0006196Y0002754D02*
X0006634D01*
X0006415Y0003191D01*
X0006306D01*
Y0002535D01*
X0007308D02*
Y0003191D01*
X0007362Y0002535D02*
X0007034D01*
X0006925Y0002645D01*
Y0002754D01*
X0006980Y0002863D01*
X0007308D02*
X0006980D01*
X0006925Y0002973D01*
Y0003082D01*
X0007034Y0003191D01*
X0007362D01*
X0007653Y0002863D02*
X0008091D01*
X0008765Y0002535D02*
X0008819Y0002645D01*
Y0003082D01*
X0008765Y0003191D01*
X0008437D01*
X0008382Y0003082D01*
Y0002645D01*
X0008437Y0002535D01*
X0008765D01*
X0009110Y0002645D02*
X0009165Y0002535D01*
X0009493D01*
X0009548Y0002645D01*
Y0003082D01*
X0009493Y0003191D01*
X0009165D01*
X0009110Y0003082D01*
X0019431Y0004760D02*
X0019869D01*
X0019650Y0005197D01*
X0019541D01*
Y0004541D01*
X0020543D02*
Y0005197D01*
X0020597Y0004541D02*
X0020269D01*
X0020160Y0004651D01*
Y0004760D01*
X0020215Y0004869D01*
X0020543D02*
X0020215D01*
X0020160Y0004979D01*
Y0005088D01*
X0020269Y0005197D01*
X0020597D01*
X0020888Y0004869D02*
X0021326D01*
X0021617Y0004541D02*
X0022054D01*
X0021617Y0004979D01*
Y0005088D01*
X0021672Y0005197D01*
X0022000D01*
X0022054Y0005088D01*
X0022728Y0004541D02*
X0022783Y0004651D01*
Y0005088D01*
X0022728Y0005197D01*
X0022400D01*
X0022345Y0005088D01*
Y0004651D01*
X0022400Y0004541D01*
X0022728D01*
X0023074Y0005197D02*
Y0004541D01*
X0023183Y0004651D01*
X0023402Y0005088D01*
X0023511Y0005197D01*
Y0004541D01*
X-0000353Y0014829D02*
X0000084D01*
X-0000134Y0015267D01*
X-0000244D01*
Y0014611D01*
X0000758D02*
Y0015267D01*
X0000813Y0014611D02*
X0000485D01*
X0000375Y0014720D01*
Y0014829D01*
X0000430Y0014939D01*
X0000758D02*
X0000430D01*
X0000375Y0015048D01*
Y0015157D01*
X0000485Y0015267D01*
X0000813D01*
X0001104Y0014939D02*
X0001541D01*
X0001832Y0014611D02*
X0002270D01*
X0001832Y0015048D01*
Y0015157D01*
X0001887Y0015267D01*
X0002215D01*
X0002270Y0015157D01*
X0002943Y0014611D02*
X0002998Y0014720D01*
Y0015157D01*
X0002943Y0015267D01*
X0002615D01*
X0002561Y0015157D01*
Y0014720D01*
X0002615Y0014611D01*
X0002943D01*
X0003289Y0015157D02*
X0003344Y0015267D01*
X0003672D01*
X0003727Y0015157D01*
Y0015048D01*
X0003672Y0014939D01*
X0003344D01*
X0003289Y0014829D01*
Y0014720D01*
X0003344Y0014611D01*
X0003672D01*
X0003727Y0014720D01*
X0017367Y0018173D02*
X0017805D01*
X0017586Y0018610D01*
X0017477D01*
Y0017954D01*
X0018478D02*
Y0018610D01*
X0018533Y0017954D02*
X0018205D01*
X0018096Y0018063D01*
Y0018173D01*
X0018150Y0018282D01*
X0018478D02*
X0018150D01*
X0018096Y0018391D01*
Y0018501D01*
X0018205Y0018610D01*
X0018533D01*
X0018824Y0018282D02*
X0019262D01*
X0019990Y0018063D02*
X0019881Y0017954D01*
X0019662D01*
X0019553Y0018063D01*
Y0018173D01*
X0019771Y0018391D01*
X0019553Y0018610D01*
X0019990D01*
X0020664Y0017954D02*
X0020719Y0018063D01*
Y0018501D01*
X0020664Y0018610D01*
X0020336D01*
X0020281Y0018501D01*
Y0018063D01*
X0020336Y0017954D01*
X0020664D01*
G01X0007372Y-0002505D02*
G03X0013869Y0003992I0000000J0006497D01*
G01X0000875D02*
G03X0007372Y-0002505I0006497J0000000D01*
Y0010490D02*
G03X0000874Y0003992I0000000J0006498D01*
G01X0013870D02*
G03X0007372Y0010490I0006498J0000000D01*
G01X0021336Y-0000500D02*
G03X0027834Y0005998I0000000J0006498D01*
G01X0014838D02*
G03X0021336Y-0000500I0006498J0000000D01*
Y0012495D02*
G03X0014839Y0005998I0000000J0006497D01*
G01X0027833D02*
G03X0021336Y0012495I0006497J0000000D01*
G01X0001551Y0009571D02*
G03X0008048Y0016068I0000000J0006497D01*
G01X-0004946D02*
G03X0001551Y0009571I0006497J0000000D01*
Y0022565D02*
G03X-0004946Y0016068I0000000J0006497D01*
G01X0008048D02*
G03X0001551Y0022565I0006497J0000000D01*
G01X0018543Y0012914D02*
G03X0025040Y0019411I0000000J0006497D01*
G01X0012046D02*
G03X0018543Y0012914I0006497J0000000D01*
Y0025908D02*
G03X0012046Y0019411I0000000J0006497D01*
G01X0025040D02*
G03X0018543Y0025908I0006497J0000000D01*
G54D66*
G01X0028287Y0008211D02*
Y0008491D01*
X0028007Y0008351D01*
Y0008281D01*
X0028427D01*
Y0008700D02*
Y0008840D01*
Y0008770D02*
X0028007D01*
X0028077Y0008840D01*
X0028217Y0009223D02*
X0028427Y0009118D01*
X0028217Y0009398D02*
Y0009188D01*
X0028147Y0009118D01*
X0028077D01*
X0028007Y0009188D01*
Y0009398D01*
X0028427D01*
X0006910Y0025158D02*
X0006700Y0025578D01*
X0006980D01*
X0007433Y0025368D02*
X0007223D01*
X0007188Y0025298D01*
Y0025228D01*
X0007223Y0025158D01*
X0007433D01*
X0007468Y0025228D01*
Y0025298D01*
X0007328Y0025578D01*
X0007781Y0025368D02*
X0007676Y0025158D01*
X0007956Y0025368D02*
X0007746D01*
X0007676Y0025438D01*
Y0025508D01*
X0007746Y0025578D01*
X0007956D01*
Y0025158D01*
X0015077Y-0000736D02*
X0014867Y-0000316D01*
X0015147D01*
X0015636Y-0000666D02*
X0015566Y-0000736D01*
X0015426D01*
X0015356Y-0000666D01*
Y-0000596D01*
X0015496Y-0000456D01*
X0015356Y-0000316D01*
X0015636D01*
X0015949Y-0000526D02*
X0015844Y-0000736D01*
X0016124Y-0000526D02*
X0015914D01*
X0015844Y-0000456D01*
Y-0000386D01*
X0015914Y-0000316D01*
X0016124D01*
Y-0000736D01*
X0013777Y0010000D02*
Y0009860D01*
Y0009930D02*
X0014197D01*
X0014127Y0009860D01*
X0013847Y0009301D02*
X0013777Y0009371D01*
Y0009511D01*
X0013847Y0009581D01*
X0013917D01*
X0014057Y0009441D01*
X0014197Y0009581D01*
Y0009301D01*
X0013987Y0008988D02*
X0013777Y0009093D01*
X0013987Y0008813D02*
Y0009023D01*
X0014057Y0009093D01*
X0014127D01*
X0014197Y0009023D01*
Y0008813D01*
X0013777D01*
X0011802Y0022337D02*
X0011732Y0022372D01*
Y0022582D01*
X0011802Y0022617D01*
X0011942D01*
X0012012Y0022547D01*
Y0022337D01*
X0012152D01*
Y0022617D01*
X0011802Y0021849D02*
X0011732Y0021884D01*
Y0022094D01*
X0011802Y0022129D01*
X0011942D01*
X0012012Y0022059D01*
Y0021849D01*
X0012152D01*
Y0022129D01*
X0011942Y0021535D02*
X0011732Y0021640D01*
X0011942Y0021360D02*
Y0021570D01*
X0012012Y0021640D01*
X0012082D01*
X0012152Y0021570D01*
Y0021360D01*
X0011732D01*
X0026052Y-0000575D02*
X0025842D01*
X0025807Y-0000645D01*
Y-0000715D01*
X0025842Y-0000785D01*
X0026052D01*
X0026087Y-0000715D01*
Y-0000645D01*
X0025947Y-0000365D01*
X0025599D02*
X0025459D01*
X0025529D02*
Y-0000785D01*
X0025459Y-0000715D01*
X0025075Y-0000575D02*
X0025180Y-0000365D01*
X0024900Y-0000575D02*
X0025110D01*
X0025180Y-0000645D01*
Y-0000715D01*
X0025110Y-0000785D01*
X0024900D01*
Y-0000365D01*
X0008415Y0012630D02*
X0008485Y0012560D01*
Y0012420D01*
X0008415Y0012350D01*
X0008345D01*
X0008205Y0012490D01*
X0008065Y0012350D01*
Y0012630D01*
X0008485Y0013048D02*
X0008065Y0012838D01*
Y0013118D01*
X0008275Y0013432D02*
X0008485Y0013327D01*
X0008275Y0013607D02*
Y0013397D01*
X0008205Y0013327D01*
X0008135D01*
X0008065Y0013397D01*
Y0013607D01*
X0008485D01*
X0026063Y0017075D02*
Y0016865D01*
X0026133Y0016830D01*
X0026203D01*
X0026273Y0016865D01*
Y0017075D01*
X0026203Y0017110D01*
X0026133D01*
X0025853Y0016970D01*
X0025993Y0016622D02*
Y0016342D01*
X0026273Y0016482D01*
Y0016552D01*
X0025853D01*
X0026063Y0016029D02*
X0025853Y0016134D01*
X0026063Y0015854D02*
Y0016064D01*
X0026133Y0016134D01*
X0026203D01*
X0026273Y0016064D01*
Y0015854D01*
X0025853D01*
G54D27*
%LPC*%
X0002635Y0004209D03*
X0004563Y0011603D03*
X0005467Y0004287D03*
X0005900Y0010738D03*
X-0002360Y0012508D03*
X-0002989Y0016559D03*
X0008653Y0019155D03*
X0006529Y0019313D03*
X0028595Y0005979D03*
X0007749Y0020139D03*
X0022341Y0018211D03*
X0029225Y0013059D03*
X0010266Y0016992D03*
X0009204Y0021397D03*
X0010659Y0002006D03*
X0029225Y0013059D03*
X0005900Y0010738D03*
X-0000354Y0013727D03*
X0018959Y0012233D03*
X0015261Y0010974D03*
X0019824Y0020453D03*
X0019627Y0021633D03*
X0006136Y0017346D03*
X0003658Y0016481D03*
X0010856Y0012193D03*
X0005900Y0010738D03*
X0009401Y0001062D03*
X0013019Y0006569D03*
X0019824Y0020453D03*
X0021161Y0018054D03*
X0006136Y0017346D03*
X0011210Y0016363D03*
X0021161Y0018054D03*
X0020689Y0014947D03*
X0020729Y0013806D03*
X0026196Y0017739D03*
X0007080Y0013334D03*
X0001101Y0014357D03*
X0028241Y0011171D03*
X0026117Y0013216D03*
X0015930Y0002596D03*
X0013019Y0006569D03*
X0002635Y0004209D03*
X0002163Y0001809D03*
X0018054Y0005153D03*
X0017897Y0003619D03*
X0026117Y0013216D03*
X0007867Y0005703D03*
X0026275Y0023639D03*
X0003658Y0016481D03*
X0001495Y0017857D03*
X0021515Y0023010D03*
X0022892Y0024347D03*
X0018054Y0005153D03*
X0022223Y0006529D03*
X0029421Y0005900D03*
X0009597Y-0002085D03*
X-0000354Y0013727D03*
X-0002360Y0012508D03*
X0006962Y0019863D03*
X0022341Y0018880D03*
X0021751Y0014947D03*
X0022774Y0013373D03*
X0015655Y0005231D03*
X0022774Y0023639D03*
X0015891Y0018447D03*
X0009597Y0004091D03*
X0015655Y0005231D03*
D03*
X0004012Y0015812D03*
X0009597Y0004091D03*
X0004799Y0001691D03*
X0027455Y0006136D03*
X0022341Y0018880D03*
X0023639Y0021083D03*
X0004012Y0015812D03*
X0000826Y0018093D03*
X0009204Y0016481D03*
X0001809Y0014475D03*
X0006175Y0013963D03*
X0030247Y0010069D03*
X0025488Y0005979D03*
X0025409Y0002596D03*
X0025331Y0015812D03*
X0029107Y0003383D03*
X0014986Y0008693D03*
X0016048Y0008732D03*
X0024937Y0005113D03*
X0022499Y0003147D03*
X-0003147Y0015104D03*
X0003147Y0002989D03*
X0021791Y0020650D03*
X0021279Y0015773D03*
X0023836Y0016323D03*
X0027848Y0019313D03*
X0017149Y0019470D03*
X0019470Y0017818D03*
X0008221Y0023285D03*
X0009204Y0018683D03*
X0018447Y0004641D03*
X0018801Y0003107D03*
X0025252Y0021043D03*
X0026471Y0007788D03*
X0008771Y0005585D03*
X0009676Y0007945D03*
X0019981Y-0001259D03*
X0022813Y0014868D03*
X0025842Y0015340D03*
X0009637Y-0001062D03*
X0012587Y-0000944D03*
X0015969Y0009479D03*
X0015065Y0009440D03*
X0006215Y0024387D03*
X0029421Y0005900D03*
X0013255Y0018290D03*
X0006490Y0016795D03*
X0018919Y0011210D03*
X0024623Y0011603D03*
X0002281Y0006726D03*
X0008299Y0010817D03*
X0018093Y0005939D03*
X0009204Y0023325D03*
X0007316Y0023167D03*
X0004130Y0021751D03*
X0014003Y0021043D03*
X0019706Y0010030D03*
X0008653Y0019155D03*
X0029382Y0015222D03*
X0004917Y0024111D03*
X0026786Y0001259D03*
X0000511Y0020099D03*
X0005192Y0014003D03*
X0007316Y0023167D03*
X0015458Y0019863D03*
X0016481Y0020532D03*
X0027219Y0019155D03*
X0023482Y0022184D03*
X0022145Y0024387D03*
X0003973Y-0002242D03*
X0025488Y0005979D03*
X0025252Y0009676D03*
X-0004091Y0015065D03*
X0008653Y0019155D03*
X0017267Y0001023D03*
X0009204Y0016481D03*
X0027061Y0024662D03*
X0019588Y0001219D03*
%LPD*%
G54D63*
%LPC*%
X0001613Y0019394D03*
X0003979Y0018414D03*
X-0000753D03*
X0001613Y0012701D03*
X0018605Y0022738D03*
X0020971Y0021757D03*
X0016238D03*
X0018605Y0016045D03*
X0007434Y0007319D03*
X0009800Y0006339D03*
X0005068D03*
X0007434Y0000626D03*
X0021397Y0009325D03*
X0023763Y0008345D03*
X0019031D03*
X0021397Y0002632D03*
X0009519Y0015419D03*
Y0014357D03*
Y0013295D03*
X0003422Y0024937D03*
X0004484D03*
X0005546D03*
X0010699Y0019313D03*
Y0020375D03*
Y0021437D03*
X0027376Y0014907D03*
Y0015969D03*
Y0017031D03*
X0015537Y-0001770D03*
X0014475D03*
X0013413D03*
X0012783Y0010030D03*
Y0011092D03*
Y0012154D03*
X0023403Y-0001809D03*
X0024465D03*
X0025527D03*
X0029500Y0009047D03*
Y0007985D03*
Y0006923D03*
X0012036Y0014632D03*
X0027691Y0023600D03*
X0027573Y0000000D03*
X0000039Y0023639D03*
Y-0000039D03*
X0029854Y0015891D03*
Y0016891D03*
Y0017891D03*
Y0018891D03*
Y0019891D03*
Y0020891D03*
Y0021891D03*
Y0022891D03*
Y0023891D03*
Y0024891D03*
%LPD*%
M02*
