%
T1C0.0280F200S100
X-004091Y015065
X-003147Y015104
X-002989Y016559
X-002360Y012508
X-000354Y013727
X000511Y020099
X000826Y018093
X001101Y014357
X001495Y017857
X001809Y014475
X002163Y001809
X002281Y006726
X002635Y004209
X003147Y002989
X003658Y016481
X003973Y-002242
X004012Y015812
X004130Y021751
X004563Y011603
X004799Y001691
X004917Y024111
X005192Y014003
X005467Y004287
X005900Y010738
X006136Y017346
X006175Y013963
X006215Y024387
X006490Y016795
X006529Y019313
X006962Y019863
X007080Y013334
X007316Y023167
X007749Y020139
X007867Y005703
X008221Y023285
X008299Y010817
X008653Y019155
X008771Y005585
X009204Y016481
X009204Y018683
X009204Y021397
X009204Y023325
X009401Y001062
X009597Y-002085
X009637Y-001062
X009597Y004091
X009676Y007945
X010266Y016992
X010659Y002006
X010856Y012193
X011210Y016363
X012587Y-000944
X013019Y006569
X013255Y018290
X014003Y021043
X014986Y008693
X015065Y009440
X015261Y010974
X015458Y019863
X015655Y005231
X015891Y018447
X015930Y002596
X015969Y009479
X016048Y008732
X016481Y020532
X017149Y019470
X017267Y001023
X017897Y003619
X018054Y005153
X018093Y005939
X018447Y004641
X018801Y003107
X018919Y011210
X018959Y012233
X019470Y017818
X019588Y001219
X019627Y021633
X019706Y010030
X019824Y020453
X019981Y-001259
X020689Y014947
X020729Y013806
X021161Y018054
X021279Y015773
X021515Y023010
X021751Y014947
X021791Y020650
X022145Y024387
X022223Y006529
X022341Y018211
X022341Y018880
X022499Y003147
X022774Y013373
X022774Y023639
X022813Y014868
X022892Y024347
X023482Y022184
X023639Y021083
X023836Y016323
X024623Y011603
X024937Y005113
X025252Y009676
X025252Y021043
X025331Y015812
X025409Y002596
X025488Y005979
X025842Y015340
X026117Y013216
X026196Y017739
X026275Y023639
X026471Y007788
X026786Y001259
X027061Y024662
X027219Y019155
X027455Y006136
X027848Y019313
X028241Y011171
X028595Y005979
X029107Y003383
X029225Y013059
X029382Y015222
X029421Y005900
X030247Y010069
T2C0.0394F200S100
X003422Y024937
X004484Y024937
X005546Y024937
X009519Y013295
X009519Y014357
X009519Y015419
X010699Y019313
X010699Y020375
X010699Y021437
X012783Y010030
X012783Y011092
X012783Y012154
X013413Y-001770
X014475Y-001770
X015537Y-001770
X023403Y-001809
X024465Y-001809
X025527Y-001809
X027376Y014907
X027376Y015969
X027376Y017031
X029500Y006923
X029500Y007985
X029500Y009047
X029854Y015891
X029854Y016891
X029854Y017891
X029854Y018891
X029854Y019891
X029854Y020891
X029854Y021891
X029854Y022891
X029854Y023891
X029854Y024891
T4C0.1181F200S100
X000039Y-000039
X012036Y014632
X000039Y023639
X027573Y000000
X027691Y023600
T3C0.0945F200S100
X-000753Y018414
X001613Y012701
X001613Y019394
X003979Y018414
X005068Y006339
X007434Y000626
X009800Y006339
X007434Y007319
X016238Y021757
X018605Y016045
X018605Y022738
X019031Y008345
X020971Y021757
X021397Y002632
X023763Y008345
X021397Y009325
M30
